<svg width="463" height="462" viewBox="0 0 463 462" fill="none" xmlns="http://www.w3.org/2000/svg">
<path d="M393.633 305.887L363.888 351.841C362.561 350.853 357.344 347.19 349.449 341.624H349.198V341.503L349.358 341.624L361.416 323.575C362.789 322.201 374.733 315.55 381.323 307.574C384.435 303.646 389.194 301.285 393.633 305.887Z" fill="#ADA9A9"/>
<path d="M85.848 199.305H86.4201C96.6023 225.812 102.666 236.27 103.375 236.246C104.085 236.222 124.243 211.667 132.343 201.835C136.919 196.317 153.966 196.799 153.966 196.799C154.315 194.885 155.316 193.171 156.78 191.979C158.496 190.847 172.5 188.846 180.234 190.726C180.399 190.752 180.561 190.8 180.714 190.871C181.7 191.26 182.577 191.906 183.261 192.749C183.945 193.592 184.415 194.604 184.627 195.69C184.627 195.69 198.562 196.22 202.726 198.1C209.842 201.546 229.52 232.993 230.184 233.017C230.847 233.041 238.398 222.053 248.489 195.57H249.13L263.179 196.051H263.499C263.499 196.051 249.77 249.933 237.208 255.5C224.647 261.066 199.454 229.402 199.454 229.402C198.356 262.343 206.982 272.777 210.895 281.525L134.265 304.899L133.693 305.092C127.904 258.801 134.814 232.8 134.814 232.8C134.814 232.8 108.615 264.801 98.5015 261.09C85.5735 256.464 71.3184 199.738 71.3184 199.738H71.6387L85.848 199.305Z" fill="#ADA9A9"/>
<path d="M266.475 309.743C268.407 308.952 270.478 308.61 272.547 308.739C274.616 308.868 276.634 309.465 278.464 310.49L349.054 341.527V341.407L360.7 323.743C360.7 323.743 313.45 287.308 296.426 276.681C278.533 265.524 258.375 263.356 210.552 281.501" stroke="#ADA9A9" stroke-width="2.16799" stroke-linecap="round" stroke-linejoin="round"/>
<path d="M134.287 305.261C136.526 313.323 140.105 320.902 144.858 327.647C149.31 334.159 155.606 339.018 162.843 341.527C177.83 346.226 209.544 342.925 232.837 340.467C239.444 339.878 246.054 341.57 251.668 345.287L313.54 392.517L327.886 377.047L273.841 316.394C271.571 313.956 269.072 311.768 266.381 309.863C255.421 301.815 232.334 289.983 196.753 296.417" stroke="#ADA9A9" stroke-width="2.16799" stroke-linecap="round" stroke-linejoin="round"/>
<path d="M183.506 148.436C184.036 148.436 184.467 147.983 184.467 147.424C184.467 146.865 184.036 146.412 183.506 146.412C182.975 146.412 182.545 146.865 182.545 147.424C182.545 147.983 182.975 148.436 183.506 148.436Z" fill="#ADA9A9"/>
<path d="M170.668 148.219C171.199 148.219 171.629 147.765 171.629 147.206C171.629 146.647 171.199 146.194 170.668 146.194C170.137 146.194 169.707 146.647 169.707 147.206C169.707 147.765 170.137 148.219 170.668 148.219Z" fill="#ADA9A9"/>
<path d="M158.269 139.496C159.001 134.026 159.207 128.748 163.372 125.037C177.329 112.989 188.541 135.76 190.829 144.701C192.843 153.038 181.677 171.834 178.45 173.159C178.076 173.327 177.684 173.449 177.283 173.521C172.57 174.437 166.575 170.027 164.539 165.641" stroke="#ADA9A9" stroke-width="2.16799" stroke-miterlimit="10" stroke-linecap="round"/>
<path d="M156.574 191.594C156.574 177.328 155.842 164.364 156.986 150.122" stroke="#ADA9A9" stroke-width="2.16799" stroke-miterlimit="10"/>
<path d="M176.984 173.232L177.121 173.81C178.288 179.232 178.609 185.859 180.805 190.678" stroke="#ADA9A9" stroke-width="2.16799" stroke-miterlimit="10"/>
<path d="M160.073 142.098C159.527 141.202 158.865 140.391 158.105 139.688C152.751 134.869 149.204 145.568 151.424 148.628C152.116 149.391 153.006 149.922 153.983 150.153C154.96 150.385 155.98 150.307 156.915 149.93C157.348 149.791 157.769 149.613 158.174 149.399" stroke="#ADA9A9" stroke-width="2.16799" stroke-miterlimit="10" stroke-linecap="round"/>
<path d="M205.219 134.073C205.264 130.091 206.559 126.236 208.902 123.109C214.188 116.892 219.863 119.278 224.668 124.579C226.109 126.221 227.418 127.986 228.58 129.856" stroke="#ADA9A9" stroke-width="2.16799" stroke-miterlimit="10" stroke-linecap="round"/>
<path d="M224.623 124.579C216.088 128.338 207.599 132.845 205.265 134.218C205.24 134.243 205.223 134.276 205.217 134.312C205.211 134.347 205.216 134.384 205.232 134.417C205.247 134.449 205.272 134.475 205.303 134.492C205.334 134.508 205.369 134.514 205.402 134.507C213.307 134.094 221.136 132.678 228.719 130.29C238.603 127.278 246.269 123.23 244.736 120.242C243.203 117.254 234.004 120.459 224.623 124.579Z" stroke="#ADA9A9" stroke-width="2.16799" stroke-miterlimit="10"/>
<path d="M173.05 141.905C172.669 141.522 172.215 141.228 171.718 141.042C171.221 140.857 170.693 140.785 170.167 140.83C169.642 140.876 169.132 141.038 168.67 141.306C168.209 141.575 167.806 141.943 167.49 142.387" stroke="#ADA9A9" stroke-width="2.16799" stroke-miterlimit="10" stroke-linecap="round"/>
<path d="M185.245 142.098C184.863 141.712 184.409 141.416 183.911 141.229C183.413 141.041 182.883 140.967 182.356 141.01C181.829 141.053 181.316 141.213 180.852 141.48C180.388 141.746 179.982 142.113 179.662 142.556" stroke="#ADA9A9" stroke-width="2.16799" stroke-miterlimit="10" stroke-linecap="round"/>
<path d="M172.431 165.038C173.507 162.918 177.305 162.243 178.472 164.388" stroke="#ADA9A9" stroke-width="2.16799" stroke-linecap="round" stroke-linejoin="round"/>
<path d="M157.1 144.026C156.12 144.963 154.855 145.502 153.531 145.544" stroke="#ADA9A9" stroke-width="2.16799" stroke-miterlimit="10" stroke-linecap="round"/>
<path d="M179.592 142.676C178.471 145.616 179.798 150.243 180.21 153.279C180.508 155.375 180.919 159.4 177.533 158.098" stroke="#ADA9A9" stroke-width="2.16799" stroke-miterlimit="10" stroke-linecap="round"/>
<path d="M160.715 308.176C161.013 318.924 153.714 325.237 144.859 327.454C142.794 327.982 140.688 328.305 138.566 328.418" stroke="#ADA9A9" stroke-width="2.16799" stroke-miterlimit="10" stroke-linecap="round"/>
<path d="M364.073 351.985L367.368 354.371L397.114 308.417L393.613 305.887L393.522 305.839L363.776 351.768V351.792L363.845 351.841H363.867L364.073 351.985Z" fill="#ADA9A9" stroke="white" stroke-width="2.16799" stroke-miterlimit="10"/>
<path d="M71.7299 199.401C71.135 197.353 66.1697 192.172 61.8909 189.401C59.6028 188.003 57.1773 186.991 55.7816 186.003C55.5502 185.832 55.3614 185.604 55.2311 185.34C55.1008 185.076 55.0327 184.783 55.0327 184.485C55.0327 184.187 55.1008 183.894 55.2311 183.629C55.3614 183.365 55.5502 183.138 55.7816 182.967C56.4925 182.607 57.2922 182.489 58.0697 182.629C62.3042 183.75 66.2253 185.914 69.5104 188.943" stroke="#ADA9A9" stroke-width="2.16799" stroke-linecap="round" stroke-linejoin="round"/>
<path d="M79.5561 186.847C79.0984 185.208 70.8611 178.22 64.5688 177.015C63.4018 176.798 60.7933 176.244 60.1755 178.509" stroke="#ADA9A9" stroke-width="2.16799" stroke-linecap="round" stroke-linejoin="round"/>
<path d="M71.776 185.473C68.6507 182.045 64.5427 179.793 60.0836 179.063C57.4065 178.606 55.2557 179.063 54.8209 180.341C54.7506 180.743 54.7789 181.158 54.903 181.546C55.0271 181.934 55.243 182.282 55.5302 182.557" stroke="#ADA9A9" stroke-width="2.16799" stroke-linecap="round" stroke-linejoin="round"/>
<path d="M78.5936 191.449C78.4492 190.693 78.4958 189.91 78.7287 189.178C78.9615 188.447 79.3726 187.792 79.9208 187.28C80.6413 186.721 81.4069 186.229 82.2089 185.81C82.4606 185.232 79.5318 178.581 82.5064 177.882C83.6275 177.641 84.5657 178.991 85.0691 179.858C85.9843 181.449 87.9979 194.606 84.9318 202.63" stroke="#ADA9A9" stroke-width="2.16799" stroke-linecap="round" stroke-linejoin="round"/>
<path d="M263.34 196.076C263.957 194.052 269.106 188.389 273.453 185.738C275.741 184.389 278.213 183.521 279.631 182.485C279.897 182.304 280.11 182.048 280.247 181.747C280.383 181.446 280.438 181.111 280.405 180.779C280.372 180.447 280.252 180.132 280.059 179.867C279.866 179.602 279.607 179.399 279.311 179.28C278.681 179.042 278.006 178.967 277.343 179.063C273.074 180.077 269.096 182.151 265.742 185.112" stroke="#ADA9A9" stroke-width="2.16799" stroke-linecap="round" stroke-linejoin="round"/>
<path d="M255.834 182.871C256.314 181.232 264.712 174.461 271.05 173.401C272.217 173.208 274.825 172.726 275.397 174.991" stroke="#ADA9A9" stroke-width="2.16799" stroke-linecap="round" stroke-linejoin="round"/>
<path d="M263.635 181.569C266.841 178.23 270.994 176.081 275.464 175.449C278.164 175.063 280.292 175.449 280.704 176.846C280.765 177.249 280.727 177.662 280.595 178.045C280.463 178.429 280.241 178.771 279.949 179.039" stroke="#ADA9A9" stroke-width="2.16799" stroke-linecap="round" stroke-linejoin="round"/>
<path d="M256.656 187.401C256.827 186.583 256.776 185.732 256.509 184.943C256.242 184.155 255.769 183.462 255.146 182.943C254.208 182.148 253.201 181.858 253.132 181.666C252.88 181.087 255.969 174.436 253.132 173.738C252.011 173.473 250.844 174.75 250.524 175.665C248.205 182.656 247.989 190.229 249.906 197.353" stroke="#ADA9A9" stroke-width="2.16799" stroke-linecap="round" stroke-linejoin="round"/>
<path d="M362.674 350.973C361.347 349.985 349.837 340.105 349.792 340.178" stroke="white" stroke-width="2.16799" stroke-linecap="square" stroke-linejoin="bevel"/>
<path d="M349.655 340.033L359.997 324.515C361.37 323.141 374.687 315.454 381.277 307.478C384.434 303.646 389.194 301.285 393.633 305.887L364.07 351.985L363.887 351.841" stroke="white" stroke-width="2.16799" stroke-linecap="square" stroke-linejoin="bevel"/>
<path d="M143.715 99.1323H399.529C402.105 99.1292 404.657 99.6611 407.037 100.698C409.417 101.735 411.58 103.256 413.402 105.174C415.223 107.092 416.668 109.37 417.652 111.877C418.636 114.384 419.142 117.071 419.139 119.784V402.156C419.139 407.633 417.073 412.886 413.395 416.759C409.718 420.631 404.73 422.807 399.529 422.807H63.4473C58.2506 422.801 53.2687 420.622 49.5962 416.75C45.9237 412.878 43.8608 407.629 43.8609 402.156V119.784C43.8578 117.071 44.363 114.384 45.3474 111.877C46.3318 109.37 47.7761 107.092 49.5976 105.174C51.4191 103.256 53.582 101.735 55.9625 100.698C58.3429 99.6611 60.8942 99.1292 63.4702 99.1323H93.7194" stroke="#ADA9A9" stroke-width="2.16799" stroke-linecap="round" stroke-linejoin="round"/>
<path d="M325.996 405.458L328.811 408.446L366.405 369.384L363.43 366.203L363.339 366.131L325.745 405.192L325.813 405.241L325.836 405.265L325.996 405.458Z" fill="#ADA9A9" stroke="white" stroke-width="2.16799" stroke-miterlimit="10"/>
<path d="M324.806 404.156C323.685 402.927 314.212 390.903 314.167 390.951" stroke="white" stroke-width="2.16799" stroke-linecap="square" stroke-linejoin="bevel"/>
<path d="M314.053 390.782L327.027 377.649C328.629 376.589 343.044 371.77 351.007 365.263C354.828 362.131 359.93 360.781 363.431 366.203L325.997 405.433L325.837 405.265" stroke="white" stroke-width="2.16799" stroke-linecap="square" stroke-linejoin="bevel"/>
<path d="M199.613 229.619C199.613 229.619 224.783 261.283 237.368 255.717C249.953 250.15 263.247 196.004 263.247 196.004L249.175 195.522C238.992 222.029 230.869 233.234 230.252 233.21C229.634 233.186 209.841 201.739 202.794 198.293C198.63 196.293 184.695 195.883 184.695 195.883C184.483 194.797 184.013 193.785 183.329 192.942C182.644 192.099 181.768 191.453 180.782 191.064C180.629 190.994 180.467 190.945 180.302 190.919C172.568 189.04 158.564 190.919 156.848 192.172C155.384 193.364 154.383 195.078 154.034 196.992C154.034 196.992 136.941 196.51 132.411 202.028C124.242 211.787 104.107 236.222 103.351 236.246C102.596 236.27 85.8243 199.907 85.8243 199.907L72.0955 200.293C72.0955 200.293 85.6184 256.464 98.5464 261.091C108.66 264.729 134.859 233.089 134.859 233.089C134.859 233.089 127.995 259.018 133.738 305.381L134.31 305.189L210.894 281.67C207.05 272.874 198.424 262.392 199.453 229.547V229.378" stroke="white" stroke-width="2.16799" stroke-linecap="round" stroke-linejoin="round"/>
<path fill-rule="evenodd" clip-rule="evenodd" d="M148.084 98H90.8806V99.1324H63.4473C60.8733 99.1324 58.3245 99.6667 55.9466 100.705C53.5688 101.743 51.4086 103.264 49.5895 105.182C47.7704 107.1 46.3282 109.377 45.3452 111.883C44.3623 114.388 43.8579 117.073 43.8609 119.784V402.156C43.8609 407.633 45.9268 412.886 49.6043 416.759C53.2818 420.632 58.2695 422.807 63.4702 422.807H399.529C404.726 422.801 409.708 420.622 413.38 416.75C417.053 412.878 419.116 407.629 419.116 402.156V119.784C419.119 117.073 418.614 114.388 417.631 111.883C416.648 109.377 415.206 107.1 413.387 105.182C411.568 103.264 409.408 101.743 407.03 100.705C404.652 99.6667 402.103 99.1324 399.529 99.1324H148.084V98ZM387.173 195.257L384.565 197.666C384.498 197.685 384.441 197.732 384.407 197.795C384.373 197.858 384.364 197.933 384.382 198.004C384.4 198.074 384.444 198.134 384.504 198.17C384.564 198.206 384.635 198.216 384.702 198.196H388.157C388.179 198.196 388.2 198.202 388.219 198.212C388.232 198.219 388.244 198.228 388.254 198.239C388.28 198.266 388.294 198.303 388.294 198.341L388.478 201.98C388.488 202.005 388.506 202.027 388.528 202.043C388.551 202.058 388.577 202.066 388.603 202.066C388.63 202.066 388.656 202.058 388.679 202.043C388.701 202.027 388.719 202.005 388.729 201.98L391.017 199.184C391.043 199.161 391.075 199.148 391.109 199.148C391.143 199.148 391.175 199.161 391.2 199.184L394.015 201.329C394.036 201.352 394.065 201.367 394.095 201.371C394.114 201.373 394.133 201.372 394.15 201.367C394.162 201.363 394.173 201.358 394.183 201.351C394.21 201.335 394.23 201.309 394.241 201.279C394.252 201.249 394.253 201.215 394.244 201.184L393.58 197.594V197.425L396.921 196.437C396.944 196.422 396.964 196.401 396.978 196.376C396.991 196.35 396.998 196.322 396.998 196.293C396.998 196.264 396.991 196.235 396.978 196.21C396.964 196.184 396.944 196.163 396.921 196.148L393.832 194.461V194.268L395.182 190.895C395.187 190.866 395.185 190.836 395.176 190.809C395.167 190.781 395.152 190.756 395.131 190.737C395.11 190.717 395.085 190.704 395.058 190.698C395.031 190.692 395.002 190.693 394.976 190.702L391.818 192.196C391.802 192.211 391.783 192.222 391.763 192.228C391.751 192.231 391.739 192.233 391.727 192.233C391.693 192.233 391.66 192.22 391.635 192.196L389.965 188.967C389.954 188.941 389.937 188.919 389.914 188.904C389.892 188.889 389.866 188.88 389.839 188.88C389.812 188.88 389.786 188.889 389.764 188.904C389.741 188.919 389.724 188.941 389.713 188.967L388.821 192.509C388.797 192.527 388.769 192.537 388.741 192.537C388.712 192.537 388.684 192.527 388.661 192.509L385.251 191.883C385.222 191.873 385.19 191.874 385.161 191.886C385.133 191.897 385.108 191.919 385.093 191.947C385.077 191.974 385.07 192.007 385.074 192.039C385.076 192.052 385.079 192.064 385.084 192.076C385.091 192.094 385.101 192.11 385.114 192.124L387.173 195.04C387.194 195.072 387.205 195.109 387.205 195.148C387.205 195.17 387.201 195.192 387.195 195.212C387.189 195.228 387.182 195.243 387.173 195.257ZM386.144 263.572L384.29 261.693L384.016 261.669L384.13 264.392L381.567 264.729V264.922L383.65 266.512V266.657L382.3 269.067L382.414 269.235L384.908 268.488L385.8 271.043H386.006L387.013 268.633H387.15L389.576 269.5C389.713 269.524 389.713 269.332 389.713 269.332L388.5 266.922V266.777L390.674 265.307C390.694 265.298 390.71 265.282 390.721 265.263C390.733 265.244 390.739 265.222 390.739 265.199C390.739 265.176 390.733 265.154 390.721 265.135C390.71 265.116 390.694 265.1 390.674 265.09L388.134 264.609V264.488L388.409 261.789H388.226L386.281 263.572H386.144ZM369.257 124.941L365.527 128.555C365.5 128.594 365.481 128.639 365.474 128.687C365.467 128.736 365.472 128.785 365.488 128.83C365.504 128.876 365.531 128.917 365.566 128.949C365.601 128.981 365.643 129.003 365.688 129.013L370.722 129.447C370.778 129.456 370.831 129.481 370.875 129.519C370.92 129.557 370.954 129.607 370.973 129.664L372.072 134.869C372.095 134.914 372.13 134.952 372.172 134.978C372.215 135.004 372.263 135.018 372.312 135.018C372.361 135.018 372.409 135.004 372.451 134.978C372.494 134.952 372.528 134.914 372.552 134.869L375.435 130.483C375.478 130.45 375.53 130.432 375.584 130.432C375.637 130.432 375.689 130.45 375.733 130.483L380.561 132.049C380.608 132.069 380.659 132.074 380.709 132.062C380.759 132.05 380.804 132.023 380.838 131.984C380.873 131.945 380.896 131.896 380.903 131.843C380.911 131.79 380.903 131.736 380.881 131.688L378.73 126.868C378.704 126.821 378.69 126.767 378.69 126.712C378.69 126.657 378.704 126.603 378.73 126.555L382.46 122.941C382.493 122.902 382.517 122.854 382.527 122.803C382.537 122.752 382.534 122.698 382.517 122.649C382.501 122.599 382.472 122.555 382.433 122.522C382.395 122.488 382.349 122.466 382.3 122.459L377.266 122.025C377.209 122.016 377.156 121.991 377.112 121.952C377.067 121.914 377.034 121.864 377.014 121.808L375.916 116.603C375.892 116.558 375.857 116.52 375.815 116.494C375.773 116.468 375.724 116.454 375.675 116.454C375.626 116.454 375.578 116.468 375.536 116.494C375.494 116.52 375.459 116.558 375.435 116.603L372.552 120.989C372.509 121.022 372.457 121.04 372.403 121.04C372.35 121.04 372.298 121.022 372.255 120.989L367.427 119.422C367.38 119.402 367.328 119.398 367.278 119.41C367.229 119.421 367.184 119.448 367.149 119.487C367.114 119.527 367.092 119.576 367.084 119.629C367.076 119.682 367.084 119.736 367.106 119.784L369.257 124.603C369.285 124.655 369.3 124.713 369.3 124.772C369.3 124.831 369.285 124.889 369.257 124.941ZM329.169 178.991L327.087 179.521C326.995 179.521 327.11 179.569 327.11 179.569L328.963 180.702V180.822L328.048 182.846C328.025 182.991 328.162 182.991 328.162 182.991L330.153 182.148L331.091 184.196H331.251L331.892 182.051H332.006L334.088 182.533V182.389L332.876 180.533L334.546 179.111V178.943L332.418 178.774V176.509H332.258L330.794 178.147H330.679L328.986 176.75H328.849L329.169 178.991ZM311.779 240.415L309.285 242.825C309.266 242.843 309.25 242.865 309.239 242.89C309.229 242.915 309.223 242.942 309.223 242.969C309.223 242.982 309.224 242.995 309.227 243.008C309.23 243.022 309.234 243.035 309.239 243.048C309.25 243.073 309.266 243.096 309.285 243.114L312.786 243.403C312.821 243.413 312.853 243.432 312.881 243.457C312.909 243.482 312.931 243.513 312.946 243.547L313.701 247.066C313.713 247.097 313.734 247.124 313.76 247.143C313.787 247.162 313.818 247.172 313.85 247.172C313.882 247.172 313.913 247.162 313.94 247.143C313.966 247.124 313.987 247.097 313.999 247.066L315.944 244.126C315.974 244.104 316.01 244.092 316.047 244.092C316.083 244.092 316.119 244.104 316.149 244.126L319.399 245.186C319.43 245.202 319.465 245.207 319.499 245.2C319.533 245.193 319.564 245.174 319.588 245.147C319.611 245.12 319.625 245.086 319.628 245.049C319.631 245.013 319.623 244.976 319.605 244.945L318.163 241.692C318.142 241.66 318.131 241.622 318.131 241.584C318.131 241.545 318.142 241.507 318.163 241.475L320.657 239.065C320.693 239.047 320.72 239.015 320.734 238.976C320.749 238.937 320.749 238.893 320.734 238.854C320.726 238.831 320.712 238.81 320.696 238.793C320.684 238.782 320.671 238.772 320.657 238.764C320.622 238.745 320.581 238.741 320.543 238.752L317.156 238.439C317.12 238.432 317.085 238.415 317.057 238.39C317.029 238.364 317.008 238.331 316.996 238.294L316.241 234.8C316.229 234.769 316.209 234.742 316.182 234.723C316.156 234.704 316.124 234.694 316.092 234.694C316.06 234.694 316.029 234.704 316.002 234.723C315.976 234.742 315.955 234.769 315.944 234.8L313.999 237.74C313.968 237.762 313.932 237.773 313.896 237.773C313.859 237.773 313.823 237.762 313.793 237.74L310.544 236.68C310.511 236.672 310.477 236.675 310.445 236.687C310.413 236.698 310.385 236.719 310.364 236.746C310.343 236.774 310.329 236.807 310.324 236.842C310.32 236.877 310.324 236.912 310.338 236.945L311.779 240.198C311.8 240.23 311.811 240.268 311.811 240.306C311.811 240.345 311.8 240.383 311.779 240.415ZM283.978 130.411L280.34 131.302C280.307 131.288 280.27 131.286 280.236 131.296C280.201 131.306 280.171 131.329 280.15 131.359C280.129 131.39 280.118 131.427 280.119 131.465C280.121 131.502 280.134 131.539 280.157 131.567L283.406 133.543C283.421 133.557 283.433 133.574 283.441 133.592C283.449 133.611 283.453 133.631 283.453 133.652C283.453 133.672 283.449 133.693 283.441 133.711C283.436 133.721 283.431 133.73 283.425 133.739C283.42 133.746 283.413 133.754 283.406 133.76L281.805 137.303C281.786 137.334 281.778 137.37 281.781 137.407C281.784 137.443 281.798 137.477 281.821 137.505C281.845 137.532 281.876 137.55 281.91 137.557C281.944 137.564 281.979 137.559 282.01 137.543L285.488 136.098C285.519 136.076 285.555 136.064 285.591 136.064C285.628 136.064 285.664 136.076 285.694 136.098L287.319 139.64C287.331 139.671 287.351 139.698 287.378 139.717C287.404 139.736 287.436 139.746 287.468 139.746C287.5 139.746 287.531 139.736 287.557 139.717C287.584 139.698 287.604 139.671 287.616 139.64L288.715 135.881C288.743 135.866 288.774 135.858 288.806 135.858C288.838 135.858 288.869 135.866 288.898 135.881L292.559 136.748C292.589 136.771 292.627 136.779 292.663 136.773C292.7 136.766 292.732 136.744 292.753 136.712C292.775 136.68 292.783 136.641 292.776 136.602C292.77 136.564 292.749 136.53 292.719 136.507L290.614 133.254C290.588 133.22 290.574 133.177 290.574 133.134C290.574 133.09 290.588 133.047 290.614 133.013L293.543 130.603C293.566 130.588 293.586 130.567 293.6 130.542C293.613 130.517 293.62 130.488 293.62 130.459C293.62 130.43 293.613 130.401 293.6 130.376C293.586 130.35 293.566 130.329 293.543 130.314L289.813 130.001C289.774 130.001 289.737 129.987 289.707 129.96C289.678 129.934 289.658 129.897 289.653 129.856V125.808C289.653 125.774 289.644 125.741 289.627 125.713C289.609 125.685 289.584 125.663 289.554 125.65C289.525 125.637 289.492 125.634 289.461 125.64C289.429 125.647 289.401 125.664 289.378 125.688L286.838 128.579C286.806 128.607 286.766 128.622 286.724 128.622C286.682 128.622 286.642 128.607 286.61 128.579L283.681 126.169C283.655 126.149 283.624 126.138 283.591 126.137C283.559 126.136 283.527 126.145 283.5 126.163C283.473 126.182 283.452 126.208 283.439 126.239C283.426 126.27 283.423 126.305 283.429 126.338L283.978 130.242C283.999 130.264 284.011 130.295 284.011 130.326C284.011 130.358 283.999 130.388 283.978 130.411ZM224.67 124.579C219.865 119.278 214.19 116.892 208.904 123.109C206.601 126.267 205.354 130.139 205.358 134.122C205.333 134.147 205.316 134.179 205.31 134.215C205.304 134.251 205.309 134.288 205.324 134.32C205.34 134.353 205.364 134.379 205.395 134.395C205.426 134.412 205.461 134.417 205.495 134.411C213.4 133.998 221.228 132.582 228.811 130.194C238.604 127.182 246.247 122.94 244.828 120.145C243.41 117.35 234.005 120.458 224.67 124.579ZM217.759 169.545V169.424L217.142 168.003V167.882L218.652 166.846V166.701L216.867 166.364L217.05 164.46H216.913L215.563 165.713L214.282 164.388H214.144V166.292L212.337 166.532V166.677L213.801 167.786L212.84 169.424L214.579 168.918L215.197 170.701H215.334L216.043 168.942L217.759 169.545ZM116.715 185.015L114.633 185.545H114.541C114.45 185.545 114.541 185.618 114.541 185.618L116.395 186.75V186.871L115.48 188.895C115.457 189.039 115.594 189.039 115.594 189.039L117.585 188.196H117.699L118.637 190.244H118.797L119.438 188.075L121.52 188.557V188.413L120.308 186.557L121.978 185.136V184.967L119.85 184.798V182.533H119.69L118.225 184.172L116.532 182.774C116.395 182.63 116.395 182.774 116.395 182.774L116.715 185.015ZM59.5346 131.736L57.4524 132.266C57.3609 132.266 57.4753 132.435 57.4753 132.435L59.3287 133.567V133.688L58.4134 135.712C58.2761 135.857 58.4134 135.857 58.4134 135.857L60.4041 135.013H60.5185L61.4567 137.062H61.6168L62.2575 134.917H62.3719L64.4541 135.399V135.254L63.2414 133.399V133.278L64.9117 131.857V131.688L62.7838 131.519V129.254H62.6236L61.1592 130.893H61.0448L59.3516 129.495H59.2143L59.5346 131.736ZM62.349 248.56L63.9278 247.042V247.018C63.9474 247.005 63.9644 246.988 63.9778 246.969C63.9912 246.949 64.0009 246.927 64.0062 246.904C64.0115 246.88 64.0124 246.856 64.0088 246.832C64.0051 246.808 63.9971 246.785 63.9851 246.765C63.973 246.744 63.9573 246.726 63.9387 246.712C63.9201 246.698 63.8991 246.688 63.8768 246.682C63.8545 246.676 63.8313 246.675 63.8087 246.679C63.786 246.683 63.7643 246.692 63.7448 246.704L61.6168 246.536L61.1592 244.343C61.1498 244.322 61.1352 244.305 61.117 244.293C61.0988 244.281 61.0777 244.275 61.0562 244.275C61.0347 244.275 61.0137 244.281 60.9955 244.293C60.9773 244.305 60.9626 244.322 60.9533 244.343L59.7406 246.198H59.6261L57.5897 245.523C57.5563 245.527 57.5255 245.544 57.5041 245.571C57.4826 245.598 57.4723 245.633 57.4753 245.668C57.4783 245.703 57.4945 245.736 57.5202 245.758C57.546 245.781 57.5792 245.792 57.6126 245.789L58.505 247.813V247.957L56.949 249.475V249.668L59.077 249.861L59.5575 252.054H59.7406L60.9533 250.222H61.0906L63.127 250.897C63.1484 250.904 63.1715 250.905 63.1931 250.898C63.2148 250.892 63.2342 250.879 63.2489 250.861C63.2635 250.843 63.2728 250.821 63.2756 250.797C63.2783 250.774 63.2744 250.75 63.2643 250.728L62.349 248.704C62.3389 248.682 62.3336 248.657 62.3336 248.632C62.3336 248.607 62.3389 248.582 62.349 248.56ZM78.5033 397.096L82.233 393.481L82.2787 393.457C82.3485 393.425 82.4034 393.365 82.4313 393.291C82.4592 393.216 82.4578 393.133 82.4275 393.059C82.3971 392.986 82.3403 392.928 82.2695 392.899C82.1987 392.869 82.1197 392.871 82.0499 392.903L77.016 392.445C76.9605 392.443 76.9067 392.424 76.8617 392.39C76.8168 392.355 76.7828 392.307 76.7643 392.252L75.6431 387.047C75.623 387.001 75.5908 386.962 75.5502 386.934C75.5097 386.907 75.4625 386.892 75.4143 386.892C75.3661 386.892 75.3189 386.907 75.2784 386.934C75.2378 386.962 75.2056 387.001 75.1855 387.047L72.3024 391.409C72.2737 391.462 72.2283 391.503 72.1741 391.525C72.1199 391.547 72.0601 391.548 72.005 391.529L67.177 389.939C67.1283 389.926 67.0773 389.928 67.0295 389.944C66.9818 389.96 66.9391 389.99 66.9061 390.029C66.8731 390.069 66.851 390.118 66.8423 390.17C66.8336 390.221 66.8386 390.275 66.8567 390.324L69.0075 395.144C69.041 395.193 69.0591 395.252 69.0591 395.312C69.0591 395.373 69.041 395.432 69.0075 395.481L65.3007 399.096C65.2648 399.131 65.2395 399.177 65.2282 399.228C65.2169 399.279 65.2199 399.331 65.237 399.38C65.2541 399.429 65.2844 399.472 65.3242 399.502C65.364 399.533 65.4116 399.551 65.4609 399.553L70.4948 400.011C70.5522 400.018 70.6066 400.042 70.6513 400.08C70.696 400.119 70.7291 400.17 70.7465 400.228L71.8448 405.433C71.8686 405.478 71.9034 405.516 71.9456 405.542C71.9879 405.569 72.036 405.582 72.0851 405.582C72.1341 405.582 72.1823 405.569 72.2245 405.542C72.2668 405.516 72.3016 405.478 72.3253 405.433L75.2084 401.047C75.2515 401.014 75.3036 400.996 75.3571 400.996C75.4106 400.996 75.4627 401.014 75.5058 401.047L80.3338 402.614C80.3825 402.626 80.4335 402.624 80.4813 402.608C80.5291 402.592 80.5717 402.563 80.6047 402.523C80.6377 402.483 80.6598 402.435 80.6685 402.383C80.6772 402.331 80.6723 402.278 80.6542 402.228L78.5033 397.409C78.4747 397.362 78.4595 397.308 78.4595 397.252C78.4595 397.197 78.4747 397.142 78.5033 397.096ZM91.4999 309.333L94.4516 306.465L94.4974 306.442C94.5264 306.408 94.5449 306.367 94.5504 306.322C94.5559 306.277 94.548 306.232 94.5279 306.192C94.5077 306.152 94.4764 306.12 94.4381 306.1C94.3998 306.08 94.3566 306.073 94.3143 306.08L90.2872 305.718C90.2424 305.719 90.199 305.702 90.1652 305.671C90.1315 305.64 90.1098 305.597 90.1042 305.55L89.2118 301.405C89.1945 301.37 89.1682 301.34 89.1359 301.319C89.1036 301.299 89.0666 301.288 89.0287 301.288C88.9909 301.288 88.9538 301.299 88.9215 301.319C88.8893 301.34 88.863 301.37 88.8457 301.405L86.5575 304.899C86.5237 304.923 86.4839 304.936 86.4431 304.936C86.4024 304.936 86.3626 304.923 86.3287 304.899L82.4847 303.646C82.4447 303.63 82.4008 303.627 82.3592 303.638C82.3176 303.649 82.2803 303.674 82.2525 303.708C82.2248 303.743 82.208 303.785 82.2045 303.83C82.201 303.876 82.2109 303.921 82.233 303.959L83.9491 307.791C83.9712 307.831 83.9828 307.877 83.9828 307.923C83.9828 307.97 83.9712 308.016 83.9491 308.056L80.9745 310.924C80.9502 310.956 80.9343 310.995 80.9283 311.036C80.9223 311.076 80.9264 311.118 80.9402 311.157C80.954 311.196 80.977 311.23 81.0071 311.257C81.0371 311.283 81.0732 311.301 81.1118 311.309L85.116 311.671C85.1609 311.67 85.2043 311.687 85.238 311.718C85.2717 311.749 85.2935 311.792 85.2991 311.839L86.1914 315.984C86.212 316.019 86.2406 316.048 86.2746 316.068C86.3087 316.088 86.347 316.098 86.3859 316.098C86.4249 316.098 86.4632 316.088 86.4972 316.068C86.5313 316.048 86.5599 316.019 86.5804 315.984L88.8686 312.49C88.9068 312.467 88.9502 312.454 88.9944 312.454C89.0386 312.454 89.082 312.467 89.1203 312.49L92.9643 313.743C93.0043 313.759 93.0482 313.762 93.0898 313.751C93.1315 313.74 93.1687 313.716 93.1965 313.681C93.2242 313.646 93.241 313.604 93.2445 313.559C93.248 313.514 93.2381 313.468 93.216 313.43L91.4999 309.598C91.4721 309.56 91.457 309.514 91.457 309.466C91.457 309.418 91.4721 309.371 91.4999 309.333ZM156.643 398.059L160.556 397.12C160.597 397.107 160.634 397.082 160.661 397.047C160.688 397.012 160.704 396.969 160.706 396.923C160.709 396.878 160.698 396.833 160.675 396.795C160.652 396.757 160.619 396.727 160.579 396.71L157.261 394.3C157.235 394.266 157.221 394.224 157.221 394.18C157.221 394.136 157.235 394.094 157.261 394.059L158.451 390.011C158.467 389.969 158.469 389.923 158.459 389.879C158.45 389.844 158.434 389.813 158.412 389.787C158.406 389.779 158.399 389.773 158.392 389.767C158.359 389.737 158.319 389.72 158.276 389.716C158.233 389.712 158.19 389.723 158.153 389.746L154.515 391.553C154.476 391.571 154.433 391.58 154.389 391.58C154.346 391.58 154.303 391.571 154.264 391.553L151.541 388.42C151.514 388.385 151.476 388.359 151.435 388.347C151.393 388.335 151.349 388.338 151.308 388.354C151.268 388.37 151.233 388.399 151.209 388.437C151.185 388.475 151.173 388.519 151.175 388.565L150.831 392.782C150.832 392.829 150.816 392.875 150.786 392.911C150.757 392.946 150.716 392.969 150.671 392.975L146.736 393.915C146.695 393.93 146.66 393.957 146.635 393.994C146.611 394.031 146.597 394.074 146.597 394.119C146.597 394.164 146.611 394.208 146.635 394.245C146.66 394.282 146.695 394.31 146.736 394.324L150.053 396.734C150.074 396.771 150.084 396.812 150.084 396.855C150.084 396.897 150.074 396.938 150.053 396.975L148.864 401.047C148.852 401.087 148.851 401.129 148.861 401.168C148.872 401.208 148.892 401.244 148.921 401.272C148.95 401.299 148.986 401.318 149.024 401.325C149.062 401.332 149.102 401.328 149.138 401.313L152.799 399.505C152.832 399.478 152.872 399.463 152.914 399.463C152.955 399.463 152.996 399.478 153.028 399.505L155.774 402.614C155.8 402.648 155.835 402.673 155.874 402.686C155.914 402.698 155.956 402.698 155.996 402.685C156.035 402.672 156.07 402.647 156.096 402.613C156.122 402.578 156.137 402.537 156.14 402.493L156.483 398.252C156.483 398.205 156.499 398.159 156.528 398.124C156.558 398.088 156.599 398.065 156.643 398.059ZM220.528 368.01L222.816 366.54H222.908C222.976 366.492 222.725 366.372 222.725 366.372L220.185 365.89C220.175 365.867 220.169 365.842 220.169 365.817C220.169 365.792 220.175 365.768 220.185 365.745L220.437 363.046H220.276L218.332 364.853C218.308 364.871 218.28 364.88 218.251 364.88C218.237 364.88 218.223 364.878 218.21 364.874C218.196 364.869 218.183 364.862 218.171 364.853L216.341 362.974H216.158L216.272 365.697L213.709 366.034V366.227L215.792 367.817V367.986L214.465 370.396C214.282 370.564 214.465 370.564 214.465 370.564L216.936 369.842H217.073L217.965 372.251H218.148L219.178 369.842L221.626 370.709C221.764 370.757 221.764 370.564 221.764 370.564L220.528 368.155V368.01ZM284.116 407.409L286.404 405.939C286.464 405.942 286.524 405.92 286.569 405.877C286.6 405.848 286.622 405.81 286.634 405.769C286.64 405.75 286.643 405.73 286.644 405.71C286.647 405.646 286.626 405.584 286.585 405.536C286.544 405.489 286.487 405.46 286.427 405.457L283.887 404.975L284.161 402.276H283.978L282.033 404.06H281.896L280.043 402.156H279.86V404.855V404.975L277.297 405.313C277.278 405.323 277.261 405.338 277.25 405.357C277.238 405.376 277.232 405.398 277.232 405.421C277.232 405.444 277.238 405.466 277.25 405.485C277.261 405.504 277.278 405.52 277.297 405.53L279.379 407.12V407.265L278.029 409.674V409.843L280.523 409.12L281.416 411.674H281.621L282.628 409.265H282.766L285.191 410.132C285.212 410.139 285.235 410.14 285.257 410.133C285.279 410.127 285.298 410.114 285.313 410.096C285.327 410.078 285.337 410.056 285.34 410.032C285.342 410.009 285.338 409.985 285.328 409.963L284.116 407.554V407.409ZM363.811 351.841L363.994 351.985L367.015 353.961L396.761 308.008L393.283 305.598C388.844 300.995 384.084 303.357 380.927 307.189C376.074 313.062 368.319 318.216 364.018 321.075C362.479 322.098 361.382 322.827 361.02 323.189L348.961 341.238L348.801 341.117L360.448 323.454C360.448 323.454 313.198 287.019 296.174 276.392C278.281 265.235 258.465 263.331 210.643 281.404C210.045 280.067 209.337 278.69 208.57 277.199C204.32 268.94 198.272 257.186 199.203 229.282C199.203 229.282 224.395 260.946 236.957 255.379C249.519 249.813 263.248 195.931 263.248 195.931H262.927V195.739C263.545 193.714 268.693 188.051 273.041 185.401C274.096 184.766 275.212 184.238 276.246 183.748C277.409 183.198 278.468 182.696 279.219 182.148C279.485 181.966 279.698 181.711 279.834 181.41C279.971 181.108 280.026 180.774 279.992 180.442C279.959 180.11 279.84 179.794 279.646 179.529C279.453 179.265 279.195 179.062 278.899 178.943L279.539 178.702C279.831 178.433 280.053 178.091 280.186 177.708C280.318 177.324 280.355 176.912 280.294 176.509C279.882 175.111 277.755 174.726 275.055 175.111V174.557C274.494 172.338 271.979 172.755 270.78 172.954L270.707 172.967C264.369 174.027 255.971 180.798 255.491 182.437L254.85 182.605C254.32 182.156 253.747 181.869 253.348 181.669C253.04 181.514 252.837 181.412 252.837 181.328C252.802 181.153 252.971 180.612 253.196 179.888C253.868 177.722 255.049 173.924 252.837 173.4C251.715 173.135 250.663 174.412 250.228 175.328C249.359 177.111 247.208 184.148 249.061 195.353H248.421C238.33 221.836 230.779 232.824 230.115 232.8C229.937 232.794 228.38 230.509 226.061 227.107C219.766 217.872 207.858 200.401 202.658 197.883C198.493 196.003 184.559 195.473 184.559 195.473C184.347 194.387 183.877 193.375 183.192 192.532C182.508 191.689 181.632 191.043 180.646 190.654V190.413C179.161 187.154 178.533 183.07 177.922 179.09C177.629 177.183 177.34 175.301 176.962 173.545C177.363 173.472 177.755 173.351 178.129 173.183C181.355 171.858 192.521 153.062 190.508 144.724C188.22 135.784 177.008 113.012 163.05 125.061C159.335 128.372 158.77 132.929 158.172 137.757C158.099 138.341 158.027 138.929 157.948 139.519V139.64C152.593 134.748 148.978 145.52 151.266 148.58C151.958 149.343 152.848 149.873 153.825 150.105C154.802 150.337 155.822 150.259 156.758 149.881V150.074C155.938 160.271 156.081 169.814 156.228 179.648C156.287 183.548 156.346 187.494 156.346 191.545L156.552 191.931C155.088 193.123 154.087 194.837 153.737 196.751C153.737 196.751 136.691 196.269 132.114 201.787C131.475 202.563 130.761 203.431 129.987 204.371C120.953 215.342 103.8 236.176 103.147 236.198C102.437 236.222 96.3737 225.764 86.1914 199.257H85.6194C87.633 188.244 85.7109 181.593 84.8643 179.81C84.4525 178.894 83.4228 177.593 82.3016 177.834C80.1128 178.348 81.1204 182.085 81.7052 184.254C81.9152 185.033 82.0706 185.609 82.0041 185.762C81.2021 186.181 80.4365 186.673 79.716 187.232L79.3499 186.798C78.8923 185.16 70.655 178.172 64.3626 176.967C64.3314 176.961 64.2991 176.955 64.2659 176.949C63.0575 176.722 60.5706 176.256 59.9694 178.461V179.015C57.2922 178.557 55.1414 178.894 54.7066 180.292C54.6364 180.695 54.6646 181.109 54.7887 181.497C54.9128 181.885 55.1287 182.233 55.416 182.509L55.6905 182.919C55.4592 183.09 55.2704 183.317 55.1401 183.581C55.0097 183.846 54.9417 184.139 54.9417 184.437C54.9417 184.735 55.0097 185.028 55.1401 185.292C55.2704 185.556 55.4592 185.784 55.6905 185.955C56.4254 186.475 57.4458 187.002 58.5812 187.588C59.6023 188.116 60.7165 188.691 61.7999 189.353C66.0787 192.124 71.044 197.305 71.6389 199.353V199.739H71.3185C71.3185 199.739 85.5737 256.464 98.5016 261.09C108.615 264.801 134.837 232.872 134.837 232.872C134.837 232.872 127.927 258.873 133.716 305.164L134.288 304.971V305.116C136.527 313.178 140.106 320.758 144.859 327.503C149.305 334.01 155.593 338.868 162.821 341.383C177.717 346.025 208.757 342.812 231.964 340.41L232.815 340.322C239.423 339.734 246.033 341.425 251.647 345.142L313.541 392.517L327.979 377.167L273.933 316.514C271.664 314.076 269.164 311.888 266.474 309.984V309.839C268.406 309.049 270.477 308.706 272.546 308.835C274.615 308.964 276.634 309.561 278.464 310.586L349.122 341.624H349.373C350.993 342.765 352.499 343.827 353.883 344.802C359.244 348.58 362.757 351.055 363.811 351.841ZM399.506 367.552L401.177 366.13H401.222L401.085 366.01L398.957 365.841V363.576H398.797L397.333 365.215L395.662 363.817H395.502L395.822 366.058L393.74 366.588V366.757L395.594 367.89V368.01L394.656 370.034C394.518 370.179 394.656 370.179 394.656 370.179L396.646 369.335H396.761L397.699 371.36H397.882L398.5 369.191H398.614L400.696 369.673V369.528L399.506 367.673V367.552Z" fill="#ADA9A9"/>
<path d="M327.79 406.744L330.699 409.843L370.297 368.569L367.204 365.282L367.12 365.214L327.528 406.463L327.523 406.488L327.584 406.551L327.607 406.555L327.79 406.744Z" fill="#ADA9A9" stroke="white" stroke-width="2.66899" stroke-miterlimit="10"/>
<path d="M326.556 405.43C325.39 404.154 315.532 391.743 315.471 391.809" stroke="white" stroke-width="2.66899" stroke-linecap="square" stroke-linejoin="bevel"/>
<path d="M315.361 391.633L329.038 377.754C330.717 376.616 345.899 371.359 354.236 364.477C358.233 361.17 363.583 359.687 367.228 365.286L327.79 406.744L327.631 406.56" stroke="white" stroke-width="2.66899" stroke-linecap="square" stroke-linejoin="bevel"/>
<path d="M139.026 80.7551L83.2367 80.7557C80.9594 80.6453 78.7028 81.4795 76.96 83.0759C75.2173 84.6722 74.1303 86.9009 73.9366 89.2746L72.2788 141.097C72.291 142.279 72.5273 143.438 72.974 144.509C73.4207 145.58 74.0691 146.542 74.8821 147.34C75.6951 148.137 76.6568 148.755 77.712 149.157C78.7672 149.559 79.8953 149.738 81.0316 149.684L119.415 149.683C119.222 162.833 120.882 163.712 121.776 164.185C122.057 164.321 122.365 164.39 122.679 164.388C123.213 164.364 123.732 164.163 124.159 163.814C126.29 162.157 128.229 157.357 129.969 149.683L136.821 149.683C139.098 149.793 141.354 148.959 143.097 147.363C144.84 145.767 145.927 143.538 146.121 141.164L147.781 89.2739C147.739 86.9001 146.794 84.6715 145.154 83.0752C143.513 81.4789 141.31 80.6447 139.026 80.7551ZM143.298 141.097C143.13 142.693 142.366 144.178 141.171 145.229C139.977 146.279 138.448 146.811 136.916 146.708L130.583 146.708C130.892 145.187 131.053 144.207 131.053 144.207C131.087 144.016 131.084 143.821 131.044 143.633C131.004 143.446 130.928 143.27 130.821 143.116C130.714 142.962 130.578 142.832 130.421 142.735C130.263 142.638 130.088 142.575 129.905 142.55C129.537 142.502 129.16 142.605 128.856 142.839C128.551 143.073 128.342 143.418 128.273 143.801C128.273 143.801 128.025 145.491 127.495 147.824C126.828 152.45 125.283 156.92 122.951 160.974C122.131 156.78 121.898 152.466 122.256 148.162C122.382 144.241 122.483 141.063 122.483 141.063C122.505 140.674 122.379 140.297 122.133 140.013C121.887 139.728 121.541 139.559 121.168 139.542C120.799 139.549 120.441 139.698 120.162 139.96C119.884 140.222 119.706 140.579 119.661 140.962C119.661 140.962 119.583 143.429 119.478 146.708L81.1268 146.709C79.586 146.82 78.0861 146.292 76.9568 145.24C75.8274 144.187 75.1609 142.697 75.1039 141.097L76.7618 89.2746C76.9292 87.6805 77.6942 86.1991 78.8897 85.154C80.0853 84.1089 81.6142 83.585 83.1426 83.6967L138.932 83.6962C140.465 83.5933 141.955 84.1204 143.082 85.1637C144.209 86.207 144.882 87.6832 144.955 89.2739L143.298 141.097Z" fill="white"/>
<path d="M105.844 123.158L112.431 123.021C111.498 116.019 122.578 114.873 122.448 107.448C122.33 100.685 116.899 97.3381 109.552 97.4909C104.131 97.6037 99.7158 100.188 96.5389 104.019L100.76 107.747C103.198 105.102 105.706 103.625 108.797 103.561C112.799 103.477 115.261 105.156 115.316 108.258C115.402 113.191 104.641 115.195 105.844 123.158ZM109.426 136.667C111.959 136.614 113.851 134.692 113.805 132.048C113.759 129.403 111.802 127.612 109.268 127.665C106.684 127.719 104.791 129.59 104.837 132.234C104.883 134.879 106.791 136.721 109.426 136.667Z" fill="#FFC046"/>
</svg>
