<svg width="66" height="66" viewBox="0 0 66 66" fill="none" xmlns="http://www.w3.org/2000/svg">
<circle cx="32.8213" cy="32.8213" r="32.8213" fill="#D9D9D9"/>
<path fill-rule="evenodd" clip-rule="evenodd" d="M13.7691 59.0139C13.3509 57.7528 13.1284 56.4302 13.1284 55.0669C13.1284 49.152 17.3172 44.0019 23.5021 41.331C19.8553 38.5312 17.5044 34.1274 17.5044 29.1745C17.5044 20.7154 24.3619 13.8579 32.821 13.8579C41.2801 13.8579 48.1376 20.7154 48.1376 29.1745C48.1376 34.0116 45.8954 38.325 42.3936 41.132C48.8386 43.7403 53.2433 49.0014 53.2433 55.0669C53.2433 56.693 52.9267 58.2614 52.3391 59.7363C47.0165 63.4587 40.5386 65.6426 33.5506 65.6426C26.122 65.6426 19.2697 63.1746 13.7691 59.0139Z" fill="white"/>
</svg>
