<svg width="212" height="187" viewBox="0 0 212 187" fill="none" xmlns="http://www.w3.org/2000/svg">
<g clip-path="url(#clip0_175_3331)">
<path d="M156.329 74.1961C154.273 75.5104 152.011 76.2705 149.696 76.4255C148.844 76.7593 147.973 77.0172 147.09 77.1972C143.599 77.9403 137.78 77.7975 138.153 68.8799C138.164 68.8044 138.164 68.7268 138.153 68.6512C138.274 67.4074 138.596 66.2058 139.099 65.1164C139.603 64.0269 140.278 63.0716 141.085 62.3061C141.824 61.6534 142.712 61.3033 143.622 61.3057H144.041C144.477 61.3901 144.871 61.6714 145.147 62.0945C145.422 62.5175 145.559 63.0517 145.531 63.5923C145.531 64.8213 143.692 65.936 142.784 68.2225C142.406 69.161 142.245 70.209 142.319 71.2522" stroke="#ADA9A9" stroke-width="3.53362" stroke-linecap="round" stroke-linejoin="round"/>
<path d="M10.8454 228.541L9.54205 228.941C-3.77047 180.552 12.5909 120.33 55.0421 97.2069L73.8937 93.2055C73.8336 91.8283 74.1455 90.4654 74.781 89.3283C75.4165 88.1913 76.34 87.3438 77.408 86.9175C77.6502 86.8206 77.8997 86.7536 78.1528 86.7174C85.7119 85.584 93.3552 85.584 100.914 86.7174C101.3 86.802 101.675 86.9461 102.032 87.1461C103.917 88.5181 104.359 90.6331 105.104 93.0054C105.104 93.0054 122.466 91.5191 127.283 98.1216C135.941 109.926 145.53 128.018 146.228 127.761C146.926 127.504 147.415 103.066 147.159 77.7427V77.2282C148.042 77.0482 148.913 76.7904 149.766 76.4565C152.081 76.3015 154.342 75.5414 156.399 74.2271V74.0557L158.051 74.9702L158.866 75.4561V75.6848C160.332 90.6045 165.685 150.884 157.283 161.802C153.699 166.461 120.93 137.793 120.93 137.793C120.93 137.793 133.847 235.257 134.428 246.176H130.379L43.0561 246.919C43.2191 226.168 51.4113 159.172 54.9256 130.991C54.9256 130.991 17.3155 157.743 24.3441 223.396C24.3208 224.596 14.4528 227.597 10.8454 228.541Z" fill="#ADA9A9"/>
<path d="M111.691 42.9271C111.947 43.3632 112.056 43.904 111.995 44.4365C111.934 44.969 111.709 45.4522 111.365 45.7852C111.19 45.9751 110.984 46.1185 110.762 46.2065C110.54 46.2945 110.305 46.3252 110.072 46.2967C109.84 46.2682 109.615 46.1811 109.411 46.0408C109.207 45.9006 109.029 45.7102 108.887 45.4816C108.746 45.2529 108.645 44.991 108.59 44.7121C108.535 44.4332 108.527 44.1434 108.567 43.8607C108.608 43.578 108.695 43.3086 108.824 43.0693C108.953 42.8299 109.121 42.6258 109.317 42.4697C109.497 42.3083 109.702 42.1921 109.918 42.1277C110.135 42.0634 110.36 42.0521 110.581 42.0945C110.801 42.137 111.013 42.2324 111.203 42.3752C111.394 42.5181 111.559 42.7056 111.691 42.9271Z" fill="#ADA9A9"/>
<path d="M96.5158 41.4689C96.657 41.7344 96.7069 42.0578 96.6546 42.3685C96.6022 42.6791 96.4519 42.9517 96.2364 43.1266C96.0185 43.2928 95.757 43.3498 95.5058 43.286C95.2546 43.2222 95.0329 43.0423 94.8866 42.7836C94.8177 42.6504 94.7709 42.5018 94.7489 42.3464C94.7268 42.1909 94.7299 42.0317 94.758 41.8777C94.7861 41.7238 94.8387 41.5781 94.9127 41.4491C94.9866 41.3201 95.0806 41.2102 95.1892 41.1259C95.2944 41.0407 95.4124 40.982 95.5362 40.9531C95.66 40.9243 95.7873 40.9259 95.9107 40.9578C96.034 40.9897 96.151 41.0512 96.2548 41.1389C96.3587 41.2267 96.4474 41.3388 96.5158 41.4689Z" fill="#ADA9A9"/>
<path d="M103.289 48.2744C103.289 50.761 102.987 55.5628 99.8213 53.2762" stroke="#ADA9A9" stroke-width="3.53362" stroke-miterlimit="10" stroke-linecap="round"/>
<path d="M109.503 59.5635C106.221 65.2799 102.707 69.8244 101.194 70.3674C100.792 70.5108 100.378 70.5971 99.9606 70.6246C95.0965 71.1105 89.4643 65.1655 87.8584 59.735" stroke="#ADA9A9" stroke-width="3.53362" stroke-miterlimit="10" stroke-linecap="round"/>
<path d="M118.836 28.752C119.819 31.9773 120.559 35.3068 121.047 38.6984C121.768 44.4148 118.044 53.4466 113.902 60.7636" stroke="#ADA9A9" stroke-width="3.53362" stroke-miterlimit="10" stroke-linecap="round"/>
<path d="M84.1345 27.9813C84.1345 27.4382 84.5535 25.5233 85.1586 22.9795C85.4146 21.8934 85.7171 20.7215 86.1128 19.4639C86.5084 18.2063 86.8343 17.1487 87.2765 15.9483C89.3711 10.4892 92.6759 5.03004 97.7728 4.08684C101.241 3.42946 104.452 6.57345 107.222 11.1751C108.382 13.1577 109.424 15.2401 110.341 17.406V17.406C111.811 20.8676 113.086 24.4487 114.157 28.1242" stroke="#ADA9A9" stroke-width="3.53362" stroke-miterlimit="10" stroke-linecap="round"/>
<path d="M77.958 89.249C79.3312 72.8144 79.3634 56.5629 81.877 40.2998" stroke="#ADA9A9" stroke-width="3.53362" stroke-miterlimit="10"/>
<path d="M99.9604 70.624C99.751 77.0264 98.553 84.4652 100.392 89.81" stroke="#ADA9A9" stroke-width="3.53362" stroke-miterlimit="10"/>
<path d="M85.7867 31.3246C85.3108 30.2041 84.716 29.1661 84.0179 28.2378C79.0839 21.8068 74.4524 33.9542 76.3841 37.9556C77.0128 38.9357 77.861 39.6688 78.8244 40.0649C79.7878 40.461 80.8245 40.5027 81.8069 40.185V40.185C82.2547 40.0829 82.6918 39.9199 83.1102 39.6991" stroke="#ADA9A9" stroke-width="3.53362" stroke-miterlimit="10" stroke-linecap="round"/>
<path d="M85.3677 22.9214H85.2048C82.8774 23.5217 65.9109 26.78 66.5859 20.0632C66.8884 16.6906 76.4772 15.8046 87.0201 15.8903H87.3925C95.4219 15.8903 105.15 16.8907 110.48 17.4052" stroke="#ADA9A9" stroke-width="3.53362" stroke-miterlimit="10"/>
<path d="M113.716 37.6424C112.889 36.9662 111.945 36.5365 110.959 36.3876C109.973 36.2388 108.973 36.3748 108.037 36.7849" stroke="#ADA9A9" stroke-width="5.0539" stroke-miterlimit="10" stroke-linecap="round"/>
<path d="M82.575 33.125C81.4882 34.109 80.1515 34.5853 78.8047 34.4684" stroke="#ADA9A9" stroke-width="3.53362" stroke-miterlimit="10" stroke-linecap="round"/>
<path d="M118.859 28.467H118.999C120.748 28.8855 122.414 29.7231 123.9 30.9321C125.386 32.1411 126.664 33.6977 127.66 35.5131C128.656 37.3285 129.352 39.3671 129.707 41.5125C130.061 43.6579 130.069 45.8681 129.728 48.017C129.387 50.1658 128.705 52.2111 127.72 54.0363C126.736 55.8614 125.469 57.4305 123.99 58.654C122.512 59.8776 120.852 60.7315 119.105 61.1672C117.358 61.6028 115.558 61.6117 113.809 61.1932V61.1932C111.806 60.667 109.927 59.5881 108.314 58.0381C106.701 56.4882 105.397 54.5079 104.499 52.2471C102.924 48.274 102.696 43.696 103.866 39.5168C105.035 35.3377 107.506 31.8985 110.737 29.9532C111.699 29.3678 112.714 28.9263 113.762 28.6384L114.321 28.4955C115.821 28.1676 117.356 28.158 118.859 28.467V28.467Z" stroke="#FFC13E" stroke-width="3.53362" stroke-linecap="round" stroke-linejoin="round"/>
<path d="M97.7494 34.3236C96.8576 33.7731 95.8733 33.4863 94.8751 33.4863C93.877 33.4863 92.8927 33.7731 92.0009 34.3236" stroke="#ADA9A9" stroke-width="3.53362" stroke-miterlimit="10" stroke-linecap="round"/>
<path d="M94.7705 60.5645C95.0995 61.1906 95.537 61.7196 96.0519 62.1139C96.5667 62.5082 97.1461 62.758 97.7487 62.8454C98.3513 62.9328 98.9621 62.8557 99.5376 62.6195C100.113 62.3833 100.639 61.9938 101.078 61.479" stroke="#ADA9A9" stroke-width="3.53362" stroke-miterlimit="10" stroke-linecap="round"/>
<path d="M138.036 68.6515C136.128 66.6222 138.246 60.7914 140.108 57.5617C140.42 56.9939 140.778 56.4672 141.178 55.9897C141.57 55.4972 142.043 55.1133 142.566 54.8637C143.088 54.6141 143.648 54.5046 144.208 54.5425C144.768 54.5804 145.314 54.7648 145.811 55.0834C146.308 55.4021 146.744 55.8474 147.09 56.3898" stroke="#ADA9A9" stroke-width="3.53362" stroke-linecap="round" stroke-linejoin="round"/>
<path d="M146.019 70.4801C146.008 70.594 146.008 70.7091 146.019 70.823C145.856 72.4808 142.528 71.6805 142.97 68.3936" stroke="#ADA9A9" stroke-width="3.53362" stroke-linecap="round" stroke-linejoin="round"/>
<path d="M149.65 61.2773C147.971 64.0314 146.739 67.1557 146.02 70.4807" stroke="#ADA9A9" stroke-width="3.53362" stroke-linecap="round" stroke-linejoin="round"/>
<path d="M143.646 61.3353C144.176 59.4501 145.264 57.8789 146.694 56.9336C146.825 56.8339 146.966 56.7569 147.113 56.705C149.441 55.6761 151.768 57.5625 150.232 60.2777L149.65 61.2495" stroke="#ADA9A9" stroke-width="3.53362" stroke-linecap="round" stroke-linejoin="round"/>
<path d="M153.723 65.9655C151.069 64.7365 150.581 68.5094 150.162 70.9102C150.114 71.1173 150.076 71.3272 150.045 71.5391C149.884 72.1331 149.551 72.6332 149.108 72.944C148.666 73.2547 148.145 73.3541 147.647 73.2232C147.148 73.0923 146.707 72.7402 146.406 72.2343C146.106 71.7285 145.968 71.1044 146.019 70.4815" stroke="#ADA9A9" stroke-width="3.53362" stroke-linecap="round" stroke-linejoin="round"/>
<path d="M149.649 61.2782C150.999 59.1917 152.303 58.42 154.048 59.5633C155.249 60.3759 156.239 61.5867 156.905 63.0574C157.572 64.5282 157.888 66.1996 157.818 67.8806" stroke="#ADA9A9" stroke-width="3.53362" stroke-linecap="round" stroke-linejoin="round"/>
<path d="M137.128 62.5941L133.683 60.4219C133.36 60.2194 133.114 59.8705 132.997 59.4491C132.88 59.0277 132.9 58.5669 133.055 58.164V57.9353L133.916 55.8202V55.6773C133.997 55.4771 134.11 55.2987 134.249 55.1527C134.387 55.0067 134.547 54.8958 134.72 54.8267C134.894 54.7575 135.076 54.7314 135.258 54.7499C135.44 54.7683 135.616 54.831 135.778 54.9342L139.618 57.2778" stroke="#FFC13E" stroke-width="3.53362" stroke-linecap="round" stroke-linejoin="round"/>
<path d="M153.513 65.8506H153.722L157.749 67.9942L159.657 68.9946L162.287 70.5952C162.61 70.7977 162.856 71.1466 162.974 71.568C163.091 71.9894 163.07 72.4503 162.916 72.8532V73.0533L161.985 75.3398C161.815 75.7385 161.527 76.0414 161.18 76.1852C160.833 76.329 160.454 76.3026 160.123 76.1116L158.912 75.3398L158.098 74.8539L156.445 73.9393L150.767 70.8239" stroke="#FFC13E" stroke-width="3.53362" stroke-linecap="round" stroke-linejoin="round"/>
<path d="M133.94 55.817V56.0742L133.241 57.7605C133.248 57.8174 133.248 57.8751 133.241 57.932C133.111 58.148 132.923 58.3009 132.71 58.3636C132.498 58.4263 132.274 58.3949 132.078 58.275L128.494 56.0456C128.279 55.9001 128.118 55.6587 128.044 55.3713C127.97 55.0839 127.99 54.7726 128.098 54.5022L128.773 52.8444C128.827 52.7087 128.903 52.5875 128.996 52.488C129.089 52.3884 129.197 52.3126 129.314 52.2647C129.431 52.2169 129.554 52.198 129.677 52.2092C129.8 52.2204 129.92 52.2615 130.03 52.33L133.614 54.5594C133.77 54.6991 133.886 54.8964 133.945 55.1226C134.003 55.3488 134.001 55.5921 133.94 55.817Z" stroke="#FFC13E" stroke-width="3.53362" stroke-linecap="round" stroke-linejoin="round"/>
</g>
<defs>
<clipPath id="clip0_175_3331">
<rect width="212" height="186" fill="white" transform="translate(0 0.178711)"/>
</clipPath>
</defs>
</svg>
