<svg width="344" height="406" viewBox="0 0 344 406" fill="none" xmlns="http://www.w3.org/2000/svg">
<path d="M1 172.5C1 77.7833 77.7832 1 172.5 1C267.217 1 344 77.7832 344 172.5V405.691H1V172.5Z" fill="white"/>
<path d="M315.135 0.52832L318.628 24.179L342.279 27.6722L318.628 31.1654L315.135 54.8161L311.642 31.1654L287.991 27.6722L311.642 24.179L315.135 0.52832Z" fill="#FFC13E"/>
<path d="M27.5271 0.52832L31.0203 24.179L54.671 27.6722L31.0203 31.1654L27.5271 54.8161L24.0338 31.1654L0.383179 27.6722L24.0338 24.179L27.5271 0.52832Z" fill="#FFC13E"/>
<path d="M171.721 124.62L124.521 208.557L220.813 207.464L171.721 124.62ZM165.058 272.458C165.11 277.063 168.886 280.755 173.491 280.702C178.097 280.65 181.788 276.874 181.736 272.269L165.058 272.458ZM164.22 198.586L165.058 272.458L181.736 272.269L180.898 198.397L164.22 198.586Z" fill="#FFC13E"/>
<path d="M89 261.091V314.962H256V261.091" stroke="#FFC13E" stroke-width="21.5484"/>
</svg>
