<svg width="35" height="34" viewBox="0 0 35 34" fill="none" xmlns="http://www.w3.org/2000/svg">
<path d="M15.3523 2.21353C15.9631 -0.203848 19.3977 -0.203853 20.0086 2.21353L21.067 6.40201C21.4336 7.85298 23.0237 8.61875 24.3867 8.00074L28.3213 6.21674C30.5922 5.18711 32.7336 7.8724 31.2245 9.85719L28.6097 13.2961C27.7039 14.4875 28.0966 16.2081 29.4296 16.8885L33.2776 18.8523C35.4984 19.9858 34.7341 23.3343 32.2414 23.3919L27.9225 23.4917C26.4263 23.5263 25.3259 24.9062 25.6251 26.3725L26.4888 30.6054C26.9873 33.0485 23.8929 34.5387 22.2936 32.6257L19.5228 29.3113C18.5629 28.1631 16.798 28.1631 15.8381 29.3113L13.0672 32.6257C11.468 34.5387 8.37347 33.0485 8.87198 30.6054L9.73573 26.3725C10.0349 24.9062 8.93454 23.5263 7.43836 23.4917L3.11938 23.3919C0.626685 23.3343 -0.137597 19.9858 2.08325 18.8523L5.93121 16.8885C7.26421 16.2081 7.65694 14.4875 6.75113 13.2961L4.13634 9.8572C2.62721 7.87241 4.76866 5.18711 7.0395 6.21674L10.9741 8.00074C12.3371 8.61875 13.9272 7.85298 14.2939 6.40201L15.3523 2.21353Z" fill="#FFC046"/>
</svg>
