<svg width="463" height="462" viewBox="0 0 463 462" fill="none" xmlns="http://www.w3.org/2000/svg">
<path d="M290.219 66.8613H294.981" stroke="#FFC13E" stroke-width="2.43803" stroke-linecap="round" stroke-linejoin="round"/>
<path d="M290.219 66.8615V50.7876L279.475 66.8615H290.219Z" stroke="#FFC13E" stroke-width="2.43803" stroke-linecap="round" stroke-linejoin="round"/>
<path d="M290.219 76.3584V66.8613" stroke="#FFC13E" stroke-width="2.43803" stroke-linecap="round" stroke-linejoin="round"/>
<path d="M323.7 66.8896H328.435" stroke="#FFC13E" stroke-width="2.43803" stroke-linecap="round" stroke-linejoin="round"/>
<path d="M323.699 66.8899V50.7876L312.955 66.8899H323.699Z" stroke="#FFC13E" stroke-width="2.43803" stroke-linecap="round" stroke-linejoin="round"/>
<path d="M323.7 76.3867V66.8896" stroke="#FFC13E" stroke-width="2.43803" stroke-linecap="round" stroke-linejoin="round"/>
<path d="M303.911 76.3871C307.292 76.3871 310.034 70.6247 310.034 63.5165C310.034 56.4083 307.292 50.646 303.911 50.646C300.529 50.646 297.787 56.4083 297.787 63.5165C297.787 70.6247 300.529 76.3871 303.911 76.3871Z" stroke="#FFC13E" stroke-width="2.43803" stroke-linecap="round" stroke-linejoin="round"/>
<path d="M324.152 92.3191H327.866C329.529 92.4044 331.159 91.8301 332.401 90.7207C333.643 89.6113 334.397 88.0565 334.5 86.3942V42.9349C334.405 41.2699 333.653 39.7107 332.409 38.5998C331.165 37.4889 329.531 36.917 327.866 37.0098H279.162C277.494 36.9168 275.857 37.4879 274.609 38.5981C273.36 39.7083 272.602 41.2674 272.5 42.9349V86.3942C272.602 88.0617 273.36 89.6208 274.609 90.731C275.857 91.8412 277.494 92.4121 279.162 92.3191H316.016" stroke="#ADA9A9" stroke-width="2.43803" stroke-linecap="round" stroke-linejoin="round"/>
<path d="M316.159 88.8041C316.159 88.8041 316.358 90.2216 316.726 92.206C317.492 96.2599 319.022 102.724 321.177 104.424C323.332 106.125 323.7 98.1592 323.757 92.291C323.757 89.0025 323.757 86.3093 323.757 86.3093" stroke="#ADA9A9" stroke-width="2.43803" stroke-linecap="round" stroke-linejoin="round"/>
<g filter="url(#filter0_f_117_10137)">
<ellipse rx="117.5" ry="14.5" transform="matrix(-1 0 0 1 205 422.5)" fill="#757575"/>
</g>
<path d="M216.938 400.439C212.986 402.206 208.937 403.749 204.811 405.059C208.811 403.734 212.737 402.192 216.569 400.439L219.41 399.237L216.938 400.439Z" fill="#ADA9A9"/>
<path d="M156.727 412.112C151.89 412.691 147.285 415.375 148.419 421.578H185.887C184.661 415.468 189.289 412.691 194.195 412.112C196.639 411.796 199.054 411.285 201.416 410.585V410.284C201.416 409.844 201.416 407.669 201.416 404.105H180.726C178.898 404.522 166.818 410.839 156.727 412.112Z" fill="#ADA9A9"/>
<path d="M185.886 421.578L239.3 421.809C239.3 421.092 239.3 414.566 239.438 404.105H218.193C216.759 404.406 209.33 408.247 201.392 410.562C199.029 411.262 196.615 411.773 194.171 412.089C189.288 412.691 184.659 415.468 185.886 421.578Z" fill="#ADA9A9"/>
<path d="M216.367 214.125C208.544 214.866 202.481 210.098 199.195 206.951L199.056 207.09C192.113 207.483 185.564 209.126 182.856 213.315H182.671C176.955 206.812 164.018 204.822 158.047 210.052H157.677C157.144 208.293 156.126 204.752 154.876 200.494H154.575C152.261 218.013 150.502 234.028 150.363 241.48L241.176 241.897C240.967 237.662 239.88 224.262 238.862 209.242L238.746 208.941C237.589 209.335 236.432 209.705 235.274 210.052C229.092 211.918 222.769 213.28 216.367 214.125Z" fill="#ADA9A9"/>
<path d="M236.686 167.539C239.894 171.17 242.914 174.963 245.735 178.902C247.748 182.304 244.023 186.446 238.075 190.473V190.334C237.334 180.105 236.871 171.959 236.686 167.539ZM228.933 195.611V195.981C228.933 195.981 235.437 199.592 235.136 209.497L235.321 210.098C236.455 209.751 237.635 209.381 238.792 208.988C252.979 204.151 269.04 195.241 271.354 179.411C272.257 173.116 268.785 168.117 266.031 162.47C262.583 155.342 242.588 129.399 237.705 125.442C232.173 120.813 213.266 118.129 213.266 118.129C212.865 116.238 211.797 114.554 210.257 113.385C207.943 112.343 194.52 111.95 186.86 112.806C186.414 112.855 185.983 112.989 185.587 113.2C184.705 113.706 183.953 114.411 183.39 115.258C182.828 116.106 182.471 117.073 182.347 118.083L143.004 110.584C150.711 95.6573 156.126 86.8167 166.147 69.4596V69.2745C165.39 67.4826 164.158 65.9318 162.583 64.7897C161.009 63.6476 159.152 62.9576 157.214 62.7944C152.817 67.585 114.238 109.959 118.889 116.625C124.444 124.632 162.861 141.873 162.861 141.873C161.866 148.168 160.546 156.592 158.95 166.868V167.03C167.327 167.03 175.983 169.807 178.552 175.824H178.783C183.041 162.702 216.274 163.211 217.917 167.84C218.38 169.089 218.519 182.096 218.427 193.111H218.589C219.945 193.202 221.245 193.69 222.326 194.512C223.408 195.335 224.225 196.457 224.675 197.74C226.041 196.999 227.499 196.305 228.933 195.611Z" fill="#ADA9A9"/>
<path d="M239.417 426.183H186.003V421.786H239.417V426.183Z" stroke="#ADA9A9" stroke-width="1.99028" stroke-linecap="round" stroke-linejoin="round"/>
<path d="M148.513 421.786H185.912V426.183H148.513V421.786Z" stroke="#ADA9A9" stroke-width="1.99028" stroke-linecap="round" stroke-linejoin="round"/>
<path d="M184.94 70.085C184.813 70.0849 184.688 70.1102 184.571 70.1593C184.454 70.2085 184.349 70.2804 184.26 70.371C184.172 70.4616 184.102 70.5689 184.056 70.6867C184.01 70.8045 183.988 70.9304 183.991 71.0569C183.991 71.1835 184.016 71.3088 184.065 71.4254C184.114 71.5421 184.186 71.6478 184.277 71.7362C184.367 71.8246 184.475 71.894 184.592 71.9403C184.71 71.9866 184.836 72.0089 184.963 72.0058C185.192 71.9701 185.401 71.8537 185.551 71.6776C185.702 71.5015 185.785 71.2772 185.785 71.0453C185.785 70.8135 185.702 70.5893 185.551 70.4132C185.401 70.237 185.192 70.1206 184.963 70.085H184.94Z" fill="#ADA9A9"/>
<path d="M197.922 69.6683C197.795 69.6713 197.669 69.6994 197.552 69.751C197.435 69.8027 197.33 69.8768 197.242 69.9693C197.154 70.0617 197.084 70.1705 197.038 70.2896C196.992 70.4087 196.97 70.5358 196.973 70.6634C196.973 70.79 196.999 70.9153 197.048 71.032C197.097 71.1486 197.169 71.2542 197.259 71.3427C197.35 71.4311 197.457 71.5005 197.575 71.5468C197.693 71.5931 197.819 71.6154 197.945 71.6123C198.073 71.6093 198.199 71.5812 198.316 71.5295C198.432 71.4779 198.538 71.4037 198.626 71.3113C198.714 71.2189 198.783 71.11 198.829 70.9909C198.875 70.8718 198.897 70.7448 198.894 70.6171C198.894 70.4905 198.869 70.3652 198.82 70.2486C198.771 70.1319 198.699 70.0263 198.608 69.9379C198.518 69.8495 198.41 69.7801 198.292 69.7338C198.175 69.6875 198.049 69.6652 197.922 69.6683Z" fill="#ADA9A9"/>
<path d="M201.973 348.029C201.764 372.7 201.464 393.991 201.348 404.104C201.348 407.668 201.348 409.844 201.348 410.283" stroke="#ADA9A9" stroke-width="1.99028" stroke-miterlimit="10"/>
<path d="M224.999 249.974C224.698 259.971 231.641 265.965 240.204 268.349C242.554 268.993 244.968 269.381 247.401 269.506" stroke="#ADA9A9" stroke-width="1.99028" stroke-miterlimit="10" stroke-linecap="round"/>
<path d="M189.059 261.661C190.342 290.82 194.702 319.763 202.065 348.007C206.948 367.678 212.641 386.493 218.103 403.85V404.082C216.668 404.383 209.239 408.224 201.301 410.539C198.939 411.239 196.524 411.75 194.081 412.066C189.221 412.645 184.638 415.329 185.772 421.531L239.186 421.763C239.186 421.045 239.186 414.519 239.325 404.059C239.626 375.246 240.297 316.694 240.089 268.303C240.089 259.231 240.089 250.529 239.88 242.429" stroke="#ADA9A9" stroke-width="1.99028" stroke-linecap="round" stroke-linejoin="round"/>
<path d="M151.915 242.869C153.373 306.72 167.351 361.591 180.728 404.081C178.876 404.475 166.842 410.885 156.705 412.066C151.868 412.644 147.263 415.329 148.397 421.531H186.328" stroke="#ADA9A9" stroke-width="1.99028" stroke-linecap="round" stroke-linejoin="round"/>
<path d="M179.871 404.105H180.727H201.023" stroke="#ADA9A9" stroke-width="1.99028" stroke-miterlimit="10"/>
<path d="M218.194 404.105H218.217H239.323" stroke="#ADA9A9" stroke-width="1.99028" stroke-miterlimit="10"/>
<path d="M175.705 66.9609C173.669 74.9683 184.963 93.8066 188.272 95.0794C188.674 95.2407 189.094 95.3571 189.522 95.4265C194.289 96.2828 200.306 92.0477 202.343 87.8589" stroke="#ADA9A9" stroke-width="1.99028" stroke-miterlimit="10" stroke-linecap="round"/>
<path d="M208.589 62.6562C208.427 61.5222 208.265 60.3419 208.057 58.9765C207.768 56.9405 207.359 54.9235 206.83 52.9363C206.187 50.2298 204.937 47.7052 203.173 45.5537C196.439 38.0323 189.079 43.6328 183.641 51.3857C182.129 53.5702 180.761 55.8507 179.545 58.2128" stroke="#ADA9A9" stroke-width="1.99028" stroke-miterlimit="10" stroke-linecap="round"/>
<path d="M210.258 113.108C210.258 99.4072 210.975 86.4704 209.841 72.793" stroke="#ADA9A9" stroke-width="1.99028" stroke-miterlimit="10"/>
<path d="M189.591 94.8706V95.426C189.101 101.474 187.745 107.421 185.564 113.084" stroke="#ADA9A9" stroke-width="1.99028" stroke-miterlimit="10"/>
<path d="M206.694 65.0858C207.253 64.2299 207.922 63.4517 208.685 62.7715C214.1 58.143 217.687 68.4184 215.465 71.3575C214.761 72.0895 213.856 72.5983 212.865 72.8205C211.873 73.0426 210.838 72.9685 209.888 72.6072C209.458 72.4739 209.039 72.3036 208.638 72.0981" stroke="#ADA9A9" stroke-width="1.99028" stroke-miterlimit="10" stroke-linecap="round"/>
<path d="M207.572 58.7915L208.058 58.9766C211.067 59.9486 226.387 64.1837 226.572 58.9766C226.572 55.7829 217.014 54.0009 206.901 53.0058C196.348 51.9412 185.262 51.7329 184.036 51.6172" stroke="#ADA9A9" stroke-width="1.99028" stroke-miterlimit="10"/>
<path d="M209.725 66.937C210.712 67.8445 211.995 68.3627 213.335 68.395" stroke="#ADA9A9" stroke-width="1.99028" stroke-miterlimit="10" stroke-linecap="round"/>
<path d="M238.931 209.289C239.88 224.308 240.967 237.708 241.245 241.943L150.34 241.897C150.479 234.445 152.284 218.43 154.552 200.911" stroke="#ADA9A9" stroke-width="1.99028" stroke-linecap="round" stroke-linejoin="round"/>
<path d="M236.686 167.54C236.871 171.96 237.334 180.106 237.959 190.266" stroke="#ADA9A9" stroke-width="1.99028" stroke-linecap="round" stroke-linejoin="round"/>
<path d="M223.772 197.926L224.582 197.556C226.04 196.908 227.498 196.213 228.933 195.519C232.08 193.966 235.133 192.227 238.074 190.312C244.022 186.355 247.748 182.212 245.735 178.741C242.913 174.802 239.893 171.009 236.686 167.377C231.001 160.58 224.812 154.221 218.172 148.354" stroke="#ADA9A9" stroke-width="1.99028" stroke-linejoin="round"/>
<path d="M166.772 53.5843C166.934 53.3066 167.327 52.6586 167.859 51.8717C169.225 49.9046 171.377 46.9654 171.794 46.3868C173.252 44.3503 174.941 44.5817 177.093 45.5305C178.505 46.1554 183.319 47.5672 182.833 49.8351C182.162 52.8669 176.654 49.8351 175.589 49.9971C174.525 50.1591 173.483 52.6585 172.673 54.0008" stroke="#ADA9A9" stroke-width="1.99028" stroke-miterlimit="10" stroke-linecap="round"/>
<path d="M170.592 54.6723C171.284 54.457 171.987 54.2793 172.698 54.14C176.332 53.492 177.905 54.6724 178.6 56.1304C178.97 56.8709 179.294 57.5652 179.595 58.2364C180.401 59.663 180.912 61.2369 181.099 62.8649C181.145 63.2501 181.072 63.6401 180.889 63.9824C180.707 64.3248 180.424 64.6029 180.078 64.7795C179.733 64.956 179.341 65.0223 178.957 64.9696C178.573 64.917 178.214 64.7478 177.928 64.4849" stroke="#ADA9A9" stroke-width="1.99028" stroke-miterlimit="10" stroke-linecap="round"/>
<path d="M159.204 166.868C160.708 156.593 162.12 148.169 163.115 141.874C163.115 141.874 124.629 124.632 119.144 116.625C114.515 109.96 153.071 67.5855 157.468 62.7949L157.862 62.3553C157.862 62.3553 164.642 50.0201 163.485 46.3173C162.074 41.6887 166.008 41.6887 167.396 46.6181C168 48.2918 168.175 50.0898 167.906 51.8484" stroke="#ADA9A9" stroke-width="1.99028" stroke-miterlimit="10" stroke-linecap="round"/>
<path d="M228.956 195.981C228.956 195.981 235.459 199.592 235.158 209.497" stroke="#ADA9A9" stroke-width="1.99028" stroke-miterlimit="10" stroke-linecap="round"/>
<path d="M216.344 214.126C222.771 213.269 229.117 211.891 235.321 210.006C236.455 209.659 237.635 209.289 238.792 208.895C252.979 204.059 269.04 195.149 271.354 179.319C272.257 173.024 268.785 168.025 266.031 162.378C262.583 155.25 242.588 129.307 237.705 125.35C232.173 120.721 213.266 118.037 213.266 118.037C212.865 116.146 211.797 114.462 210.257 113.293V113.293C207.943 112.251 194.52 111.858 186.86 112.714C186.414 112.763 185.983 112.897 185.587 113.107C184.693 113.623 183.934 114.342 183.371 115.207C182.808 116.072 182.457 117.057 182.347 118.083L143.004 110.585C150.711 95.6578 156.126 86.8172 166.147 69.4601V69.275C166.679 68.2567 169.41 63.0958 169.526 63.0496C169.642 63.0033 172.858 63.0496 172.858 63.0496L173.599 65.1092C173.748 65.6012 174.056 66.0297 174.475 66.3272C174.894 66.6248 175.4 66.7744 175.913 66.7524C176.862 66.7524 177.718 66.2433 177.718 65.5259C177.749 65.2412 177.749 64.9542 177.718 64.6696C177.498 62.7173 176.691 60.8776 175.404 59.393C174.178 58.4442 171.956 58.7913 170.128 58.9533" stroke="#ADA9A9" stroke-width="1.99028" stroke-linecap="round" stroke-linejoin="round"/>
<path d="M157.376 62.7944C159.315 62.9576 161.171 63.6476 162.746 64.7897C164.32 65.9318 165.553 67.4826 166.31 69.2745" stroke="#ADA9A9" stroke-width="1.99028" stroke-miterlimit="10" stroke-linecap="round"/>
<path d="M194.751 87.5117C194.016 86.967 193.133 86.6596 192.219 86.6307C191.305 86.6017 190.404 86.8526 189.636 87.3496" stroke="#ADA9A9" stroke-width="1.99028" stroke-linecap="round" stroke-linejoin="round"/>
<path d="M195.701 64.6004C196.09 64.2349 196.551 63.955 197.056 63.7789C197.56 63.6028 198.095 63.5343 198.627 63.578C199.159 63.6216 199.676 63.7763 200.145 64.0321C200.613 64.288 201.023 64.6392 201.348 65.0632" stroke="#ADA9A9" stroke-width="1.99028" stroke-miterlimit="10" stroke-linecap="round"/>
<path d="M183.041 64.5301C183.427 64.1617 183.886 63.8792 184.389 63.7013C184.891 63.5233 185.426 63.4538 185.957 63.4976C186.489 63.5413 187.005 63.6973 187.471 63.955C187.938 64.2128 188.345 64.5665 188.665 64.993" stroke="#ADA9A9" stroke-width="1.99028" stroke-miterlimit="10" stroke-linecap="round"/>
<path d="M188.805 65.2942C189.985 68.1176 188.805 72.561 188.319 75.5002C188.064 77.5136 187.694 81.3784 191.119 80.1287" stroke="#ADA9A9" stroke-width="1.99028" stroke-miterlimit="10" stroke-linecap="round"/>
<path d="M178.899 176.102C178.871 176.006 178.832 175.913 178.784 175.825C176.215 169.807 167.559 167.077 159.182 167.03C154.508 166.878 149.866 167.846 145.643 169.854" stroke="#ADA9A9" stroke-width="1.99028" stroke-linecap="round" stroke-linejoin="round"/>
<path d="M217.917 167.841C216.274 163.212 183.041 162.773 179.014 175.871L182.786 212.599" stroke="#ADA9A9" stroke-width="1.99028" stroke-linecap="round" stroke-linejoin="round"/>
<path d="M145.319 170.015C146.384 171.959 151.498 189.131 154.923 200.795C156.173 205.053 157.238 208.594 157.724 210.353C157.71 210.406 157.71 210.462 157.724 210.515" stroke="#ADA9A9" stroke-width="1.99028" stroke-linecap="round" stroke-linejoin="round"/>
<path d="M158.069 210.261C164.04 205.03 176.977 207.021 182.693 213.524" stroke="#ADA9A9" stroke-width="1.99028" stroke-linecap="round" stroke-linejoin="round"/>
<path d="M218.194 201.721C218.194 200.147 218.194 198.389 218.194 196.537C218.194 195.449 218.194 194.223 218.194 193.158C218.194 182.142 218.194 169.136 217.685 167.886" stroke="#ADA9A9" stroke-width="1.99028" stroke-linecap="round" stroke-linejoin="round"/>
<path d="M182.879 213.408C185.564 209.219 192.136 207.576 199.079 207.183" stroke="#ADA9A9" stroke-width="1.99028" stroke-linecap="round" stroke-linejoin="round"/>
<path d="M203.591 198.712C201.693 196.676 203.799 193.459 206.345 195.542C209.978 198.527 214.746 201.721 218.194 201.698H219.05L219.56 201.582" stroke="#ADA9A9" stroke-width="1.99028" stroke-linejoin="round"/>
<path d="M210.118 209.358C206.18 207.033 202.536 204.244 199.264 201.049L199.009 200.749C198.153 199.615 197.991 196.12 200.768 196.676C201.846 197.164 202.814 197.865 203.615 198.735C206.516 201.436 209.848 203.634 213.474 205.238" stroke="#ADA9A9" stroke-width="1.99028" stroke-linecap="round" stroke-linejoin="round"/>
<path d="M216.529 214.125H216.367C208.545 214.866 202.482 210.099 199.195 206.951C198.061 205.84 197.298 204.915 196.881 204.637C195.469 202.924 196.58 200.263 199.195 201.096" stroke="#ADA9A9" stroke-width="1.99028" stroke-linejoin="round"/>
<path d="M218.96 202.115C218.973 201.946 218.973 201.776 218.96 201.606C219.193 200.751 219.245 199.856 219.114 198.98C218.982 198.103 218.67 197.264 218.196 196.515V196.515" stroke="#ADA9A9" stroke-width="1.99028" stroke-linejoin="round"/>
<path d="M224.885 198.342C224.885 198.18 224.723 197.925 224.584 197.648C224.134 196.365 223.317 195.243 222.235 194.42C221.153 193.597 219.854 193.11 218.497 193.019" stroke="#ADA9A9" stroke-width="1.99028" stroke-linejoin="round"/>
<path d="M223.772 197.926L224.582 197.556C226.04 196.908 227.498 196.213 228.933 195.519C232.08 193.966 235.133 192.227 238.074 190.312C244.022 186.355 247.748 182.212 245.735 178.741C242.913 174.802 239.893 171.009 236.686 167.377C231.001 160.58 224.812 154.221 218.172 148.354" stroke="white" stroke-width="1.99028" stroke-linecap="round" stroke-linejoin="round"/>
<path d="M204.217 407.715C201.579 409.011 196.904 411.881 194.196 412.112C189.336 412.529 186.073 414.913 185.98 421.578" stroke="white" stroke-width="1.99028" stroke-linecap="square" stroke-linejoin="round"/>
<defs>
<filter id="filter0_f_117_10137" x="63.5" y="384" width="283" height="77" filterUnits="userSpaceOnUse" color-interpolation-filters="sRGB">
<feFlood flood-opacity="0" result="BackgroundImageFix"/>
<feBlend mode="normal" in="SourceGraphic" in2="BackgroundImageFix" result="shape"/>
<feGaussianBlur stdDeviation="12" result="effect1_foregroundBlur_117_10137"/>
</filter>
</defs>
</svg>
