<svg width="129" height="50" viewBox="0 0 129 50" fill="none" xmlns="http://www.w3.org/2000/svg">
<path d="M128.716 7.65177C129.076 7.29181 129.076 6.70819 128.716 6.34823L122.85 0.482282C122.49 0.122318 121.906 0.122318 121.546 0.482282C121.186 0.842245 121.186 1.42586 121.546 1.78583L126.761 7L121.546 12.2142C121.186 12.5741 121.186 13.1578 121.546 13.5177C121.906 13.8777 122.49 13.8777 122.85 13.5177L128.716 7.65177ZM0 7.92174H128.064V6.07826H0V7.92174Z" fill="#FFC13E"/>
<path d="M128.716 25.3627C129.076 25.0027 129.076 24.4191 128.716 24.0592L122.85 18.1932C122.49 17.8333 121.906 17.8333 121.546 18.1932C121.186 18.5532 121.186 19.1368 121.546 19.4968L126.761 24.7109L121.546 29.9251C121.186 30.2851 121.186 30.8687 121.546 31.2287C121.906 31.5886 122.49 31.5886 122.85 31.2287L128.716 25.3627ZM0 25.6327H128.064V23.7892H0V25.6327Z" fill="#FFC13E"/>
<path d="M128.716 43.0739C129.076 42.7139 129.076 42.1303 128.716 41.7703L122.85 35.9044C122.49 35.5444 121.906 35.5444 121.546 35.9044C121.186 36.2643 121.186 36.848 121.546 37.2079L126.761 42.4221L121.546 47.6363C121.186 47.9962 121.186 48.5799 121.546 48.9398C121.906 49.2998 122.49 49.2998 122.85 48.9398L128.716 43.0739ZM4.85555e-08 43.3439L128.064 43.3438L128.064 41.5004L-4.85555e-08 41.5004L4.85555e-08 43.3439Z" fill="#FFC13E"/>
</svg>
