<svg width="283" height="243" viewBox="0 0 283 243" fill="none" xmlns="http://www.w3.org/2000/svg">
<rect x="0.676662" y="0.676662" width="281.318" height="241.151" fill="#FFC046"/>
<path d="M30.5549 110.569V99.631L51.4472 82.3483C52.8327 81.1998 54.0177 80.1242 55.0021 79.1215C56.0048 78.1006 56.7705 77.0523 57.2992 75.9767C57.8461 74.9011 58.1196 73.707 58.1196 72.3944C58.1196 70.9542 57.8097 69.7236 57.1898 68.7027C56.5882 67.6818 55.7496 66.8978 54.674 66.3509C53.5984 65.7858 52.3587 65.5032 50.9549 65.5032C49.5512 65.5032 48.3115 65.7858 47.2359 66.3509C46.1785 66.9161 45.3581 67.7456 44.7748 68.8394C44.1914 69.9332 43.8997 71.2641 43.8997 72.8319H29.461C29.461 68.8941 30.3452 65.5032 32.1136 62.6592C33.882 59.8152 36.3796 57.6276 39.6064 56.0962C42.8332 54.5648 46.6161 53.7991 50.9549 53.7991C55.4397 53.7991 59.3228 54.5192 62.6043 55.9595C65.9041 57.3815 68.4472 59.3868 70.2338 61.9756C72.0387 64.5643 72.9411 67.5997 72.9411 71.0818C72.9411 73.233 72.4944 75.3751 71.6011 77.5081C70.7078 79.6228 69.1035 81.9655 66.7883 84.536C64.473 87.1065 61.1823 90.1693 56.9164 93.7242L51.6659 98.0996V98.4277H73.5427V110.569H30.5549ZM112.431 112.101C107.345 112.082 102.951 110.907 99.2506 108.573C95.5498 106.24 92.6967 102.876 90.6913 98.4824C88.686 94.0888 87.6924 88.8202 87.7106 82.6765C87.7289 76.5145 88.7316 71.2823 90.7187 66.9799C92.7241 62.6775 95.568 59.4051 99.2506 57.1627C102.951 54.9203 107.345 53.7991 112.431 53.7991C117.518 53.7991 121.911 54.9294 125.612 57.19C129.313 59.4324 132.166 62.7048 134.171 67.0072C136.177 71.3097 137.17 76.5327 137.152 82.6765C137.152 88.8566 136.149 94.1435 134.144 98.5371C132.139 102.931 129.286 106.294 125.585 108.628C121.902 110.943 117.518 112.101 112.431 112.101ZM112.431 99.7403C115.057 99.7403 117.208 98.373 118.885 95.6384C120.58 92.8856 121.419 88.565 121.401 82.6765C121.401 78.8298 121.018 75.685 120.252 73.2421C119.487 70.7992 118.429 68.9944 117.08 67.8276C115.731 66.6426 114.182 66.0501 112.431 66.0501C109.806 66.0501 107.664 67.381 106.005 70.0426C104.346 72.7043 103.498 76.9156 103.462 82.6765C103.444 86.596 103.817 89.8229 104.583 92.3569C105.349 94.8728 106.406 96.7323 107.755 97.9355C109.123 99.1387 110.681 99.7403 112.431 99.7403ZM151.99 110.569V99.631L172.882 82.3483C174.268 81.1998 175.453 80.1242 176.437 79.1215C177.44 78.1006 178.206 77.0523 178.734 75.9767C179.281 74.9011 179.555 73.707 179.555 72.3944C179.555 70.9542 179.245 69.7236 178.625 68.7027C178.023 67.6818 177.185 66.8978 176.109 66.3509C175.034 65.7858 173.794 65.5032 172.39 65.5032C170.986 65.5032 169.747 65.7858 168.671 66.3509C167.614 66.9161 166.793 67.7456 166.21 68.8394C165.627 69.9332 165.335 71.2641 165.335 72.8319H150.896C150.896 68.8941 151.78 65.5032 153.549 62.6592C155.317 59.8152 157.815 57.6276 161.042 56.0962C164.268 54.5648 168.051 53.7991 172.39 53.7991C176.875 53.7991 180.758 54.5192 184.039 55.9595C187.339 57.3815 189.882 59.3868 191.669 61.9756C193.474 64.5643 194.376 67.5997 194.376 71.0818C194.376 73.233 193.93 75.3751 193.036 77.5081C192.143 79.6228 190.539 81.9655 188.223 84.536C185.908 87.1065 182.618 90.1693 178.352 93.7242L173.101 98.0996V98.4277H194.978V110.569H151.99ZM209.474 110.569V99.631L230.366 82.3483C231.752 81.1998 232.937 80.1242 233.921 79.1215C234.924 78.1006 235.69 77.0523 236.218 75.9767C236.765 74.9011 237.039 73.707 237.039 72.3944C237.039 70.9542 236.729 69.7236 236.109 68.7027C235.507 67.6818 234.669 66.8978 233.593 66.3509C232.517 65.7858 231.278 65.5032 229.874 65.5032C228.47 65.5032 227.231 65.7858 226.155 66.3509C225.098 66.9161 224.277 67.7456 223.694 68.8394C223.11 69.9332 222.819 71.2641 222.819 72.8319H208.38C208.38 68.8941 209.264 65.5032 211.033 62.6592C212.801 59.8152 215.299 57.6276 218.525 56.0962C221.752 54.5648 225.535 53.7991 229.874 53.7991C234.359 53.7991 238.242 54.5192 241.523 55.9595C244.823 57.3815 247.366 59.3868 249.153 61.9756C250.958 64.5643 251.86 67.5997 251.86 71.0818C251.86 73.233 251.414 75.3751 250.52 77.5081C249.627 79.6228 248.023 81.9655 245.707 84.536C243.392 87.1065 240.101 90.1693 235.835 93.7242L230.585 98.0996V98.4277H252.462V110.569H209.474Z" fill="#1E1C29"/>
<path d="M30.168 132.931H39.7664L54.3965 158.39H54.9981L69.6282 132.931H79.2266L58.9086 166.949V188.935H50.486V166.949L30.168 132.931ZM94.9054 188.935V132.931H130.018V140.205H103.355V157.268H128.185V164.515H103.355V181.661H130.346V188.935H94.9054ZM153.736 188.935H144.767L164.921 132.931H174.683L194.837 188.935H185.868L170.034 143.103H169.597L153.736 188.935ZM155.24 167.004H184.336V174.114H155.24V167.004ZM210.625 188.935V132.931H230.588C234.927 132.931 238.527 133.678 241.39 135.173C244.27 136.668 246.421 138.737 247.843 141.38C249.265 144.006 249.976 147.041 249.976 150.487C249.976 153.914 249.256 156.931 247.816 159.538C246.394 162.127 244.243 164.141 241.362 165.582C238.5 167.022 234.899 167.742 230.561 167.742H215.438V160.468H229.795C232.529 160.468 234.754 160.076 236.467 159.292C238.199 158.508 239.466 157.369 240.268 155.874C241.07 154.379 241.472 152.583 241.472 150.487C241.472 148.372 241.061 146.54 240.241 144.99C239.439 143.441 238.172 142.256 236.44 141.435C234.726 140.597 232.475 140.177 229.685 140.177H219.075V188.935H210.625ZM238.272 163.667L252.109 188.935H242.483L228.92 163.667H238.272Z" fill="#1E1C29"/>
<rect x="0.676662" y="0.676662" width="281.318" height="241.151" stroke="white" stroke-width="1.35332"/>
</svg>
