<svg width="35" height="34" viewBox="0 0 35 34" fill="none" xmlns="http://www.w3.org/2000/svg">
<path d="M15.3523 2.10514C15.9631 -0.312246 19.3977 -0.312252 20.0086 2.10513L21.067 6.29361C21.4336 7.74458 23.0237 8.51035 24.3867 7.89234L28.3213 6.10834C30.5922 5.07871 32.7336 7.76401 31.2245 9.7488L28.6097 13.1877C27.7039 14.3791 28.0966 16.0997 29.4296 16.7801L33.2776 18.7439C35.4984 19.8774 34.7341 23.2259 32.2414 23.2835L27.9225 23.3833C26.4263 23.4179 25.3259 24.7978 25.6251 26.2641L26.4888 30.497C26.9873 32.9401 23.8929 34.4303 22.2936 32.5173L19.5228 29.2029C18.5629 28.0547 16.798 28.0547 15.8381 29.2029L13.0672 32.5173C11.468 34.4303 8.37347 32.9401 8.87198 30.497L9.73573 26.2641C10.0349 24.7978 8.93454 23.4179 7.43836 23.3833L3.11938 23.2835C0.626685 23.2259 -0.137597 19.8774 2.08325 18.7439L5.93121 16.7801C7.26421 16.0997 7.65694 14.3791 6.75113 13.1877L4.13634 9.7488C2.62721 7.76401 4.76866 5.07871 7.0395 6.10834L10.9741 7.89234C12.3371 8.51035 13.9272 7.74458 14.2939 6.29361L15.3523 2.10514Z" fill="white"/>
</svg>
