<svg width="290" height="290" viewBox="0 0 290 290" fill="none" xmlns="http://www.w3.org/2000/svg">
<rect x="18" y="54.8613" width="215.464" height="224.803" rx="107.732" transform="rotate(-10.9319 18 54.8613)" fill="#D9D9D9"/>
<circle cx="148.443" cy="141.195" r="25.0801" fill="#D9D9D9"/>
<path d="M134.014 139.249L145.792 151.027L163.769 131.81" stroke="#747474" stroke-width="9.4795"/>
<path d="M216.578 201.207H141.774C140.55 201.207 139.332 201.119 138.13 200.885C120.933 197.547 87.9833 183.644 87.9833 143.881C87.9833 102.618 111.272 91.482 128.738 84.7642" stroke="#C8C6C6" stroke-width="11.4145"/>
<path d="M75.8926 201.207H156.352C157.944 201.207 159.523 201.055 161.07 200.681C176.656 196.914 205.916 185.05 207.563 143.882C209.354 99.0957 170.391 82.5249 147.102 82.5249" stroke="#959595" stroke-width="11.4145"/>
<path d="M157.85 98.1996V67.2974L132.77 83.8681L157.85 98.1996Z" fill="#A6A4A4"/>
<path d="M204.875 186.876L204.875 217.778L229.955 201.207L204.875 186.876Z" fill="#C8C6C6"/>
</svg>
