<svg width="344" height="406" viewBox="0 0 344 406" fill="none" xmlns="http://www.w3.org/2000/svg">
<path d="M1 172.5C1 77.7833 77.7832 1 172.5 1C267.217 1 344 77.7832 344 172.5V405.691H1V172.5Z" fill="white"/>
<path d="M116.099 339.531H225.69" stroke="#FFC13E" stroke-width="9.07553" stroke-linecap="square"/>
<path d="M116.099 369.946H225.69" stroke="#FFC13E" stroke-width="9.07553" stroke-linecap="square"/>
<path d="M267.504 297.556L271.839 354.379L318.881 322.213L267.504 297.556ZM312.782 372.52C314.321 374.77 317.392 375.347 319.642 373.808C321.892 372.27 322.468 369.199 320.93 366.949L312.782 372.52ZM288.5 337.008L312.782 372.52L320.93 366.949L296.648 331.436L288.5 337.008Z" fill="white"/>
<path fill-rule="evenodd" clip-rule="evenodd" d="M94.1426 82C90.1979 82 87 85.1979 87 89.1426V111.762V115.332V296.28H257.233V111.762H150.093V89.1426C150.093 85.1979 146.896 82 142.951 82H94.1426Z" fill="#FFC13E"/>
<path d="M315.135 0.52832L318.628 24.179L342.279 27.6722L318.628 31.1654L315.135 54.8161L311.642 31.1654L287.991 27.6722L311.642 24.179L315.135 0.52832Z" fill="#FFC13E"/>
<path d="M27.5271 0.52832L31.0203 24.179L54.671 27.6722L31.0203 31.1654L27.5271 54.8161L24.0338 31.1654L0.383179 27.6722L24.0338 24.179L27.5271 0.52832Z" fill="#FFC13E"/>
</svg>
