<svg width="344" height="406" viewBox="0 0 344 406" fill="none" xmlns="http://www.w3.org/2000/svg">
<path d="M1 172.5C1 77.7833 77.7832 1 172.5 1C267.217 1 344 77.7832 344 172.5V405.691H1V172.5Z" fill="white"/>
<path d="M100.235 90.3458L67.0064 149.437L134.795 148.668L100.235 90.3458ZM95.5441 194.423C95.5809 197.665 98.2391 200.264 101.481 200.227C104.724 200.19 107.322 197.532 107.285 194.29L95.5441 194.423ZM94.9541 142.418L95.5441 194.423L107.285 194.29L106.695 142.285L94.9541 142.418Z" fill="#FFC13E"/>
<path d="M42 186.421V224.346H159.567V186.421" stroke="#FFC13E" stroke-width="15.1699"/>
<path d="M315.135 0.52832L318.628 24.179L342.279 27.6722L318.628 31.1654L315.135 54.8161L311.642 31.1654L287.991 27.6722L311.642 24.179L315.135 0.52832Z" fill="#FFC13E"/>
<path d="M27.5271 0.52832L31.0203 24.179L54.671 27.6722L31.0203 31.1654L27.5271 54.8161L24.0338 31.1654L0.383179 27.6722L24.0338 24.179L27.5271 0.52832Z" fill="#FFC13E"/>
<path fill-rule="evenodd" clip-rule="evenodd" d="M202.143 224.346C199.302 224.346 197 226.648 197 229.488V245.773V248.345V378.625H319.567V245.773H242.427V229.488C242.427 226.648 240.124 224.346 237.284 224.346H202.143Z" fill="#FFC13E"/>
</svg>
