<svg width="65" height="65" viewBox="0 0 65 65" fill="none" xmlns="http://www.w3.org/2000/svg">
<path d="M49.1394 13.0799C51.9263 12.9159 57.5 12.082 57.5 20.1291C57.5 26.1618 51.2705 26.6864 48.1558 26.1946" stroke="#D9D9D9" stroke-width="2.29508"/>
<path d="M15.8606 13.0799C13.0737 12.9159 7.49998 12.082 7.49998 20.1291C7.49998 26.1618 13.7295 26.6864 16.8442 26.1946" stroke="#D9D9D9" stroke-width="2.29508"/>
<rect x="29.4672" y="36.3442" width="5.57377" height="13.1148" fill="#D9D9D9"/>
<rect x="24.2213" y="49.459" width="16.3934" height="4.2623" fill="#D9D9D9"/>
<rect x="21.5984" y="53.7212" width="21.6393" height="4.2623" fill="#D9D9D9"/>
<path d="M49.1394 7H15.5328L17.3361 28.4754C18.1558 31.8087 22.2869 38.4754 32.2541 38.4754C42.2214 38.4754 46.6804 31.8087 47.664 28.4754L49.1394 7Z" fill="white"/>
</svg>
