<svg width="311" height="305" viewBox="0 0 311 305" fill="none" xmlns="http://www.w3.org/2000/svg">
<rect x="0.5" y="0.5" width="309.115" height="304" fill="#456EFF"/>
<g clip-path="url(#clip0_175_3375)">
<rect x="1" y="1" width="308.115" height="303" rx="151.5" fill="white"/>
<path d="M134.734 134.361L117.959 142.073L124.885 125.825L110.64 118.805L129.927 110.326L113.466 95.6123L135.284 99.1128L127.828 76.6499L146.153 92.4488L152.608 69.7051L159.063 92.4488L173.033 83.4262L169.913 99.1128L194.301 95.2754L175.289 110.326L189.063 117.925L173.445 122.512L187.238 142.073L173.445 134.967" stroke="black" stroke-width="1.60984" stroke-linecap="round" stroke-linejoin="round"/>
<path d="M237.061 207.765C236.915 207.779 236.772 207.809 236.633 207.855C236.398 207.933 236.183 208.055 235.999 208.212C235.816 208.369 235.668 208.559 235.564 208.77C235.465 208.97 235.408 209.185 235.393 209.405C235.49 209.965 235.722 210.498 236.07 210.962C236.426 211.436 236.895 211.825 237.44 212.096L237.219 212.733C237.003 212.688 236.78 212.688 236.565 212.733C236.35 212.779 236.148 212.868 235.975 212.995L235.775 212.72L235.975 212.995C235.801 213.121 235.66 213.281 235.56 213.463C235.467 213.631 235.411 213.814 235.394 214.002C235.512 214.499 235.745 214.965 236.078 215.367C236.422 215.781 236.864 216.114 237.368 216.339L237.133 216.975C236.939 216.918 236.734 216.903 236.533 216.933C236.331 216.962 236.141 217.035 235.975 217.144C235.809 217.253 235.673 217.396 235.576 217.56M237.061 207.765L235.576 217.56M237.061 207.765C237.094 207.946 237.179 208.112 237.283 208.256C237.418 208.444 237.602 208.622 237.809 208.789C238.223 209.122 238.771 209.442 239.331 209.723C240.443 210.281 241.684 210.723 242.154 210.807L242.16 210.808C243.406 211.006 245.476 211.241 247.384 211.039C249.26 210.842 251.15 210.202 251.774 208.492L251.794 208.435V208.375V206.563H251.974C253.482 206.654 254.884 207.283 255.854 207.994C256.341 208.351 256.705 208.718 256.918 209.031C257.025 209.187 257.085 209.318 257.11 209.418C257.136 209.517 257.121 209.559 257.115 209.571L257.079 209.643V209.723V209.873V210.34L257.524 210.196C265.784 207.524 273.598 203.727 280.722 198.923L280.722 198.923L280.728 198.919C282.905 197.377 284.716 195.818 285.81 194.347C286.896 192.888 287.351 191.403 286.549 190.113L286.545 190.106L286.539 190.098C286.203 189.617 285.725 188.998 285.141 188.243C283.76 186.458 281.79 183.911 279.721 180.621L279.721 180.621L279.715 180.612C271.585 168.555 268.729 153.943 271.755 139.904L271.786 139.821C273.743 140.489 275.589 141.421 277.269 142.589C278.27 143.376 280.196 145.538 282.593 148.474C284.985 151.403 287.819 155.067 290.616 158.812C296.22 166.312 301.648 174.096 303.105 176.949C303.465 177.676 303.828 178.382 304.183 179.075C306.14 182.884 307.887 186.284 307.759 190.482C307.422 195.393 304.219 200.153 299.368 204.342C294.522 208.526 288.075 212.102 281.353 214.647L281.353 214.647L281.345 214.65C274.348 217.494 266.797 218.889 259.191 218.743L259.011 218.74L258.907 218.886L258.484 219.484C256.198 220.175 253.838 220.617 251.448 220.803L251.426 220.805L251.405 220.809C246.808 221.759 242.023 221.44 237.61 219.89C236.869 219.563 236.304 219.216 235.93 218.884C235.549 218.547 235.416 218.272 235.411 218.082M237.061 207.765L235.411 218.082M235.576 217.56C235.481 217.721 235.425 217.899 235.411 218.082M235.576 217.56L235.411 218.082" stroke="#1C1A24" stroke-width="0.67981"/>
<path d="M227.072 100.496C227.061 98.5408 227.261 96.5903 227.668 94.6747C227.785 94.6749 227.903 94.6695 228.02 94.6587L228.02 94.6588L228.027 94.6579L227.988 94.3202L228.027 94.6579L228.027 94.6579L228.028 94.6578L228.032 94.6573L228.049 94.6555L228.114 94.6482C228.171 94.6417 228.256 94.6323 228.366 94.6203C228.587 94.5963 228.907 94.5621 229.308 94.5209C230.11 94.4386 231.233 94.3288 232.517 94.219C235.088 93.9992 238.294 93.7803 240.859 93.7803C243.601 93.7803 246.886 93.9993 249.49 94.219C250.792 94.3288 251.921 94.4386 252.724 94.5209C253.126 94.5621 253.447 94.5963 253.667 94.6203C253.754 94.6299 253.826 94.6378 253.881 94.6439V94.6946V94.7219L253.885 94.7487C253.929 95.0207 253.97 95.2184 254.005 95.3869C254.071 95.7078 254.116 95.9227 254.116 96.3419V97.0641L254.673 96.6038C255.748 95.7144 256.682 95.5774 257.452 95.8241C258.246 96.0783 258.946 96.7654 259.476 97.6841C260.004 98.5978 260.338 99.6999 260.422 100.711C260.506 101.727 260.333 102.581 259.933 103.076C259.387 103.612 258.687 103.985 257.918 104.147C257.142 104.311 256.334 104.252 255.594 103.979L255.136 103.81V104.297V104.466V104.481L255.138 104.496C255.456 108.113 255.856 111.572 256.25 114.975C257.049 121.878 257.821 128.547 257.824 135.834C257.516 137.013 256.664 139.015 255.497 141.367C254.32 143.738 252.836 146.44 251.301 148.965C249.764 151.492 248.183 153.832 246.811 155.484C246.124 156.312 245.5 156.954 244.971 157.361C244.706 157.565 244.476 157.7 244.284 157.774C244.092 157.847 243.963 157.85 243.877 157.826C243.544 157.727 243.131 157.416 242.654 156.866C242.185 156.325 241.686 155.592 241.174 154.717C240.152 152.968 239.1 150.689 238.145 148.337C237.191 145.988 236.338 143.575 235.711 141.562C235.102 139.606 234.719 138.063 234.651 137.318C236.603 132.702 237.976 127.881 238.742 122.957L238.795 122.618L238.456 122.568C238.118 122.518 237.787 122.43 237.471 122.307L237.467 122.306C237.198 122.203 236.817 121.913 236.344 121.413C235.879 120.923 235.356 120.263 234.799 119.471C233.686 117.888 232.454 115.798 231.306 113.527C230.157 111.257 229.097 108.814 228.324 106.526C227.549 104.231 227.072 102.118 227.072 100.498L227.072 100.496Z" stroke="#1C1A24" stroke-width="0.67981"/>
<path d="M240.857 86.2346C244.33 86.2346 249.863 86.6839 252.512 86.9085V86.7962C251.992 85.1835 251.116 83.696 249.942 82.4346C243.192 75.2278 235.01 78.6908 230.321 86.609V86.8336C233.225 86.5903 237.973 86.2346 240.857 86.2346Z" fill="#1C1A24"/>
<path d="M166.411 136.403L175.196 135.221L175.243 135.214L175.287 135.195L175.46 135.119C179.801 144.025 185.034 152.509 191.086 160.454L191.298 160.733L191.571 160.512L191.357 160.248C191.571 160.512 191.571 160.512 191.571 160.512L191.571 160.512L191.574 160.509L191.585 160.5L191.629 160.465L191.802 160.325C191.954 160.203 192.178 160.023 192.465 159.792C193.039 159.331 193.867 158.668 194.88 157.861C196.907 156.248 199.678 154.06 202.653 151.761C208.612 147.156 215.355 142.132 218.593 140.369C219.663 139.807 220.799 139.365 221.976 139.053L222.246 139.243C223.941 162.042 216.83 168.655 214.882 170.022L214.882 170.022L214.872 170.03C214.724 170.143 214.565 170.244 214.399 170.332C214.299 170.377 214.003 170.529 213.562 170.756C213.487 170.794 213.407 170.835 213.324 170.878C212.717 171.19 211.878 171.619 210.865 172.128C208.84 173.146 206.119 174.48 203.162 175.824C200.206 177.169 197.018 178.521 194.058 179.575C191.093 180.631 188.383 181.378 186.37 181.53C185.934 181.554 185.406 181.333 184.785 180.799C184.167 180.269 183.501 179.468 182.798 178.431C181.392 176.358 179.878 173.397 178.34 169.933C175.267 163.009 172.127 154.13 169.607 146.458L169.607 146.458L169.606 146.455C168.479 143.154 167.544 140.1 166.752 137.515C166.635 137.134 166.522 136.763 166.411 136.403Z" stroke="#1C1A24" stroke-width="0.67981"/>
<path d="M168.381 263.28C164.752 272.977 172.031 302.44 177.054 320.373H196.968C196.811 304.462 197.145 287.746 199.126 284.021C197.714 283.066 184.235 274.006 168.597 262.756C168.519 262.924 168.44 263.112 168.381 263.28Z" fill="#1C1A24"/>
<path d="M236.621 256.353C238.034 298.078 251.356 338.867 263.266 373.254C263.266 373.254 251.827 378.121 243.272 379.094C239.172 379.544 235.267 381.734 236.229 386.732L236.857 390.476H281.709C281.709 390.476 282.807 295.008 282.003 240.723" stroke="#1C1A24" stroke-width="1.60984" stroke-miterlimit="10"/>
<path d="M206.209 240.741C194.594 245.365 170.893 256.578 168.381 263.204C163.044 277.487 181.331 334.711 181.331 334.711C177.819 335.61 169.696 339.541 161.141 340.495C157.021 340.963 153.136 343.135 154.098 348.151L154.647 352.045L197.812 351.858C197.812 351.858 194.947 287.108 199.578 283.346C208.328 276.214 223.809 271.778 237.307 272.114" stroke="#1C1A24" stroke-width="1.60984" stroke-miterlimit="10"/>
<path d="M25.6401 370.296C30.8003 366.271 70.1586 300.792 78.7131 256.446" stroke="#1C1A24" stroke-width="1.60984" stroke-miterlimit="10" stroke-linecap="round"/>
<path d="M29.6808 241.378C27.3263 284.17 12.0225 364.924 12.0225 364.924" stroke="#1C1A24" stroke-width="1.60984" stroke-miterlimit="10" stroke-linecap="round"/>
<path d="M68.9226 288.513C72.6112 307.606 83.4416 366.178 84.4815 372.43C84.4815 372.43 99.8638 372.73 100.04 372.43C102.63 367.039 104.416 309.852 102.827 241.827" stroke="#1C1A24" stroke-width="1.60984" stroke-miterlimit="10" stroke-linecap="round"/>
<path d="M42.9644 251.692C41.0024 261.782 30.5055 264.796 20.8719 263.242" stroke="#1C1A24" stroke-width="1.60984" stroke-miterlimit="10" stroke-linecap="round"/>
<path d="M54.6517 96.2675C55.26 92.0183 56.0644 85.7286 59.1644 82.4341C69.0923 71.8391 80.629 93.4222 82.4734 100.367C84.2196 106.844 74.6252 121.445 71.8784 122.493C67.7189 124.065 61.8132 120.34 59.9492 116.653" stroke="#1C1A24" stroke-width="1.60984" stroke-miterlimit="10" stroke-linecap="round"/>
<path d="M53.2404 136.681C53.2404 125.581 52.6125 115.529 53.5935 104.466" stroke="#1C1A24" stroke-width="1.60984" stroke-miterlimit="10"/>
<path d="M70.7405 122.307C71.3095 127.08 71.9569 132.64 73.8993 136.664" stroke="#1C1A24" stroke-width="1.60984" stroke-miterlimit="10"/>
<path d="M56.2406 98.2138C50.7665 90.5015 46.7051 100.647 48.8241 103.305C50.1779 105.009 53.0817 104.691 54.6121 103.886" stroke="#1C1A24" stroke-width="1.60984" stroke-miterlimit="10" stroke-linecap="round"/>
<path d="M75.7638 87.2637C76.4309 87.2637 92.1664 84.2686 89.9493 80.1504C87.4379 75.4332 57.0852 90.3149 55.2213 91.1011" stroke="#1C1A24" stroke-width="1.60984" stroke-miterlimit="10"/>
<path d="M66.8953 99.1126C66.0903 98.8786 65.2388 98.8296 64.4102 98.9695C63.5816 99.1094 62.7995 99.4342 62.1276 99.9175" stroke="#1C1A24" stroke-width="1.60984" stroke-miterlimit="10" stroke-linecap="round"/>
<path d="M53.6908 99.7305C52.8503 100.515 51.7273 100.964 50.5515 100.985" stroke="#1C1A24" stroke-width="1.60984" stroke-miterlimit="10" stroke-linecap="round"/>
<path d="M65.384 104.073C65.8391 104.073 66.208 103.721 66.208 103.287C66.208 102.853 65.8391 102.501 65.384 102.501C64.9289 102.501 64.5599 102.853 64.5599 103.287C64.5599 103.721 64.9289 104.073 65.384 104.073Z" fill="#1C1A24"/>
<path d="M76.1568 103.793C76.612 103.793 76.9809 103.441 76.9809 103.007C76.9809 102.573 76.612 102.221 76.1568 102.221C75.7017 102.221 75.3328 102.573 75.3328 103.007C75.3328 103.441 75.7017 103.793 76.1568 103.793Z" fill="#1C1A24"/>
<path d="M77.5496 99.3186C76.2547 98.757 73.3116 98.9255 72.7818 100.142C71.9578 102.014 73.2135 106.17 73.7433 108.51C74.0964 110.101 74.7047 113.208 71.7812 112.366" stroke="#1C1A24" stroke-width="1.60984" stroke-miterlimit="10" stroke-linecap="round"/>
<path d="M145.892 121.032C145.696 117.288 145.676 114.592 145.755 111.26C145.755 110.119 146.383 105.439 144.068 105.907C141.752 106.375 142.38 116.633 142.419 118.224" stroke="#1C1A24" stroke-width="1.60984" stroke-linecap="round" stroke-linejoin="round"/>
<path d="M143.047 106.787C142.831 105.402 142.243 104.672 140.928 104.691C138.024 104.691 138.731 113.957 138.672 118.318" stroke="#1C1A24" stroke-width="1.60984" stroke-linecap="round" stroke-linejoin="round"/>
<path d="M145.893 129.475C148.208 129.737 149.523 121.051 149.641 118.374C149.641 117.495 149.798 115.866 148.64 115.323C147.855 114.967 147.188 115.66 146.913 116.184C146.552 116.989 146.321 117.841 146.227 118.711C146.07 119.834 145.854 121.182 145.717 122.305" stroke="#1C1A24" stroke-width="1.60984" stroke-linecap="round" stroke-linejoin="round"/>
<path d="M139.124 106.693C138.908 105.533 137.653 105.72 136.848 106.412C134.533 108.397 135.161 122.361 136.73 128.875C136.73 128.875 139.634 127.284 145.815 129.381" stroke="#1C1A24" stroke-width="1.60984" stroke-linecap="round" stroke-linejoin="round"/>
<path d="M257.3 209.724C257.732 208.863 255.043 206.411 251.865 206.224" stroke="#1C1A24" stroke-width="1.60984" stroke-miterlimit="10" stroke-linecap="round"/>
<path d="M281.453 215.415C282.198 227.04 282.885 237.71 283.081 240.985L206.052 240.854C206.327 227.264 212.056 188.797 215.195 170.377" stroke="#1C1A24" stroke-width="1.60984" stroke-linecap="round" stroke-linejoin="round"/>
<path d="M279.333 180.766C279.51 184.229 279.922 190.481 280.412 198.343" stroke="#1C1A24" stroke-width="1.60984" stroke-linecap="round" stroke-linejoin="round"/>
<path d="M252.474 86.7962C251.955 85.1835 251.078 83.696 249.904 82.4346C243.154 75.2278 234.973 78.6908 230.283 86.609" stroke="#1C1A24" stroke-width="1.60984" stroke-miterlimit="10" stroke-linecap="round"/>
<path d="M254.417 96.2664C254.417 95.5925 254.299 95.3492 254.181 94.6191" stroke="#1C1A24" stroke-width="1.60984" stroke-miterlimit="10" stroke-linecap="round"/>
<path d="M258.164 136.27C258.164 125.169 256.457 115.529 255.476 104.447" stroke="#1C1A24" stroke-width="1.60984" stroke-miterlimit="10"/>
<path d="M253.024 97.9714C258.557 89.6226 262.618 100.592 260.499 103.456C259.76 104.214 258.761 104.697 257.683 104.817C256.604 104.937 255.516 104.687 254.613 104.111" stroke="#1C1A24" stroke-width="1.16058" stroke-miterlimit="10" stroke-linecap="round"/>
<path d="M242.174 99.1126C242.979 98.8786 243.83 98.8296 244.659 98.9695C245.487 99.1094 246.269 99.4342 246.941 99.9175" stroke="#1C1A24" stroke-width="1.16058" stroke-miterlimit="10" stroke-linecap="round"/>
<path d="M255.377 99.7305C256.217 100.515 257.34 100.964 258.516 100.985" stroke="#1C1A24" stroke-width="1.16058" stroke-miterlimit="10" stroke-linecap="round"/>
<path d="M243.663 104.073C244.118 104.073 244.487 103.721 244.487 103.287C244.487 102.853 244.118 102.501 243.663 102.501C243.208 102.501 242.839 102.853 242.839 103.287C242.839 103.721 243.208 104.073 243.663 104.073Z" fill="#1C1A24"/>
<path d="M233.481 103.793C233.936 103.793 234.305 103.441 234.305 103.007C234.305 102.573 233.936 102.221 233.481 102.221C233.026 102.221 232.657 102.573 232.657 103.007C232.657 103.441 233.026 103.793 233.481 103.793Z" fill="#1C1A24"/>
<path d="M232.107 99.3186C233.402 98.757 236.326 98.9255 236.856 100.142C237.699 102.014 234.481 108.117 233.932 110.456C233.579 112.048 236.345 111.86 238.033 111.673" stroke="#1C1A24" stroke-width="1.16058" stroke-miterlimit="10" stroke-linecap="round"/>
<path d="M244.41 113.751C242.938 118.449 236.562 118.506 235.306 115.38" stroke="#1C1A24" stroke-width="1.16058" stroke-miterlimit="10" stroke-linecap="round"/>
<path d="M163.946 119.423C163.946 115.436 163.946 114.481 163.809 111.075C163.809 109.895 163.161 105.122 165.594 105.59C168.027 106.058 167.458 116.559 167.399 118.188" stroke="#1C1A24" stroke-width="1.16058" stroke-linecap="round" stroke-linejoin="round"/>
<path d="M166.614 106.226C166.612 105.957 166.67 105.69 166.785 105.444C166.9 105.198 167.07 104.978 167.282 104.801C167.495 104.623 167.745 104.491 168.016 104.414C168.286 104.337 168.571 104.317 168.851 104.354C172.069 104.354 171.382 113.471 171.264 117.982" stroke="#1C1A24" stroke-width="1.16058" stroke-linecap="round" stroke-linejoin="round"/>
<path d="M222.416 139.097C224.378 165.902 214.391 170.676 214.391 170.676C213.783 170.957 194.477 181.252 186.236 181.907C178.957 182.469 163.947 129.868 163.947 129.868" stroke="#1C1A24" stroke-width="1.60984" stroke-linecap="round" stroke-linejoin="round"/>
<path d="M198.97 283.964C198.97 283.964 185.078 274.604 168.46 262.643" stroke="#1C1A24" stroke-width="1.60984" stroke-miterlimit="10"/>
<path d="M257.281 209.893C263.677 208.415 289.871 196.229 286.182 190.295C282.984 185.708 265.228 166.746 271.349 139.753" stroke="#1C1A24" stroke-width="1.60984" stroke-linecap="round" stroke-linejoin="round"/>
<path d="M172.815 128.614C177.683 139.808 183.899 150.425 191.336 160.25C191.336 160.25 211.898 143.627 218.412 140.07C223.435 137.337 234.324 137.019 234.324 137.019C234.933 139.883 240.328 157.161 243.781 158.153C246.685 158.977 256.947 140.707 258.163 135.877C258.163 135.877 272.761 138.629 277.47 142.317C281.609 145.555 300.465 171.032 303.408 176.797C305.723 181.383 308.254 185.427 307.92 190.556C306.841 206.448 276.645 220.244 259.007 219.14" stroke="#1C1A24" stroke-width="1.60984" stroke-linecap="round" stroke-linejoin="round"/>
<path d="M175.052 134.885L165.85 136.12" stroke="#1C1A24" stroke-width="1.60984" stroke-linecap="round" stroke-linejoin="round"/>
<path d="M164.026 122.568C164.043 121.318 163.99 120.068 163.869 118.824C163.753 117.917 163.488 117.032 163.084 116.203C162.79 115.66 162.044 114.93 161.122 115.305C159.808 115.885 159.925 117.57 159.965 118.506C159.965 120.658 159.965 126.873 162.81 130.486" stroke="#1C1A24" stroke-width="1.16058" stroke-linecap="round" stroke-linejoin="round"/>
<path d="M173.817 128.389C175.445 121.762 175.523 108.004 173.091 105.926C172.247 105.233 170.697 105.158 170.834 106.225" stroke="#1C1A24" stroke-width="1.16058" stroke-linecap="square" stroke-linejoin="round"/>
<path d="M236.658 212.512C236.4 212.412 236.119 212.38 235.843 212.418C235.567 212.456 235.307 212.564 235.089 212.729C234.872 212.895 234.704 213.113 234.604 213.361C234.504 213.609 234.475 213.878 234.519 214.14C234.696 216.78 240.092 219.045 246.292 218.296" stroke="#1C1A24" stroke-width="1.16058" stroke-miterlimit="10" stroke-linecap="round"/>
<path d="M236.935 217.045C234.973 216.127 234.404 217.438 234.6 218.186C235.287 220.639 241.879 224.925 258.027 220.058C258.027 220.058 259.989 220.451 260.401 220.47" stroke="#1C1A24" stroke-width="1.16058" stroke-miterlimit="10" stroke-linecap="square"/>
<path d="M250.866 208.47C249.453 210.885 245.137 210.604 242.174 210.192C240.392 209.614 238.721 208.76 237.23 207.665C237.028 207.541 236.8 207.462 236.563 207.432C236.325 207.403 236.084 207.425 235.856 207.496C235.432 207.61 235.06 207.856 234.8 208.195C234.54 208.535 234.408 208.948 234.424 209.368C234.581 212.232 240.31 215.171 246.471 214.273" stroke="#1C1A24" stroke-width="1.16058" stroke-miterlimit="10" stroke-linecap="round"/>
<path d="M226.968 94.583C226.538 96.5595 226.328 98.5735 226.34 100.592C226.34 107.256 234.188 121.613 236.974 122.662C241.134 124.234 247.039 120.509 248.923 116.821" stroke="#1C1A24" stroke-width="1.16058" stroke-miterlimit="10" stroke-linecap="round"/>
<path d="M238.209 122.812C237.032 126.986 234.285 135.353 234.285 136.364" stroke="#1C1A24" stroke-width="1.60984" stroke-miterlimit="10"/>
<path d="M253.965 94.2644C253.965 94.2644 246.293 93.3846 240.78 93.3846C235.62 93.3846 227.909 94.2644 227.909 94.2644C227.545 94.2695 227.184 94.2046 226.847 94.0735C226.51 93.9425 226.204 93.7479 225.948 93.5015C225.691 93.2552 225.49 92.962 225.355 92.6396C225.22 92.3172 225.154 91.9721 225.162 91.625V89.5659C225.162 88.8808 225.447 88.2237 225.955 87.7393C226.463 87.2548 227.152 86.9826 227.87 86.9826C227.87 86.9826 236.503 86.1777 240.78 86.1777C245.449 86.1777 253.925 86.9826 253.925 86.9826C254.644 86.9826 255.332 87.2548 255.84 87.7393C256.348 88.2237 256.633 88.8808 256.633 89.5659V91.625C256.641 91.9658 256.578 92.3047 256.448 92.6222C256.318 92.9397 256.123 93.2295 255.875 93.4748C255.627 93.7202 255.33 93.9162 255.002 94.0517C254.675 94.1872 254.322 94.2595 253.965 94.2644Z" fill="#FFC13E" stroke="#1C1A24" stroke-width="1.60984" stroke-linecap="round" stroke-linejoin="round"/>
<path d="M231.048 137.507C231.048 137.507 237.405 161.336 243.566 161.28C250.315 161.28 256.986 147.11 260.93 137.076" stroke="#1C1A24" stroke-width="1.60984" stroke-miterlimit="10" stroke-linecap="round"/>
<path d="M268.052 138.424C266.065 146.619 266.058 155.137 268.029 163.335C270 171.534 273.9 179.197 279.432 185.746" stroke="#1C1A24" stroke-width="1.60984" stroke-miterlimit="10" stroke-linecap="round"/>
<path d="M225.162 138.181C225.162 138.181 228.575 165.211 214.802 174.646" stroke="#1C1A24" stroke-width="1.60984" stroke-miterlimit="10" stroke-linecap="round"/>
<path d="M266.718 241.098V313.091" stroke="#1C1A24" stroke-width="1.60984" stroke-miterlimit="10" stroke-linecap="round"/>
<path d="M271.486 241.098V313.091" stroke="#1C1A24" stroke-width="1.60984" stroke-miterlimit="10" stroke-linecap="round"/>
<path d="M69.289 119.217C65.3649 119.086 63.7364 113.377 64.7174 114.144C66.1375 114.865 67.7144 115.258 69.3222 115.294C70.9301 115.33 72.5246 115.007 73.9782 114.35C75.0574 113.789 72.4675 119.348 69.289 119.217Z" stroke="#1C1A24" stroke-width="1.60984" stroke-miterlimit="10"/>
<path d="M169.185 146.135L167.733 149.71L158.57 138.685L146.818 154.877L146.877 149.691" stroke="black" stroke-width="1.60984" stroke-linecap="round" stroke-linejoin="round"/>
<path d="M96.0781 174.538C99.6233 197.099 104.416 230.582 104.634 241.503H103.644L28.2655 241.635H26.8791C27.295 234.417 27.909 233.756 28.424 223.042L46.1099 223.893C36.6629 222.721 23.3934 216.694 13.7087 208.946C6.63832 203.278 1.4494 196.74 1.03349 190.505C0.676999 185.327 3.23183 181.265 5.58864 176.635C8.5396 170.797 25.671 149.52 29.8499 146.233C34.6031 142.454 50.7839 140.224 50.7839 140.224C51.4375 138.674 51.7741 137.276 53.3585 136.35C53.4591 136.296 53.5653 136.252 53.6755 136.218C60.2535 134.821 67.0625 134.731 73.6786 135.954C73.9717 136.028 74.252 136.142 74.5104 136.294C75.273 136.69 75.9269 137.253 76.4189 137.936C76.911 138.619 77.2274 139.403 77.3425 140.224C77.3425 140.224 87.1064 139.865 92.9885 142.926C101.394 147.703 109.293 153.246 116.576 159.478C116.847 151.91 136.521 137.397 135.67 129.868H136.383H146.002C149.587 141.508 137.372 175.426 132.718 179.829C129.232 183.211 99.0687 175.52 96.0781 174.538ZM37.4946 173.763C36.544 174.708 35.6132 175.653 34.6823 176.635C30.5042 180.922 26.6021 185.446 22.9973 190.183C19.2542 196.173 46.2089 211.875 52.7049 213.368C52.7049 213.368 52.7049 213.803 52.7049 214.502C52.5663 217.128 52.0514 223.458 50.2689 223.949C51.4572 225.442 59.6566 230.903 62.7858 231.394C67.3607 232.15 72.9854 227.842 76.3919 225.196C78.3589 225.289 80.284 224.632 81.7436 223.371C83.2032 222.109 84.0779 220.346 84.1753 218.47L86.0171 183.098C86.1088 181.222 85.4187 179.388 84.0975 177.997C82.7764 176.605 80.9317 175.769 78.9665 175.672L37.4946 173.763Z" fill="#1C1A24"/>
<path d="M46.6846 165.355C43.4449 167.977 40.376 170.785 37.495 173.763C36.5443 174.708 35.6135 175.653 34.6827 176.635C30.5046 180.922 26.6025 185.446 22.9977 190.183C19.2545 196.173 46.2092 211.875 52.7053 213.368C52.7053 213.368 52.7053 213.803 52.7053 214.502C52.5667 217.128 52.0518 223.458 50.2693 223.949H50.0515C48.7676 223.976 47.4834 223.913 46.2093 223.76C36.7622 222.589 23.4928 216.561 13.8081 208.814C6.73769 203.146 1.54876 196.608 1.13286 190.372C0.776364 185.195 3.3312 181.132 5.688 176.503C8.63896 170.664 25.7704 149.388 29.9492 146.1C34.7025 142.321 50.8833 140.092 50.8833 140.092C51.5368 138.542 51.8735 137.144 53.4579 136.218C53.5584 136.164 53.6647 136.119 53.7748 136.086C60.3529 134.689 67.1619 134.599 73.7779 135.821C74.0711 135.895 74.3513 136.01 74.6097 136.161C75.3723 136.558 76.0262 137.121 76.5183 137.804C77.0104 138.486 77.3269 139.27 77.442 140.092C77.442 140.092 87.2058 139.733 93.0879 142.794C101.493 147.571 109.393 153.114 116.676 159.346C117.864 160.329 119.033 161.33 120.181 162.332" stroke="#1C1A24" stroke-width="1.625" stroke-linecap="round" stroke-linejoin="round"/>
<path d="M84.2304 225.215C80.8239 227.861 75.1993 232.169 70.6243 231.413C67.4951 230.922 59.2958 225.461 58.1074 223.968C58.0461 223.892 57.993 223.809 57.949 223.723" stroke="#1C1A24" stroke-width="1.625" stroke-miterlimit="10"/>
<path d="M28.4235 223.042C27.9086 233.756 27.2946 234.379 26.8787 241.635H28.265L103.643 241.503H104.633C104.416 230.581 99.6228 197.099 96.0777 174.537C95.1666 168.774 94.3546 163.729 93.701 159.95" stroke="#1C1A24" stroke-width="1.625" stroke-linecap="round" stroke-linejoin="round"/>
<path d="M95.9006 174.481H96.0789C99.0695 175.464 129.233 183.154 132.817 179.753C137.472 175.35 149.588 141.47 146.003 129.868H145.29H135.671C136.522 137.397 117.027 151.834 116.755 159.403" stroke="#1C1A24" stroke-width="1.625" stroke-miterlimit="10"/>
<path d="M75.8961 225.215H75.6783C72.054 225.385 65.5777 225.404 63.6368 223.779C62.4485 222.778 62.389 218.602 64.3696 217.789C65.7361 217.222 68.489 216.334 69.4595 215.786C69.8419 215.608 70.1539 215.317 70.3493 214.956C70.5446 214.595 70.6129 214.184 70.544 213.783C70.4751 213.382 70.2728 213.013 69.9668 212.731C69.6609 212.448 69.2677 212.268 68.8455 212.215C67.3104 212.083 65.766 212.083 64.2309 212.215C61.2601 212.555 56.5862 215.333 52.6648 214.501" stroke="#1C1A24" stroke-width="1.625" stroke-miterlimit="10"/>
<path d="M46.1289 223.836L28.4429 222.986L20.4021 222.608C18.4369 222.51 16.5922 221.674 15.2711 220.283C13.9499 218.891 13.2598 217.058 13.3515 215.182L13.6881 208.928" stroke="#1C1A24" stroke-width="1.625" stroke-miterlimit="10"/>
<path d="M37.1973 173.744H37.4943L78.887 175.634C80.8521 175.732 82.6969 176.567 84.018 177.959C85.3391 179.35 86.0292 181.184 85.9376 183.06L84.1947 218.507C84.1444 219.447 83.8986 220.367 83.4715 221.215C83.0444 222.063 82.4448 222.821 81.7074 223.445C80.97 224.07 80.1097 224.548 79.1766 224.852C78.2435 225.156 77.2563 225.279 76.2727 225.215H75.6389H75.1438" stroke="#1C1A24" stroke-width="1.625" stroke-miterlimit="10"/>
<path d="M34.6833 176.653L76.2741 178.543C78.0203 178.621 79.6625 179.358 80.8397 180.591C82.017 181.824 82.6329 183.452 82.5522 185.118L80.948 216.409L80.5519 223.76" stroke="#1C1A24" stroke-width="1.625" stroke-miterlimit="10"/>
<path d="M26.4033 195.152C34.2263 203.277 48.8623 211.818 53.5957 212.914C53.5957 212.914 53.3383 224.931 50.5854 225.045C42.6634 225.347 30.0277 221.096 19.2339 214.615" stroke="#1C1A24" stroke-width="1.625" stroke-linecap="round" stroke-linejoin="round"/>
<path d="M270.738 184.443C270.111 187.001 265.69 207.695 264.732 212.313" stroke="#1C1A24" stroke-width="1.42834" stroke-linecap="round" stroke-linejoin="round"/>
<path d="M264.664 212.295C263.174 211.323 261.486 210.662 259.71 210.356C257.934 210.05 256.11 210.105 254.358 210.518" stroke="#1C1A24" stroke-width="1.42834" stroke-linecap="round" stroke-linejoin="round"/>
<path d="M241.772 209.923C232.685 207.066 223.72 212.298 223.72 212.298C224.469 203.993 225.165 182.801 225.165 182.801C239.77 176.473 248.144 185.176 249.084 186.239L249.171 186.338C253.001 180.343 265.395 180.011 270.687 184.428" stroke="#1C1A24" stroke-width="1.42834" stroke-linecap="round" stroke-linejoin="round"/>
<path d="M222.516 186.973L220.477 209.746" stroke="#1C1A24" stroke-width="1.42834" stroke-linecap="round" stroke-linejoin="round"/>
</g>
<rect x="1.5" y="1.5" width="307.115" height="302" rx="151" stroke="black"/>
<rect x="0.5" y="0.5" width="309.115" height="304" stroke="black"/>
<defs>
<clipPath id="clip0_175_3375">
<rect x="1" y="1" width="308.115" height="303" rx="151.5" fill="white"/>
</clipPath>
</defs>
</svg>
