<svg width="541" height="532" viewBox="0 0 541 532" fill="none" xmlns="http://www.w3.org/2000/svg">
<path d="M198.724 97.1085L174.048 108.453L184.236 84.5522L163.282 74.2263L191.653 61.7526L167.438 40.1095L199.532 45.2587L188.565 12.2158L215.522 35.456L225.017 2L234.512 35.456L255.062 22.1837L250.473 45.2587L286.348 39.6139L258.381 61.7526L278.642 72.9321L255.668 79.6784L275.957 108.453L255.668 98" stroke="black" stroke-width="2.36808" stroke-linecap="round" stroke-linejoin="round"/>
<path d="M349.245 205.087C349.293 205.353 349.419 205.597 349.572 205.81C349.77 206.086 350.041 206.348 350.345 206.593C350.953 207.083 351.76 207.554 352.584 207.967C354.22 208.788 356.046 209.439 356.736 209.561L356.736 209.561L356.745 209.563C358.578 209.854 361.623 210.2 364.43 209.904C367.189 209.613 369.97 208.672 370.887 206.156L370.917 206.073V205.985V203.318H371.182C373.401 203.452 375.462 204.378 376.89 205.425C377.606 205.949 378.141 206.489 378.454 206.949C378.611 207.179 378.7 207.372 378.737 207.518C378.775 207.664 378.753 207.727 378.744 207.744L378.691 207.849V207.968V208.188V208.875L379.345 208.664C391.497 204.733 402.99 199.148 413.47 192.081L413.47 192.081L413.479 192.074C416.682 189.807 419.345 187.513 420.954 185.349C422.552 183.202 423.222 181.018 422.042 179.121L422.035 179.11L422.027 179.099C421.533 178.391 420.829 177.481 419.97 176.37C417.938 173.744 415.041 169.998 411.997 165.159L411.993 165.152L411.988 165.145C400.03 147.409 395.828 125.915 400.279 105.264L400.326 105.142C403.204 106.124 405.92 107.496 408.39 109.214C409.863 110.37 412.696 113.552 416.222 117.87C419.741 122.178 423.909 127.568 428.025 133.077C436.267 144.109 444.252 155.559 446.396 159.757C446.925 160.826 447.458 161.865 447.982 162.884C450.86 168.487 453.429 173.489 453.241 179.664C452.745 186.888 448.034 193.89 440.898 200.051C433.77 206.207 424.286 211.467 414.398 215.21L414.398 215.21L414.387 215.214C404.094 219.398 392.986 221.451 381.798 221.236L381.534 221.231L381.381 221.447L380.758 222.326C377.396 223.342 373.924 223.993 370.407 224.266L370.376 224.268L370.345 224.275C363.583 225.673 356.543 225.203 350.052 222.922C348.963 222.441 348.131 221.932 347.58 221.444C347.021 220.948 346.825 220.542 346.818 220.263C346.838 219.995 346.92 219.733 347.06 219.496C347.203 219.254 347.404 219.044 347.647 218.883C347.891 218.723 348.171 218.616 348.467 218.573C348.763 218.529 349.066 218.551 349.351 218.635L349.696 217.699C348.954 217.368 348.305 216.878 347.799 216.269C347.309 215.679 346.965 214.992 346.793 214.262C346.817 213.986 346.899 213.716 347.036 213.468C347.184 213.201 347.392 212.966 347.647 212.78C347.902 212.594 348.198 212.463 348.515 212.396C348.832 212.329 349.16 212.328 349.477 212.395L349.802 211.458C349.001 211.059 348.311 210.487 347.787 209.79C347.275 209.107 346.934 208.323 346.791 207.499C346.812 207.176 346.898 206.859 347.043 206.565C347.196 206.255 347.413 205.976 347.683 205.745C347.953 205.513 348.269 205.335 348.615 205.22C348.819 205.152 349.03 205.108 349.245 205.087Z" stroke="#1C1A24"/>
<path d="M360.893 360.351C366.665 384.61 374.082 407.988 381.471 429.879H381.702H415.441C415.614 410.246 415.758 385.821 415.845 360.241H361.008L360.893 360.351Z" fill="#1C1A24"/>
<path d="M381.875 467.134C363.605 469.282 351.368 460.553 348.568 471.209L349.001 473.743H414.979C414.979 473.743 414.979 468.704 415.123 459.975H414.373C402.77 459.259 392.351 465.895 381.875 467.134Z" fill="#1C1A24"/>
<path d="M334.551 47.2931C334.535 44.4177 334.828 41.5485 335.428 38.7306C335.6 38.7309 335.773 38.7231 335.945 38.7071L335.945 38.7072L335.955 38.706L335.899 38.2092L335.955 38.706L335.956 38.706L335.957 38.7058L335.963 38.7051L335.988 38.7024L336.083 38.6916C336.168 38.6822 336.293 38.6683 336.455 38.6507C336.779 38.6154 337.251 38.5649 337.841 38.5044C339.02 38.3833 340.673 38.2218 342.561 38.0603C346.343 37.737 351.059 37.415 354.832 37.415C358.865 37.415 363.697 37.7371 367.528 38.0604C369.442 38.2218 371.103 38.3833 372.286 38.5044C372.877 38.5649 373.348 38.6154 373.672 38.6507C373.801 38.6647 373.906 38.6764 373.986 38.6853V38.76V38.8L373.993 38.8396C374.057 39.2396 374.118 39.5305 374.169 39.7784C374.267 40.2504 374.333 40.5664 374.333 41.1831V42.2455L375.151 41.5683C376.733 40.26 378.107 40.0585 379.24 40.4214C380.407 40.7954 381.438 41.806 382.218 43.1574C382.993 44.5015 383.485 46.1227 383.609 47.6097C383.733 49.1043 383.478 50.3605 382.89 51.0892C382.087 51.8773 381.057 52.4264 379.925 52.6648C378.784 52.9051 377.595 52.8186 376.507 52.4167L375.834 52.1681V52.8858V53.1336V53.1555L375.836 53.1774C376.304 58.4987 376.893 63.587 377.472 68.5919C378.647 78.7462 379.783 88.5574 379.788 99.2752C379.334 101.01 378.081 103.955 376.364 107.415C374.633 110.903 372.45 114.877 370.192 118.591C367.932 122.309 365.605 125.75 363.587 128.181C362.576 129.399 361.659 130.343 360.88 130.942C360.49 131.242 360.153 131.441 359.87 131.549C359.588 131.658 359.397 131.661 359.271 131.626C358.782 131.481 358.174 131.023 357.472 130.214C356.782 129.418 356.048 128.34 355.295 127.052C353.791 124.479 352.244 121.127 350.84 117.668C349.436 114.212 348.181 110.663 347.259 107.702C346.363 104.824 345.799 102.555 345.7 101.459C348.571 94.6683 350.591 87.5772 351.718 80.3332L351.796 79.8352L351.297 79.7617C350.799 79.6883 350.313 79.5593 349.847 79.3775L349.843 79.3758C349.446 79.2254 348.886 78.7985 348.189 78.0627C347.507 77.3413 346.737 76.3712 345.918 75.2059C344.281 72.8767 342.468 69.8024 340.779 66.4624C339.09 63.123 337.529 59.5294 336.393 56.1634C335.253 52.7883 334.551 49.6792 334.551 47.296L334.551 47.2931Z" stroke="#1C1A24"/>
<path d="M354.832 26.3141C359.94 26.3141 368.079 26.975 371.975 27.3055V27.1402C371.211 24.7679 369.922 22.5798 368.194 20.7244C358.266 10.1231 346.231 15.2172 339.333 26.8649V27.1953C343.605 26.8373 350.589 26.3141 354.832 26.3141Z" fill="#1C1A24"/>
<path d="M245.318 100.113L258.241 98.3748L258.311 98.3653L258.376 98.3368L258.63 98.2247C265.015 111.326 272.713 123.807 281.616 135.493L281.928 135.903L282.328 135.579L282.014 135.19C282.328 135.579 282.328 135.579 282.329 135.579L282.33 135.578L282.334 135.575L282.35 135.561L282.415 135.509L282.669 135.304C282.893 135.123 283.222 134.858 283.644 134.519C284.489 133.841 285.706 132.866 287.197 131.679C290.179 129.306 294.254 126.088 298.63 122.706C307.396 115.931 317.315 108.541 322.079 105.948C323.653 105.121 325.323 104.471 327.054 104.011L327.451 104.292C329.945 137.828 319.485 147.556 316.62 149.568L316.612 149.573L316.605 149.579C316.386 149.745 316.154 149.893 315.909 150.023C315.762 150.09 315.327 150.313 314.678 150.647C314.567 150.704 314.45 150.764 314.327 150.827C313.434 151.285 312.2 151.917 310.711 152.665C307.731 154.162 303.728 156.125 299.38 158.103C295.03 160.08 290.341 162.07 285.987 163.62C281.626 165.174 277.639 166.273 274.679 166.495C274.037 166.531 273.261 166.205 272.346 165.42C271.438 164.641 270.458 163.463 269.424 161.937C267.356 158.887 265.128 154.533 262.867 149.437C258.346 139.251 253.727 126.191 250.02 114.906L250.02 114.906L250.018 114.9C248.361 110.045 246.985 105.553 245.82 101.75C245.648 101.189 245.481 100.643 245.318 100.113Z" stroke="#1C1A24"/>
<path d="M291.019 405.124C279.937 404.408 269.893 411.044 259.907 412.283C242.359 414.431 230.612 405.702 227.957 416.358L228.101 417.432L291.597 417.157C291.597 417.157 291.395 412.476 291.135 405.124H291.019Z" fill="#1C1A24"/>
<path d="M248.217 286.747C242.878 301.011 253.585 344.352 260.974 370.731H290.268C290.037 347.326 290.528 322.736 293.443 317.257C291.365 315.853 271.537 302.525 248.534 285.976C248.419 286.224 248.304 286.499 248.217 286.747Z" fill="#1C1A24"/>
<path d="M181.08 456.34C168.526 454.936 152.421 447.611 148.525 447.336H147.688C145.869 447.804 124.916 447.336 124.916 447.336C124.916 447.336 124.916 446.923 124.916 446.647V467.905L191.557 467.63C192.856 460.223 187.141 457.001 181.08 456.34Z" fill="#1C1A24"/>
<path d="M54.4935 455.79C49.1541 456.037 48.7212 449.264 38.2156 444.197L37.725 443.949L18.2146 436.542L17.8683 436.404L8.74805 454.22L37.09 466.969L72.0413 467.272V466.556C71.1754 461.93 63.7292 455.377 54.4935 455.79Z" fill="#1C1A24"/>
<path d="M124.888 473.192H191.702V467.961H124.888V473.192Z" stroke="#1C1A24" stroke-width="2.36808" stroke-linecap="round" stroke-linejoin="round"/>
<path d="M348.597 276.559C350.675 337.936 370.272 397.936 387.791 448.52C387.791 448.52 370.965 455.679 358.381 457.111C352.349 457.772 346.606 460.993 348.02 468.346L348.944 473.853H414.921C414.921 473.853 416.537 333.42 415.354 253.566" stroke="#1C1A24" stroke-width="2.36808" stroke-miterlimit="10"/>
<path d="M303.862 253.594C286.776 260.395 251.911 276.889 248.217 286.637C240.367 307.646 267.266 391.823 267.266 391.823C262.099 393.145 250.151 398.928 237.567 400.332C231.506 401.02 225.792 404.214 227.206 411.594L228.014 417.322L291.509 417.046C291.509 417.046 287.295 321.8 294.107 316.265C306.979 305.774 329.751 299.248 349.607 299.744" stroke="#1C1A24" stroke-width="2.36808" stroke-miterlimit="10"/>
<path d="M38.2451 444.17C45.8357 438.25 103.732 341.93 116.315 276.697" stroke="#1C1A24" stroke-width="2.36808" stroke-miterlimit="10" stroke-linecap="round"/>
<path d="M44.1902 254.53C40.7268 317.477 18.2148 436.266 18.2148 436.266" stroke="#1C1A24" stroke-width="2.36808" stroke-miterlimit="10" stroke-linecap="round"/>
<path d="M101.913 323.866C107.339 351.952 123.271 438.112 124.8 447.309C124.8 447.309 147.428 447.749 147.687 447.309C151.497 439.378 154.124 355.256 151.786 255.191" stroke="#1C1A24" stroke-width="2.36808" stroke-miterlimit="10" stroke-linecap="round"/>
<path d="M63.7295 269.703C60.8433 284.545 45.4024 288.978 31.2314 286.693" stroke="#1C1A24" stroke-width="2.36808" stroke-miterlimit="10" stroke-linecap="round"/>
<path d="M148.525 447.281C152.422 447.557 168.526 454.881 181.081 456.286C187.142 456.946 192.857 460.168 191.471 467.548L124.83 467.823" stroke="#1C1A24" stroke-width="2.36808" stroke-linecap="round" stroke-linejoin="round"/>
<path d="M124.801 446.62V467.41" stroke="#1C1A24" stroke-width="2.36808" stroke-miterlimit="10"/>
<path d="M5.5459 459.865L35.7061 472.806L71.9562 472.531V467.299L36.976 466.996L8.6341 454.22L5.5459 459.865Z" stroke="#1C1A24" stroke-width="2.36808" stroke-linecap="round" stroke-linejoin="round"/>
<path d="M71.9258 466.556C71.1754 461.847 63.7291 455.294 54.6089 455.707C49.1829 455.955 48.8366 448.961 37.8404 443.867L17.8683 436.322L8.74805 454.137" stroke="#1C1A24" stroke-width="2.36808" stroke-linecap="round" stroke-linejoin="round"/>
<path d="M80.9219 41.0734C81.8166 34.8228 83 25.5708 87.5601 20.7245C102.164 5.13921 119.134 36.888 121.847 47.1038C124.416 56.6312 110.303 78.109 106.262 79.651C100.144 81.964 91.4564 76.4844 88.7145 71.0599" stroke="#1C1A24" stroke-width="2.36808" stroke-miterlimit="10" stroke-linecap="round"/>
<path d="M78.8448 100.523C78.8448 84.1942 77.9212 69.4074 79.3643 53.1338" stroke="#1C1A24" stroke-width="2.36808" stroke-miterlimit="10"/>
<path d="M104.589 79.376C105.426 86.3976 106.378 94.5757 109.236 100.496" stroke="#1C1A24" stroke-width="2.36808" stroke-miterlimit="10"/>
<path d="M83.2593 43.9365C75.207 32.5918 69.2327 47.5162 72.3497 51.4263C74.3411 53.932 78.6127 53.4639 80.8639 52.2799" stroke="#1C1A24" stroke-width="2.36808" stroke-miterlimit="10" stroke-linecap="round"/>
<path d="M111.978 27.8285C112.959 27.8285 136.106 23.4227 132.845 17.3649C129.15 10.4259 84.5016 32.3168 81.7598 33.4733" stroke="#1C1A24" stroke-width="2.36808" stroke-miterlimit="10"/>
<path d="M98.9323 45.2587C97.7482 44.9145 96.4956 44.8424 95.2768 45.0482C94.0579 45.2539 92.9073 45.7318 91.9189 46.4427" stroke="#1C1A24" stroke-width="2.36808" stroke-miterlimit="10" stroke-linecap="round"/>
<path d="M79.5075 46.1675C78.2711 47.3218 76.6192 47.9818 74.8896 48.0124" stroke="#1C1A24" stroke-width="2.36808" stroke-miterlimit="10" stroke-linecap="round"/>
<path d="M96.7093 52.5557C97.3788 52.5557 97.9214 52.0379 97.9214 51.3992C97.9214 50.7605 97.3788 50.2427 96.7093 50.2427C96.0398 50.2427 95.4971 50.7605 95.4971 51.3992C95.4971 52.0379 96.0398 52.5557 96.7093 52.5557Z" fill="#1C1A24"/>
<path d="M112.555 52.1431C113.224 52.1431 113.767 51.6253 113.767 50.9865C113.767 50.3478 113.224 49.8301 112.555 49.8301C111.886 49.8301 111.343 50.3478 111.343 50.9865C111.343 51.6253 111.886 52.1431 112.555 52.1431Z" fill="#1C1A24"/>
<path d="M114.603 45.5612C112.699 44.7351 108.369 44.983 107.59 46.7728C106.378 49.5264 108.225 55.6393 109.004 59.0813C109.524 61.4218 110.419 65.9928 106.118 64.7537" stroke="#1C1A24" stroke-width="2.36808" stroke-miterlimit="10" stroke-linecap="round"/>
<path d="M215.137 77.5031C214.849 71.996 214.82 68.0308 214.935 63.1295C214.935 61.4498 215.859 54.5659 212.453 55.2543C209.048 55.9427 209.971 71.0322 210.029 73.3728" stroke="#1C1A24" stroke-width="2.36808" stroke-linecap="round" stroke-linejoin="round"/>
<path d="M210.952 56.5484C210.635 54.5107 209.769 53.4368 207.835 53.4644C203.564 53.4644 204.603 67.0946 204.516 73.5104" stroke="#1C1A24" stroke-width="2.36808" stroke-linecap="round" stroke-linejoin="round"/>
<path d="M215.138 89.9215C218.543 90.307 220.477 77.5304 220.65 73.5928C220.65 72.2986 220.881 69.903 219.178 69.1044C218.024 68.5813 217.042 69.6001 216.638 70.3711C216.107 71.5545 215.767 72.8078 215.628 74.0884C215.397 75.7405 215.08 77.7232 214.878 79.3753" stroke="#1C1A24" stroke-width="2.36808" stroke-linecap="round" stroke-linejoin="round"/>
<path d="M205.18 56.4106C204.863 54.7034 203.016 54.9787 201.832 55.9976C198.427 58.9164 199.35 79.458 201.659 89.0405C201.659 89.0405 205.931 86.7 215.022 89.784" stroke="#1C1A24" stroke-width="2.36808" stroke-linecap="round" stroke-linejoin="round"/>
<path d="M379.017 207.968C379.652 206.701 375.698 203.094 371.022 202.818" stroke="#1C1A24" stroke-width="2.36808" stroke-miterlimit="10" stroke-linecap="round"/>
<path d="M414.546 216.338C415.642 233.438 416.652 249.134 416.941 253.952L303.631 253.76C304.035 233.769 312.462 177.183 317.08 150.087" stroke="#1C1A24" stroke-width="2.36808" stroke-linecap="round" stroke-linejoin="round"/>
<path d="M411.429 165.37C411.688 170.464 412.295 179.661 413.016 191.226" stroke="#1C1A24" stroke-width="2.36808" stroke-linecap="round" stroke-linejoin="round"/>
<path d="M371.918 27.1402C371.154 24.7679 369.864 22.5798 368.137 20.7244C358.209 10.1231 346.173 15.2172 339.275 26.8649" stroke="#1C1A24" stroke-width="2.36808" stroke-miterlimit="10" stroke-linecap="round"/>
<path d="M374.775 41.0736C374.775 40.0823 374.602 39.7243 374.429 38.6504" stroke="#1C1A24" stroke-width="2.36808" stroke-miterlimit="10" stroke-linecap="round"/>
<path d="M380.287 99.9173C380.287 83.5886 377.776 69.4076 376.333 53.1064" stroke="#1C1A24" stroke-width="2.36808" stroke-miterlimit="10"/>
<path d="M372.726 43.5792C380.865 31.2983 386.839 47.4342 383.722 51.6472C382.634 52.7627 381.165 53.4722 379.578 53.6488C377.992 53.8253 376.391 53.4575 375.063 52.6109" stroke="#1C1A24" stroke-width="1.70722" stroke-miterlimit="10" stroke-linecap="round"/>
<path d="M356.766 45.2587C357.95 44.9145 359.202 44.8424 360.421 45.0482C361.64 45.2539 362.791 45.7318 363.779 46.4427" stroke="#1C1A24" stroke-width="1.70722" stroke-miterlimit="10" stroke-linecap="round"/>
<path d="M376.189 46.1675C377.426 47.3218 379.078 47.9818 380.807 48.0124" stroke="#1C1A24" stroke-width="1.70722" stroke-miterlimit="10" stroke-linecap="round"/>
<path d="M358.959 52.5557C359.628 52.5557 360.171 52.0379 360.171 51.3992C360.171 50.7605 359.628 50.2427 358.959 50.2427C358.289 50.2427 357.746 50.7605 357.746 51.3992C357.746 52.0379 358.289 52.5557 358.959 52.5557Z" fill="#1C1A24"/>
<path d="M343.98 52.1431C344.649 52.1431 345.192 51.6253 345.192 50.9865C345.192 50.3478 344.649 49.8301 343.98 49.8301C343.31 49.8301 342.768 50.3478 342.768 50.9865C342.768 51.6253 343.31 52.1431 343.98 52.1431Z" fill="#1C1A24"/>
<path d="M341.959 45.5612C343.864 44.7351 348.164 44.983 348.943 46.7728C350.184 49.5264 345.451 58.5031 344.643 61.945C344.124 64.2856 348.193 64.0102 350.675 63.7349" stroke="#1C1A24" stroke-width="1.70722" stroke-miterlimit="10" stroke-linecap="round"/>
<path d="M360.056 66.792C357.891 73.7035 348.511 73.7861 346.664 69.1876" stroke="#1C1A24" stroke-width="1.70722" stroke-miterlimit="10" stroke-linecap="round"/>
<path d="M241.694 75.1351C241.694 69.27 241.694 67.8657 241.492 62.8541C241.492 61.1194 240.539 54.0977 244.118 54.7861C247.697 55.4745 246.86 70.9221 246.773 73.3177" stroke="#1C1A24" stroke-width="1.70722" stroke-linecap="round" stroke-linejoin="round"/>
<path d="M245.619 55.7221C245.615 55.3256 245.701 54.9331 245.87 54.5711C246.04 54.2092 246.29 53.8864 246.602 53.625C246.914 53.3635 247.282 53.1695 247.681 53.0563C248.079 52.943 248.498 52.913 248.909 52.9685C253.643 52.9685 252.633 66.3785 252.459 73.0146" stroke="#1C1A24" stroke-width="1.70722" stroke-linecap="round" stroke-linejoin="round"/>
<path d="M327.702 104.076C330.588 143.507 315.897 150.529 315.897 150.529C315.003 150.942 286.603 166.086 274.481 167.05C263.774 167.876 241.694 90.5005 241.694 90.5005" stroke="#1C1A24" stroke-width="2.36808" stroke-linecap="round" stroke-linejoin="round"/>
<path d="M293.213 317.174C293.213 317.174 272.779 303.406 248.333 285.811" stroke="#1C1A24" stroke-width="2.36808" stroke-miterlimit="10"/>
<path d="M416.22 360.186C416.22 360.186 391.428 360.186 361.037 359.553" stroke="#1C1A24" stroke-width="2.36808" stroke-miterlimit="10"/>
<path d="M378.989 208.215C388.398 206.04 426.928 188.114 421.502 179.385C416.798 172.639 390.678 144.745 399.683 105.039" stroke="#1C1A24" stroke-width="2.36808" stroke-linecap="round" stroke-linejoin="round"/>
<path d="M254.74 88.6553C261.902 105.122 271.045 120.738 281.985 135.191C281.985 135.191 312.232 110.739 321.814 105.507C329.203 101.487 345.221 101.019 345.221 101.019C346.116 105.232 354.053 130.647 359.132 132.107C363.404 133.318 378.498 106.443 380.288 99.3392C380.288 99.3392 401.761 103.387 408.687 108.811C414.777 113.575 442.513 151.051 446.842 159.532C450.248 166.279 453.971 172.226 453.48 179.771C451.893 203.149 407.475 223.443 381.529 221.818" stroke="#1C1A24" stroke-width="2.36808" stroke-linecap="round" stroke-linejoin="round"/>
<path d="M258.03 97.8789L244.494 99.6963" stroke="#1C1A24" stroke-width="2.36808" stroke-linecap="round" stroke-linejoin="round"/>
<path d="M381.701 429.824H414.546" stroke="#1C1A24" stroke-width="2.36808" stroke-linecap="round" stroke-linejoin="round"/>
<path d="M260.945 370.759H289.662" stroke="#1C1A24" stroke-width="2.36808" stroke-linecap="round" stroke-linejoin="round"/>
<path d="M348.568 471.21C351.455 460.554 363.605 469.283 381.875 467.135C392.294 465.923 402.77 459.26 414.315 460.003" stroke="#1C1A24" stroke-width="2.36808" stroke-miterlimit="10"/>
<path d="M227.841 416.331C230.496 405.702 242.272 414.431 259.79 412.283C269.777 411.044 279.82 404.408 290.903 405.124" stroke="#1C1A24" stroke-width="2.36808" stroke-miterlimit="10"/>
<path d="M241.81 79.7612C241.835 77.9228 241.758 76.0846 241.579 74.254C241.409 72.9192 241.019 71.6184 240.425 70.399C239.992 69.6005 238.895 68.5265 237.539 69.0773C235.605 69.9309 235.778 72.4091 235.836 73.7859C235.836 76.9525 235.836 86.0944 240.021 91.4088" stroke="#1C1A24" stroke-width="1.70722" stroke-linecap="round" stroke-linejoin="round"/>
<path d="M256.212 88.3251C258.607 78.5775 258.723 58.3387 255.144 55.2822C253.903 54.2634 251.623 54.1532 251.825 55.7227" stroke="#1C1A24" stroke-width="1.70722" stroke-linecap="square" stroke-linejoin="round"/>
<path d="M348.654 212.07C348.275 211.924 347.861 211.876 347.455 211.932C347.05 211.988 346.667 212.147 346.347 212.39C346.027 212.634 345.78 212.955 345.633 213.32C345.486 213.685 345.443 214.08 345.509 214.466C345.768 218.349 353.705 221.68 362.825 220.579" stroke="#1C1A24" stroke-width="1.70722" stroke-miterlimit="10" stroke-linecap="round"/>
<path d="M349.06 218.734C346.173 217.385 345.336 219.313 345.625 220.414C346.635 224.021 356.333 230.327 380.086 223.168C380.086 223.168 382.972 223.746 383.578 223.774" stroke="#1C1A24" stroke-width="1.70722" stroke-miterlimit="10" stroke-linecap="square"/>
<path d="M369.551 206.122C367.473 209.675 361.124 209.262 356.766 208.656C354.144 207.806 351.687 206.55 349.492 204.938C349.196 204.756 348.861 204.639 348.512 204.597C348.162 204.554 347.807 204.586 347.472 204.691C346.848 204.857 346.301 205.219 345.918 205.719C345.536 206.218 345.341 206.826 345.365 207.444C345.596 211.657 354.024 215.98 363.086 214.659" stroke="#1C1A24" stroke-width="1.70722" stroke-miterlimit="10" stroke-linecap="round"/>
<path d="M334.398 38.5952C333.766 41.5026 333.457 44.4652 333.474 47.4343C333.474 57.237 345.019 78.3569 349.117 79.8989C355.236 82.2119 363.923 76.7323 366.694 71.3077" stroke="#1C1A24" stroke-width="1.70722" stroke-miterlimit="10" stroke-linecap="round"/>
<path d="M350.935 80.1191C349.204 86.2596 345.163 98.5681 345.163 100.055" stroke="#1C1A24" stroke-width="2.36808" stroke-miterlimit="10"/>
<path d="M374.111 38.1269C374.111 38.1269 362.826 36.8327 354.716 36.8327C347.125 36.8327 335.783 38.1269 335.783 38.1269C335.248 38.1344 334.716 38.039 334.221 37.8462C333.725 37.6534 333.275 37.3672 332.898 37.0048C332.521 36.6423 332.224 36.2112 332.025 35.7369C331.827 35.2626 331.73 34.755 331.742 34.2444V31.2154C331.742 30.2076 332.162 29.2411 332.909 28.5285C333.656 27.8158 334.669 27.4155 335.725 27.4155C335.725 27.4155 348.424 26.2314 354.716 26.2314C361.585 26.2314 374.053 27.4155 374.053 27.4155C375.109 27.4155 376.122 27.8158 376.869 28.5285C377.616 29.2411 378.036 30.2076 378.036 31.2154V34.2444C378.047 34.7457 377.955 35.2442 377.763 35.7112C377.572 36.1782 377.286 36.6045 376.921 36.9654C376.556 37.3263 376.12 37.6147 375.637 37.8141C375.155 38.0134 374.636 38.1198 374.111 38.1269Z" fill="#FFC13E" stroke="#1C1A24" stroke-width="2.36808" stroke-linecap="round" stroke-linejoin="round"/>
<path d="M340.4 101.735C340.4 101.735 349.752 136.788 358.814 136.705C368.742 136.705 378.555 115.861 384.356 101.102" stroke="#1C1A24" stroke-width="2.36808" stroke-miterlimit="10" stroke-linecap="round"/>
<path d="M394.834 103.084C391.911 115.139 391.899 127.669 394.799 139.729C397.699 151.788 403.435 163.061 411.573 172.695" stroke="#1C1A24" stroke-width="2.36808" stroke-miterlimit="10" stroke-linecap="round"/>
<path d="M331.742 102.726C331.742 102.726 336.764 142.488 316.503 156.366" stroke="#1C1A24" stroke-width="2.36808" stroke-miterlimit="10" stroke-linecap="round"/>
<path d="M392.871 254.118V360.02" stroke="#1C1A24" stroke-width="2.36808" stroke-miterlimit="10" stroke-linecap="round"/>
<path d="M399.885 254.118V360.02" stroke="#1C1A24" stroke-width="2.36808" stroke-miterlimit="10" stroke-linecap="round"/>
<path d="M102.453 74.8322C96.6808 74.6394 94.2853 66.241 95.7284 67.37C97.8173 68.4297 100.137 69.009 102.502 69.0616C104.867 69.1142 107.213 68.6387 109.351 67.6729C110.938 66.8469 107.129 75.0249 102.453 74.8322Z" stroke="#1C1A24" stroke-width="2.36808" stroke-miterlimit="10"/>
<path d="M249.401 114.429L247.265 119.688L233.787 103.47L216.499 127.288L216.586 119.661" stroke="black" stroke-width="2.36808" stroke-linecap="round" stroke-linejoin="round"/>
<path d="M141.86 156.209C147.075 189.396 154.125 238.649 154.445 254.715H152.989L42.1075 254.91H40.0681C40.6799 244.292 41.5832 243.319 42.3406 227.559L68.3566 228.81C54.46 227.087 34.9407 218.22 20.6945 206.824C10.294 198.486 2.66106 188.868 2.04926 179.696C1.52487 172.08 5.28302 166.104 8.74988 159.294C13.0907 150.706 38.291 119.409 44.4381 114.572C51.4301 109.013 75.232 105.733 75.232 105.733C76.1934 103.454 76.6887 101.397 79.0193 100.035C79.1672 99.9552 79.3235 99.89 79.4855 99.8407C89.1618 97.7857 99.1778 97.6533 108.91 99.4516C109.341 99.5606 109.754 99.7291 110.134 99.9519C111.255 100.535 112.217 101.363 112.941 102.367C113.665 103.372 114.13 104.525 114.3 105.733C114.3 105.733 128.662 105.205 137.315 109.708C149.679 116.735 161.299 124.889 172.013 134.056C172.411 122.924 201.352 101.575 200.099 90.5H201.147H215.297C220.571 107.622 202.603 157.516 195.756 163.992C190.629 168.967 146.259 157.655 141.86 156.209ZM55.6835 155.07C54.2851 156.459 52.9159 157.849 51.5467 159.294C45.4007 165.6 39.6606 172.256 34.358 179.223C28.8519 188.035 68.5022 211.132 78.0579 213.328C78.0579 213.328 78.0579 213.967 78.0579 214.996C77.8539 218.859 77.0965 228.171 74.4745 228.893C76.2225 231.089 88.2837 239.122 92.8868 239.845C99.6166 240.956 107.89 234.619 112.901 230.728C115.795 230.864 118.627 229.898 120.774 228.042C122.921 226.187 124.207 223.593 124.351 220.833L127.06 168.8C127.195 166.042 126.18 163.344 124.236 161.297C122.293 159.251 119.579 158.021 116.689 157.877L55.6835 155.07Z" fill="#1C1A24"/>
<path d="M69.2013 142.701C64.4358 146.557 59.9214 150.688 55.6834 155.07C54.285 156.459 52.9158 157.849 51.5465 159.294C45.4006 165.6 39.6605 172.256 34.3579 179.223C28.8517 188.035 68.502 211.132 78.0577 213.328C78.0577 213.328 78.0577 213.967 78.0577 214.996C77.8538 218.859 77.0964 228.171 74.4744 228.893H74.154C72.2654 228.933 70.3764 228.84 68.5021 228.615C54.6056 226.892 35.0862 218.025 20.84 206.629C10.4395 198.291 2.80657 188.674 2.19477 179.501C1.67037 171.886 5.42853 165.91 8.89539 159.1C13.2362 150.511 38.4365 119.214 44.5836 114.378C51.5756 108.819 75.3775 105.539 75.3775 105.539C76.3389 103.26 76.8342 101.203 79.1648 99.8407C79.3127 99.7606 79.469 99.6954 79.6311 99.6461C89.3073 97.5912 99.3233 97.4587 109.056 99.2571C109.487 99.366 109.899 99.5345 110.279 99.7574C111.401 100.341 112.363 101.168 113.087 102.173C113.81 103.177 114.276 104.331 114.445 105.539C114.445 105.539 128.808 105.011 137.461 109.513C149.824 116.54 161.445 124.695 172.158 133.862C173.906 135.307 175.625 136.78 177.315 138.254" stroke="#1C1A24" stroke-width="2.39038" stroke-linecap="round" stroke-linejoin="round"/>
<path d="M124.43 230.755C119.419 234.647 111.146 240.984 104.416 239.872C99.8128 239.15 87.7516 231.117 86.0036 228.921C85.9134 228.808 85.8353 228.687 85.7705 228.56" stroke="#1C1A24" stroke-width="2.39038" stroke-miterlimit="10"/>
<path d="M42.3408 227.559C41.5834 243.319 40.6802 244.236 40.0684 254.909H42.1077L152.989 254.715H154.446C154.125 238.649 147.075 189.396 141.86 156.209C140.52 147.731 139.325 140.31 138.364 134.751" stroke="#1C1A24" stroke-width="2.39038" stroke-linecap="round" stroke-linejoin="round"/>
<path d="M141.598 156.126H141.86C146.259 157.571 190.629 168.884 195.902 163.881C202.748 157.404 220.571 107.566 215.298 90.5H214.25H200.1C201.352 101.575 172.674 122.812 172.275 133.945" stroke="#1C1A24" stroke-width="2.39038" stroke-miterlimit="10"/>
<path d="M112.173 230.755H111.853C106.521 231.005 96.9948 231.033 94.1398 228.643C92.3918 227.17 92.3044 221.027 95.2177 219.832C97.2279 218.998 101.277 217.692 102.705 216.886C103.268 216.623 103.726 216.195 104.014 215.664C104.301 215.133 104.402 214.528 104.3 213.939C104.199 213.349 103.901 212.806 103.451 212.391C103.001 211.975 102.423 211.709 101.802 211.632C99.5437 211.438 97.2719 211.438 95.0137 211.632C90.6437 212.133 83.7684 216.218 78 214.995" stroke="#1C1A24" stroke-width="2.39038" stroke-miterlimit="10"/>
<path d="M68.3857 228.727L42.3695 227.476L30.5415 226.92C27.6508 226.776 24.9372 225.546 22.9938 223.5C21.0504 221.453 20.0353 218.755 20.1701 215.997L20.6653 206.796" stroke="#1C1A24" stroke-width="2.39038" stroke-miterlimit="10"/>
<path d="M55.2461 155.042H55.683L116.572 157.822C119.462 157.965 122.176 159.195 124.119 161.242C126.063 163.289 127.078 165.986 126.943 168.745L124.379 220.889C124.305 222.27 123.944 223.624 123.315 224.872C122.687 226.119 121.805 227.234 120.72 228.152C119.636 229.071 118.37 229.774 116.998 230.221C115.625 230.668 114.173 230.85 112.726 230.756H111.794H111.065" stroke="#1C1A24" stroke-width="2.39038" stroke-miterlimit="10"/>
<path d="M51.5469 159.322L112.727 162.102C115.295 162.217 117.711 163.301 119.443 165.114C121.175 166.928 122.081 169.324 121.962 171.774L119.602 217.803L119.019 228.615" stroke="#1C1A24" stroke-width="2.39038" stroke-miterlimit="10"/>
<path d="M39.3686 186.534C50.8763 198.486 72.4057 211.049 79.3685 212.661C79.3685 212.661 78.9899 230.339 74.9404 230.506C63.2871 230.95 44.7 224.696 28.8224 215.163" stroke="#1C1A24" stroke-width="2.39038" stroke-linecap="round" stroke-linejoin="round"/>
<path d="M505.119 474.933H521.373V495.736H225.165V474.933H393.17" stroke="#1C1A24" stroke-width="2.20063" stroke-miterlimit="10"/>
<path d="M333.681 474.933H225.191V495.711H333.681V474.933Z" fill="#1C1A24"/>
<path d="M418.318 417H538.914V530H207.544V417H373.318" stroke="#1C1A24" stroke-width="2.20063" stroke-miterlimit="10"/>
<path d="M249.707 432.148C252.092 432.148 254.025 430.304 254.025 428.028C254.025 425.753 252.092 423.909 249.707 423.909C247.322 423.909 245.389 425.753 245.389 428.028C245.389 430.304 247.322 432.148 249.707 432.148Z" stroke="#1C1A24" stroke-width="2.20063" stroke-miterlimit="10"/>
<path d="M234.472 432.148C236.857 432.148 238.791 430.304 238.791 428.028C238.791 425.753 236.857 423.909 234.472 423.909C232.087 423.909 230.154 425.753 230.154 428.028C230.154 430.304 232.087 432.148 234.472 432.148Z" stroke="#1C1A24" stroke-width="2.20063" stroke-miterlimit="10"/>
<path d="M219.211 432.148C221.596 432.148 223.529 430.304 223.529 428.028C223.529 425.753 221.596 423.909 219.211 423.909C216.826 423.909 214.893 425.753 214.893 428.028C214.893 430.304 216.826 432.148 219.211 432.148Z" stroke="#1C1A24" stroke-width="2.20063" stroke-miterlimit="10"/>
<path d="M207.436 438.699H384.372" stroke="#1C1A24" stroke-width="2.20063" stroke-miterlimit="10"/>
<path d="M398.786 170.781C397.864 174.544 391.36 204.985 389.951 211.777" stroke="#1C1A24" stroke-width="2.10109" stroke-linecap="round" stroke-linejoin="round"/>
<path d="M389.849 211.752C387.658 210.322 385.174 209.35 382.562 208.9C379.949 208.449 377.267 208.531 374.689 209.138" stroke="#1C1A24" stroke-width="2.10109" stroke-linecap="round" stroke-linejoin="round"/>
<path d="M356.175 208.259C342.808 204.057 329.62 211.753 329.62 211.753C330.721 199.537 331.745 168.363 331.745 168.363C353.23 159.055 365.547 171.857 366.93 173.42L367.058 173.567C372.692 164.747 390.924 164.258 398.709 170.757" stroke="#1C1A24" stroke-width="2.10109" stroke-linecap="round" stroke-linejoin="round"/>
<path d="M327.852 174.5L324.852 208" stroke="#1C1A24" stroke-width="2.10109" stroke-linecap="round" stroke-linejoin="round"/>
</svg>
