<svg width="463" height="462" viewBox="0 0 463 462" fill="none" xmlns="http://www.w3.org/2000/svg">
<g filter="url(#filter0_f_117_10101)">
<ellipse cx="205" cy="422.5" rx="117.5" ry="14.5" fill="#757575"/>
</g>
<path d="M228.613 70.1316C228.355 70.1316 228.109 70.2338 227.927 70.4158C227.745 70.5977 227.643 70.8445 227.643 71.1018C227.643 71.3591 227.745 71.6059 227.927 71.7878C228.109 71.9698 228.355 72.072 228.613 72.072C228.87 72.072 229.117 71.9698 229.299 71.7878C229.481 71.6059 229.583 71.3591 229.583 71.1018C229.583 70.8445 229.481 70.5977 229.299 70.4158C229.117 70.2338 228.87 70.1316 228.613 70.1316Z" fill="#ADA9A9"/>
<path d="M216.624 72.072C217.159 72.072 217.594 71.6376 217.594 71.1018C217.594 70.566 217.159 70.1316 216.624 70.1316C216.088 70.1316 215.653 70.566 215.653 71.1018C215.653 71.6376 216.088 72.072 216.624 72.072Z" fill="#ADA9A9"/>
<path d="M225.24 65.373C225.385 65.3945 225.533 65.3945 225.679 65.373C225.869 65.3757 226.056 65.3224 226.216 65.2197C226.376 65.117 226.503 64.9695 226.58 64.7955C226.794 64.4369 227.094 64.1373 227.453 63.9235C227.812 63.7098 228.218 63.5887 228.636 63.5712C228.879 63.5429 229.126 63.5843 229.346 63.6906C229.567 63.7969 229.753 63.9638 229.883 64.1718C230.021 64.3985 230.243 64.5611 230.501 64.624C230.759 64.6868 231.031 64.6446 231.257 64.5068C231.484 64.3689 231.647 64.1467 231.71 63.8889C231.772 63.6312 231.73 63.359 231.592 63.1323C231.275 62.6128 230.82 62.1911 230.278 61.9139C229.735 61.6367 229.127 61.5147 228.52 61.5615C227.753 61.6053 227.01 61.8394 226.356 62.2427C225.703 62.646 225.161 63.2058 224.778 63.8715C224.699 63.9979 224.648 64.1398 224.629 64.2875C224.61 64.4352 224.622 64.5854 224.666 64.7277C224.71 64.8701 224.784 65.0014 224.883 65.1128C224.982 65.2241 225.104 65.3129 225.24 65.373Z" fill="#ADA9A9"/>
<path d="M212.419 68.2143C212.637 68.2126 212.848 68.1396 213.02 68.0064C213.704 67.5841 214.472 67.3176 215.271 67.2258C216.069 67.134 216.878 67.2191 217.64 67.4751C217.753 67.5396 217.878 67.5806 218.008 67.5958C218.137 67.6109 218.268 67.5998 218.393 67.5632C218.518 67.5265 218.635 67.4651 218.735 67.3825C218.836 67.2998 218.919 67.1978 218.98 67.0824C219.106 66.8551 219.137 66.5875 219.068 66.3371C218.999 66.0866 218.835 65.8732 218.61 65.7426C217.512 65.2965 216.322 65.1243 215.143 65.2411C213.964 65.3578 212.831 65.7598 211.842 66.4125C211.637 66.5799 211.505 66.8209 211.475 67.0841C211.444 67.3473 211.518 67.6119 211.68 67.8216C211.766 67.938 211.877 68.0338 212.005 68.1017C212.133 68.1697 212.275 68.2081 212.419 68.2143Z" fill="#ADA9A9"/>
<path d="M223.53 86.9022C222.56 88.0572 219.881 86.9022 218.749 86.1168C218.641 86.04 218.518 85.9861 218.389 85.9585C218.259 85.9308 218.126 85.9299 217.996 85.9559C217.866 85.9818 217.743 86.0341 217.634 86.1094C217.525 86.1848 217.433 86.2816 217.363 86.394C217.22 86.6159 217.169 86.8845 217.221 87.1431C217.273 87.4017 217.423 87.6301 217.64 87.78C219.012 88.7103 220.606 89.2602 222.26 89.3739C222.779 89.3959 223.297 89.2991 223.773 89.0909C224.249 88.8828 224.672 88.5687 225.009 88.1727C225.191 87.9834 225.293 87.7309 225.293 87.4682C225.293 87.2055 225.191 86.953 225.009 86.7636C224.906 86.6679 224.785 86.595 224.652 86.5498C224.519 86.5045 224.378 86.4878 224.238 86.5009C224.099 86.514 223.963 86.5566 223.841 86.6257C223.719 86.6949 223.613 86.7891 223.53 86.9022Z" fill="#ADA9A9"/>
<path d="M201.262 64.8879C200.456 65.6 199.426 66.0085 198.351 66.0429C198.082 66.0429 197.823 66.15 197.633 66.3406C197.442 66.5312 197.335 66.7898 197.335 67.0593C197.341 67.3249 197.451 67.5775 197.641 67.7631C197.831 67.9488 198.086 68.0527 198.351 68.0526C199.934 68.0115 201.45 67.4051 202.625 66.3432C202.72 66.2537 202.797 66.1463 202.851 66.0271C202.905 65.9078 202.936 65.7791 202.94 65.6482C202.944 65.5174 202.923 65.387 202.876 65.2645C202.83 65.1419 202.761 65.0297 202.671 64.9341C202.582 64.8386 202.474 64.7616 202.355 64.7075C202.236 64.6535 202.107 64.6235 201.976 64.6192C201.845 64.6149 201.715 64.6364 201.592 64.6825C201.47 64.7286 201.358 64.7984 201.262 64.8879Z" fill="#ADA9A9"/>
<path d="M222.26 82.2361C222.753 82.4321 223.277 82.5415 223.808 82.5595C224.377 82.5725 224.934 82.3844 225.378 82.0282C226.718 80.9425 226.603 78.6556 226.302 76.5766C226.302 75.9067 226.071 75.1675 225.91 74.3821C225.333 72.2068 225.153 69.9454 225.378 67.7062C225.405 67.5756 225.405 67.4409 225.379 67.3102C225.352 67.1796 225.3 67.0556 225.224 66.9456C225.149 66.8357 225.052 66.7421 224.94 66.6703C224.827 66.5986 224.701 66.5502 224.57 66.5281C224.31 66.4801 224.042 66.5353 223.822 66.6819C223.602 66.8286 223.448 67.0551 223.392 67.3135C223.112 69.8045 223.293 72.3257 223.923 74.7517C224.062 75.514 224.2 76.2301 224.293 76.8769C224.685 79.5565 224.293 80.2726 224.108 80.4574C223.923 80.6422 223.484 80.5729 222.93 80.4574C222.681 80.3664 222.407 80.3758 222.166 80.4837C221.924 80.5915 221.734 80.7893 221.636 81.0349C221.575 81.2768 221.604 81.5329 221.719 81.7544C221.834 81.976 222.027 82.1474 222.26 82.2361Z" fill="#ADA9A9"/>
<path d="M301.608 144.514L278.3 149.134L262.615 143.544C254.553 124.301 248.109 118.134 247.831 117.764L247.67 117.81C243.327 115.338 232.724 114.853 229.49 114.784C229.39 113.807 229.063 112.868 228.533 112.041C228.003 111.214 227.287 110.524 226.441 110.025C225.886 107.323 225.401 104.874 224.985 102.587C224.477 99.8845 223.969 97.3435 223.392 94.8025H223.784C227.434 93.3241 239.007 74.7979 236.859 66.3433C235.234 60.8383 232.797 55.6064 229.629 50.8201C233.509 50.0347 243.489 47.6323 245.475 43.8901C245.726 43.4335 245.857 42.9211 245.857 42.4002C245.857 41.8793 245.726 41.3668 245.475 40.9102C244.436 38.8774 241.04 37.4452 224.339 44.3059C221.955 41.5879 218.59 39.9264 214.983 39.6859C213.545 39.7794 212.142 40.173 210.865 40.8414C209.588 41.5097 208.465 42.4381 207.568 43.5667C205.075 46.763 203.48 50.5668 202.948 54.5854C202.602 56.3872 202.347 58.1428 202.116 59.7598C201.322 59.3074 200.399 59.1343 199.494 59.2683C198.59 59.4023 197.756 59.8356 197.127 60.499C194.517 62.9245 193.523 68.3068 195.256 70.5937C195.786 71.2286 196.456 71.732 197.214 72.0647C197.971 72.3973 198.795 72.5501 199.622 72.511C199.952 72.5339 200.284 72.5339 200.615 72.511C199.899 81.751 200.014 90.3211 200.153 99.3763C200.153 102.934 200.153 106.514 200.153 110.187C198.708 111.161 197.659 112.619 197.196 114.299C193.061 114.53 179.086 115.477 174.535 117.856C162.038 124.324 147.97 170.709 151.435 179.834C151.435 179.834 151.435 180.042 151.435 180.157C153.049 183.842 155.697 186.979 159.058 189.189C166.473 193.093 179.201 195.103 197.381 195.264C196.976 193.627 196.956 191.918 197.32 190.271C197.685 188.624 198.425 187.084 199.483 185.77C194.863 184.13 178.37 177.893 173.703 171.91C168.991 165.211 181.557 142.643 182.99 140.079C183.054 139.964 183.141 139.864 183.245 139.783C183.349 139.703 183.467 139.644 183.594 139.609C183.721 139.575 183.853 139.566 183.983 139.583C184.113 139.6 184.239 139.643 184.353 139.709C184.583 139.84 184.753 140.056 184.826 140.311C184.899 140.565 184.87 140.838 184.745 141.072C180.98 147.678 172.017 165.881 175.644 170.57C179.802 175.976 195.672 182.12 201.562 184.223C202.596 184.506 203.657 184.684 204.727 184.754C205.037 184.779 205.347 184.698 205.605 184.523C205.851 184.344 206.024 184.081 206.09 183.784C206.391 182.93 206.889 182.159 207.543 181.533C208.197 180.907 208.989 180.444 209.855 180.18C210.59 179.861 211.388 179.714 212.189 179.75C212.99 179.786 213.771 180.004 214.475 180.388L212.65 185.793C212.196 185.838 211.737 185.791 211.301 185.656C210.864 185.521 210.459 185.301 210.109 185.008C209.902 184.843 209.639 184.766 209.376 184.792C209.113 184.817 208.871 184.945 208.7 185.147C208.616 185.248 208.552 185.365 208.513 185.491C208.475 185.617 208.461 185.749 208.474 185.88C208.487 186.011 208.526 186.139 208.588 186.255C208.651 186.371 208.736 186.473 208.839 186.556C209.481 187.068 210.225 187.438 211.022 187.642C211.818 187.845 212.649 187.876 213.459 187.734C215.059 187.419 216.612 186.898 218.079 186.186C220.158 185.285 221.567 184.754 221.959 185.401C222.352 186.048 221.959 186.417 221.243 187.156C218.933 189.882 212.812 192.4 208.677 190.09C208.443 189.965 208.17 189.936 207.916 190.009C207.661 190.083 207.445 190.253 207.314 190.483C207.249 190.598 207.208 190.724 207.192 190.856C207.177 190.987 207.188 191.12 207.224 191.247C207.261 191.374 207.322 191.492 207.405 191.595C207.488 191.698 207.59 191.783 207.707 191.846C209.165 192.64 210.804 193.046 212.465 193.024C216.112 192.926 219.596 191.496 222.26 189.004C222.532 189.243 222.712 189.57 222.768 189.928C222.693 190.446 222.516 190.944 222.246 191.392C221.976 191.84 221.62 192.23 221.197 192.539C220.866 192.851 220.511 193.137 220.134 193.393C218.425 194.747 216.389 195.627 214.232 195.943C212.074 196.259 209.871 196.001 207.845 195.195C207.591 195.119 207.317 195.146 207.083 195.272C206.849 195.397 206.674 195.611 206.598 195.865C206.521 196.119 206.549 196.394 206.674 196.627C206.8 196.861 207.014 197.036 207.268 197.112C209.048 197.671 210.9 197.967 212.766 197.99C215.865 197.988 218.874 196.947 221.313 195.033C221.59 194.826 221.89 194.548 222.19 194.294C222.295 194.255 222.409 194.255 222.514 194.294C222.599 194.442 222.644 194.609 222.644 194.779C222.644 194.95 222.599 195.117 222.514 195.264C222.514 195.518 219.488 201.571 208.654 200.185C207.891 200.185 207.106 199.954 206.344 199.792C204.93 199.39 203.561 198.849 202.255 198.175C201.609 197.815 200.918 197.543 200.199 197.367L198.42 197.182C188.007 197.363 177.608 196.309 167.443 194.04C165.637 208.201 164.658 222.454 164.51 236.729V238.161C164.5 238.294 164.52 238.426 164.568 238.55C164.616 238.674 164.691 238.786 164.787 238.877C164.976 239.068 165.234 239.176 165.503 239.177H166.658C166.658 246.87 166.496 255.117 166.45 263.687C164.409 264.217 162.319 264.534 160.213 264.634C159.973 264.67 159.753 264.792 159.595 264.976C159.437 265.16 159.349 265.395 159.349 265.639C159.349 265.882 159.437 266.117 159.595 266.301C159.753 266.485 159.973 266.607 160.213 266.643C162.288 266.504 164.345 266.172 166.358 265.65C166.173 310.464 166.75 364.564 167.074 393.74V399.907C167.074 408.685 167.235 415.523 167.074 417.209V421.575C167.074 421.845 167.181 422.103 167.371 422.294C167.562 422.484 167.821 422.592 168.09 422.592H258.989C259.254 422.585 259.507 422.476 259.692 422.286C259.878 422.096 259.982 421.841 259.982 421.575V417.279C260.219 416.164 260.224 415.013 259.998 413.896C259.771 412.78 259.318 411.721 258.665 410.787C257.686 409.636 256.483 408.696 255.128 408.025C253.774 407.354 252.297 406.966 250.788 406.884C243.749 405.63 236.911 403.431 230.46 400.346L227.965 399.284C239.515 362.324 254.969 305.775 256.471 238.97C256.471 238.97 256.471 238.97 256.471 238.831C256.706 238.776 256.917 238.647 257.071 238.461C257.254 238.223 257.352 237.93 257.349 237.63C257.21 235.482 256.887 230.446 256.217 221.46L275.089 217.14C275.245 217.097 275.389 217.019 275.51 216.91C275.63 216.802 275.723 216.667 275.782 216.516L281.072 202.656C282.057 202.888 283.064 203.011 284.075 203.026C284.444 203.05 284.815 203.05 285.184 203.026C287.207 202.814 289.134 202.058 290.761 200.837C292.388 199.617 293.654 197.978 294.424 196.096C295.519 193.537 295.569 190.652 294.563 188.057C294.086 186.682 293.401 185.389 292.53 184.223C291.821 183.261 290.963 182.419 289.989 181.728L289.25 181.104L302.694 145.83C302.755 145.664 302.771 145.485 302.739 145.31C302.708 145.136 302.631 144.973 302.515 144.839C302.4 144.705 302.25 144.604 302.083 144.547C301.915 144.489 301.735 144.478 301.562 144.514H301.608ZM243.858 41.8804C243.96 42.0517 244.013 42.2472 244.013 42.4464C244.013 42.6455 243.96 42.841 243.858 43.0123C242.218 46.0384 231.361 48.6487 228.566 49.1338C227.711 47.9557 226.857 46.8238 226.002 45.946C241.548 39.5935 243.535 41.4415 243.766 41.8804H243.858ZM209.208 44.9296C209.921 44.0064 210.82 43.2434 211.847 42.6903C212.873 42.1371 214.005 41.8061 215.168 41.7187C217.963 41.8832 220.583 43.1352 222.468 45.2068C215.538 48.1174 209 51.3283 205.581 52.9915C206.1 50.0567 207.32 47.2907 209.139 44.9296H209.208ZM202.486 109.61C202.486 106.122 202.486 102.68 202.486 99.3532C202.347 90.1132 202.232 81.3583 202.994 71.9566C203.239 71.8705 203.478 71.7703 203.71 71.6563C203.828 71.5949 203.933 71.5105 204.018 71.4079C204.102 71.3054 204.166 71.1869 204.204 71.0594C204.242 70.932 204.254 70.7982 204.239 70.666C204.225 70.5338 204.184 70.4058 204.119 70.2898C204.054 70.1737 203.966 70.0719 203.861 69.9904C203.756 69.9088 203.635 69.8492 203.507 69.8151C203.378 69.781 203.244 69.773 203.112 69.7917C202.981 69.8103 202.854 69.8553 202.74 69.9238C202.401 70.0979 202.045 70.2372 201.678 70.3396C200.925 70.6377 200.103 70.7135 199.308 70.5579C198.514 70.4023 197.781 70.0218 197.196 69.4618C196.157 68.0989 196.873 63.8716 198.836 62.0236C199.945 60.9841 201.146 61.0534 202.509 62.2315C203.204 62.8538 203.811 63.569 204.311 64.3567C204.385 64.4647 204.48 64.557 204.59 64.6283C204.699 64.6996 204.822 64.7485 204.951 64.7721C205.08 64.7957 205.212 64.7936 205.34 64.7659C205.468 64.7382 205.589 64.6855 205.697 64.6108C205.807 64.5386 205.901 64.4452 205.975 64.3362C206.048 64.2272 206.099 64.1047 206.125 63.9757C206.151 63.8468 206.151 63.714 206.125 63.5851C206.099 63.4562 206.048 63.3338 205.974 63.2248C205.483 62.4984 204.918 61.8249 204.288 61.2151V60.9148C204.519 59.2747 204.773 57.4036 205.119 55.5094L206.321 54.9319C209.763 53.2456 216.831 49.8037 224.038 46.7776C225.165 48.0558 226.206 49.4062 227.157 50.8201C230.55 55.6613 233.154 61.0099 234.872 66.6667C236.882 74.4976 225.471 91.7764 222.976 92.7928C222.652 92.9097 222.32 93.0024 221.982 93.07C217.732 93.8785 212.073 89.8822 210.201 86.14C210.15 86.0194 210.074 85.9109 209.978 85.8214C209.882 85.7318 209.768 85.6631 209.645 85.6197C209.521 85.5762 209.389 85.559 209.259 85.569C209.128 85.5791 209 85.6162 208.885 85.678C208.763 85.7322 208.655 85.8107 208.565 85.9087C208.475 86.0067 208.406 86.122 208.363 86.2477C208.32 86.3733 208.303 86.5065 208.313 86.6389C208.323 86.7714 208.361 86.9004 208.423 87.0178C209.638 89.321 211.414 91.2814 213.585 92.7184C215.757 94.1555 218.256 95.0231 220.851 95.2414H221.382C221.959 97.7824 222.468 100.323 222.976 103.026C223.368 105.105 223.784 107.346 224.292 109.656C217.031 108.738 209.685 108.707 202.417 109.563L202.486 109.61ZM209.231 202.356C210.06 202.453 210.892 202.507 211.726 202.518C221.359 202.518 224.246 196.512 224.385 196.235C224.634 195.761 224.747 195.226 224.71 194.692C224.674 194.158 224.489 193.644 224.177 193.208C224.055 193.061 223.916 192.929 223.761 192.816C224.48 191.991 224.867 190.929 224.847 189.836C224.804 189.387 224.671 188.951 224.457 188.555C224.243 188.158 223.951 187.808 223.599 187.526C223.939 187.073 224.142 186.531 224.183 185.966C224.224 185.401 224.101 184.836 223.83 184.338C222.491 182.19 219.95 183.276 217.478 184.338C216.641 184.721 215.785 185.06 214.914 185.355L229.19 142.874H253.653L231.407 212.174L204.935 214.83L209.231 202.356ZM220.643 420.743H169.268V418.711L220.573 418.48L220.643 420.743ZM220.643 418.226C221.092 416.043 220.67 413.771 219.465 411.896C217.888 410.193 215.708 409.173 213.389 409.055C206.193 407.802 199.199 405.58 192.599 402.448C191.421 401.94 190.474 401.524 189.827 401.293L190.543 399.422C194.979 385.331 199.991 368.884 204.542 351.374C204.681 365.234 204.819 377.639 204.935 387.156C204.935 392.423 204.935 396.812 205.096 400.046C205.096 401.085 205.096 403.696 205.096 405.151C207.832 406.056 210.647 406.698 213.505 407.068C214.921 407.145 216.307 407.506 217.581 408.129C218.854 408.752 219.99 409.624 220.92 410.695C221.687 411.775 222.226 412.999 222.504 414.294C222.782 415.589 222.793 416.926 222.537 418.226H220.643ZM257.995 418.457V420.767H222.652V418.457H257.995ZM254.6 239.039C253.075 305.706 237.69 362.139 226.117 398.983H207.129C207.129 395.865 207.129 391.869 206.991 387.087C206.852 375.906 206.667 360.73 206.529 344.005C214.452 312.035 218.702 283.945 219.488 257.842C219.494 257.713 219.474 257.584 219.43 257.462C219.385 257.341 219.317 257.229 219.228 257.134C219.14 257.04 219.034 256.964 218.916 256.911C218.798 256.858 218.67 256.829 218.541 256.826C218.408 256.82 218.276 256.84 218.152 256.886C218.027 256.931 217.913 257.002 217.816 257.092C217.72 257.182 217.642 257.291 217.588 257.412C217.533 257.533 217.504 257.664 217.501 257.796C216.24 286.826 211.896 315.64 204.542 343.751C199.529 363.987 193.708 383.021 188.718 398.983H169.13V393.809C168.829 364.518 168.252 310.141 168.414 265.234C178.347 262.231 183.891 255.301 183.613 246.131C183.613 245.867 183.509 245.615 183.322 245.428C183.136 245.242 182.883 245.137 182.62 245.137C182.357 245.137 182.104 245.242 181.918 245.428C181.731 245.615 181.627 245.867 181.627 246.131C181.927 257.057 173.311 261.469 168.437 263.086C168.437 254.724 168.437 246.662 168.621 239.131L254.553 238.923L254.6 239.039ZM254.6 219.45L233.394 212.52L255.524 143.613C255.546 143.483 255.546 143.35 255.524 143.22L277.03 150.912L254.6 219.45ZM291.098 185.285C291.844 186.301 292.436 187.422 292.853 188.612C293.704 190.716 293.704 193.068 292.853 195.172C292.196 196.767 291.115 198.151 289.726 199.173C288.337 200.195 286.694 200.817 284.976 200.97C283.528 201.088 282.07 200.931 280.68 200.508C278.27 199.911 276.052 198.711 274.235 197.02C274.137 196.818 274.086 196.597 274.086 196.373C274.086 196.149 274.137 195.928 274.235 195.726C274.674 196.072 275.146 196.374 275.644 196.627C278.722 198.043 282.052 198.828 285.438 198.937C285.71 198.944 285.973 198.843 286.172 198.657C286.371 198.472 286.489 198.216 286.501 197.944C286.495 197.678 286.385 197.426 286.195 197.24C286.005 197.055 285.75 196.951 285.484 196.951C282.412 196.872 279.383 196.197 276.568 194.964C276.144 194.698 275.749 194.389 275.39 194.04C274.512 193.278 274.188 192.608 274.258 192.284C274.327 191.961 274.581 191.822 275.043 191.615C278.005 193.414 281.375 194.432 284.838 194.571C285.507 194.581 286.175 194.504 286.824 194.34C286.953 194.313 287.076 194.26 287.184 194.185C287.292 194.109 287.383 194.012 287.453 193.899C287.522 193.787 287.567 193.661 287.586 193.531C287.605 193.4 287.598 193.267 287.563 193.139C287.493 192.884 287.325 192.666 287.097 192.532C286.868 192.399 286.596 192.359 286.339 192.423C282.587 192.743 278.839 191.773 275.713 189.674C274.65 188.912 274.512 188.45 274.535 188.381C274.558 188.311 274.789 187.988 274.858 187.965C275.621 187.595 277.677 188.427 279.317 189.097C281.176 190.102 283.285 190.551 285.392 190.39C285.879 190.262 286.32 189.997 286.662 189.628C286.755 189.536 286.829 189.426 286.879 189.305C286.93 189.184 286.956 189.054 286.956 188.923C286.956 188.792 286.93 188.663 286.879 188.542C286.829 188.421 286.755 188.311 286.662 188.219L288.649 183.021L288.949 183.252C289.728 183.855 290.42 184.563 291.005 185.355L291.098 185.285ZM284.422 188.45C282.92 188.288 281.459 187.865 280.102 187.202C277.792 186.279 275.482 185.401 274.027 186.14C273.65 186.314 273.323 186.58 273.076 186.912C272.828 187.245 272.667 187.634 272.607 188.045C272.547 188.455 272.591 188.874 272.734 189.264C272.877 189.653 273.115 190 273.426 190.275C272.864 190.642 272.466 191.214 272.317 191.869C272.275 192.28 272.314 192.696 272.433 193.093C272.552 193.489 272.748 193.858 273.01 194.179L272.849 194.34C272.497 194.807 272.275 195.359 272.206 195.939C272.137 196.519 272.223 197.108 272.456 197.644C272.964 198.96 276.036 200.924 279.224 202.01L274.212 215.177L256.632 219.45L278.993 151.19L300.222 146.87L284.422 188.45Z" fill="#ADA9A9"/>
<path d="M306.875 75.3291H267.19C265.567 75.2537 263.981 75.8237 262.777 76.9146C261.574 78.0054 260.852 79.5283 260.768 81.1503V116.563C260.803 117.37 260.998 118.162 261.34 118.894C261.682 119.626 262.165 120.283 262.762 120.828C263.358 121.373 264.056 121.795 264.816 122.07C265.576 122.345 266.383 122.467 267.19 122.43H294.494C294.656 131.416 295.857 132.017 296.504 132.34C296.707 132.432 296.927 132.479 297.15 132.479C297.53 132.462 297.894 132.324 298.19 132.086C299.668 130.954 300.939 127.674 302.001 122.43H306.875C308.498 122.505 310.084 121.935 311.288 120.845C312.491 119.754 313.214 118.231 313.297 116.609V81.1503C313.214 79.5283 312.491 78.0054 311.288 76.9146C310.084 75.8237 308.498 75.2537 306.875 75.3291ZM311.288 116.563C311.205 117.654 310.695 118.668 309.869 119.386C309.043 120.104 307.967 120.467 306.875 120.397H302.371C302.556 119.358 302.648 118.688 302.648 118.688C302.668 118.557 302.661 118.424 302.628 118.296C302.596 118.168 302.538 118.048 302.458 117.942C302.379 117.837 302.279 117.749 302.165 117.682C302.051 117.616 301.924 117.573 301.793 117.556C301.531 117.523 301.265 117.594 301.054 117.753C300.842 117.913 300.702 118.149 300.662 118.411C300.662 118.411 300.523 119.566 300.2 121.16C299.83 124.32 298.833 127.375 297.266 130.145C296.588 127.28 296.323 124.331 296.48 121.391C296.48 118.711 296.48 116.54 296.48 116.54C296.487 116.274 296.389 116.016 296.207 115.822C296.026 115.628 295.776 115.512 295.51 115.5C295.248 115.505 294.996 115.607 294.804 115.786C294.612 115.965 294.494 116.209 294.471 116.47C294.471 116.47 294.471 118.157 294.471 120.397H267.19C266.096 120.473 265.017 120.112 264.19 119.393C263.362 118.674 262.854 117.656 262.778 116.563V81.1503C262.86 80.061 263.371 79.0488 264.197 78.3346C265.024 77.6205 266.1 77.2625 267.19 77.3388H306.875C307.964 77.2686 309.036 77.6287 309.861 78.3417C310.687 79.0547 311.199 80.0633 311.288 81.1503V116.563Z" fill="#ADA9A9"/>
<path d="M151.782 180.18C151.782 180.18 151.782 179.972 151.782 179.856V180.087C151.782 180.087 151.759 180.18 151.782 180.18Z" fill="#ADA9A9"/>
<path d="M193.062 400.439C197.014 402.206 201.063 403.749 205.189 405.059C201.189 403.734 197.263 402.192 193.431 400.439L190.59 399.237L193.062 400.439Z" fill="#ADA9A9"/>
<path d="M271.748 90.35C276.953 82.4717 283.831 87.0674 286.62 90.35C295.915 82.4717 303.351 90.35 302.421 97.2435C301.678 102.758 290.958 110.046 285.69 113C278.874 108.733 266.543 98.2282 271.748 90.35Z" fill="#FFC13E"/>
<defs>
<filter id="filter0_f_117_10101" x="63.5" y="384" width="283" height="77" filterUnits="userSpaceOnUse" color-interpolation-filters="sRGB">
<feFlood flood-opacity="0" result="BackgroundImageFix"/>
<feBlend mode="normal" in="SourceGraphic" in2="BackgroundImageFix" result="shape"/>
<feGaussianBlur stdDeviation="12" result="effect1_foregroundBlur_117_10101"/>
</filter>
</defs>
</svg>
