<svg width="209" height="243" viewBox="0 0 209 243" fill="none" xmlns="http://www.w3.org/2000/svg">
<path d="M91.6134 206.893L95.8154 205.337L99.4871 215.252C99.9237 216.431 100.019 217.556 99.7741 218.626C99.532 219.69 98.9963 220.642 98.1672 221.482C97.3362 222.316 96.2582 222.979 94.9331 223.47C93.5979 223.964 92.3432 224.165 91.1689 224.073C89.9927 223.976 88.9664 223.602 88.09 222.953C87.2167 222.297 86.5618 221.379 86.1253 220.2L82.4536 210.284L86.6556 208.728L90.193 218.281C90.3702 218.76 90.6346 219.149 90.9861 219.448C91.3358 219.743 91.7362 219.927 92.1874 220C92.6437 220.072 93.1111 220.019 93.5898 219.842C94.0735 219.663 94.4625 219.399 94.757 219.049C95.0515 218.699 95.2355 218.299 95.3091 217.848C95.3808 217.391 95.328 216.924 95.1507 216.445L91.6134 206.893ZM102.015 203.041L107.746 218.519L103.544 220.075L97.8125 204.597L102.015 203.041ZM119.933 214.006L113.977 216.212L108.246 200.734L114.141 198.551C115.733 197.961 117.223 197.762 118.611 197.952C120.003 198.136 121.228 198.691 122.287 199.616C123.349 200.535 124.179 201.801 124.776 203.413C125.373 205.025 125.571 206.527 125.37 207.919C125.168 209.306 124.604 210.523 123.68 211.57C122.754 212.612 121.505 213.424 119.933 214.006ZM116.858 211.088L118.461 210.495C119.226 210.212 119.833 209.847 120.281 209.4C120.734 208.952 120.989 208.373 121.047 207.664C121.111 206.953 120.943 206.058 120.543 204.98C120.144 203.902 119.686 203.115 119.17 202.618C118.659 202.12 118.078 201.851 117.428 201.811C116.782 201.769 116.056 201.898 115.25 202.196L113.769 202.745L116.858 211.088ZM135.287 208.561C134.047 209.02 132.892 209.179 131.819 209.038C130.75 208.889 129.809 208.459 128.995 207.746C128.184 207.026 127.547 206.042 127.085 204.792C126.641 203.593 126.494 202.456 126.646 201.38C126.798 200.304 127.222 199.353 127.919 198.528C128.616 197.702 129.564 197.068 130.763 196.624C131.64 196.299 132.484 196.141 133.295 196.15C134.106 196.159 134.86 196.33 135.556 196.662C136.25 196.99 136.869 197.471 137.414 198.106C137.958 198.741 138.401 199.519 138.742 200.441L139.101 201.408L128.732 205.248L127.881 202.951L134.411 200.533C134.282 200.202 134.089 199.941 133.829 199.751C133.573 199.554 133.28 199.436 132.95 199.398C132.624 199.352 132.287 199.394 131.94 199.523C131.602 199.648 131.319 199.835 131.091 200.086C130.861 200.332 130.707 200.612 130.629 200.927C130.556 201.241 130.577 201.568 130.692 201.91L131.61 204.388C131.748 204.761 131.95 205.065 132.214 205.299C132.478 205.534 132.787 205.68 133.141 205.738C133.495 205.796 133.878 205.749 134.292 205.596C134.579 205.489 134.826 205.352 135.033 205.184C135.245 205.013 135.409 204.821 135.524 204.606C135.637 204.387 135.694 204.154 135.695 203.907L139.504 202.497C139.671 203.351 139.621 204.167 139.352 204.942C139.082 205.712 138.604 206.411 137.919 207.037C137.237 207.656 136.36 208.164 135.287 208.561ZM150.306 193.856L146.466 195.278C146.359 195.048 146.2 194.875 145.99 194.758C145.781 194.641 145.543 194.58 145.278 194.575C145.016 194.563 144.746 194.609 144.469 194.711C144.111 194.844 143.828 195.023 143.62 195.249C143.411 195.475 143.354 195.708 143.449 195.948C143.507 196.121 143.639 196.253 143.845 196.343C144.055 196.432 144.397 196.434 144.87 196.35L147.384 195.9C148.654 195.677 149.673 195.715 150.443 196.014C151.216 196.306 151.763 196.88 152.086 197.735C152.387 198.563 152.406 199.372 152.143 200.163C151.883 200.947 151.394 201.66 150.675 202.305C149.96 202.942 149.066 203.459 147.993 203.856C146.219 204.513 144.697 204.664 143.426 204.31C142.16 203.954 141.248 203.203 140.692 202.057L144.834 200.523C145.025 200.87 145.312 201.088 145.694 201.176C146.079 201.256 146.509 201.209 146.982 201.034C147.365 200.892 147.656 200.71 147.854 200.488C148.058 200.263 148.117 200.029 148.032 199.786C147.945 199.566 147.769 199.43 147.504 199.38C147.244 199.327 146.872 199.344 146.389 199.432L144.199 199.83C142.938 200.062 141.906 199.997 141.102 199.636C140.298 199.275 139.73 198.638 139.397 197.724C139.093 196.919 139.052 196.158 139.273 195.441C139.498 194.716 139.956 194.059 140.649 193.47C141.345 192.874 142.245 192.372 143.349 191.964C145.026 191.342 146.478 191.2 147.702 191.537C148.932 191.872 149.8 192.645 150.306 193.856ZM155.106 200.982L150.807 189.374L154.979 187.829L159.278 199.437L155.106 200.982ZM152.445 187.392C151.881 187.601 151.328 187.594 150.787 187.37C150.246 187.146 149.878 186.773 149.684 186.249C149.49 185.725 149.526 185.202 149.791 184.679C150.056 184.157 150.471 183.792 151.035 183.583C151.604 183.372 152.157 183.379 152.693 183.605C153.234 183.828 153.602 184.202 153.796 184.726C153.99 185.25 153.954 185.773 153.689 186.295C153.429 186.816 153.015 187.181 152.445 187.392ZM168.697 201.174C167.533 201.605 166.474 201.808 165.52 201.784C164.572 201.762 163.762 201.547 163.089 201.137C162.423 200.73 161.924 200.165 161.592 199.439L165.613 197.951C165.745 198.183 165.919 198.344 166.136 198.436C166.354 198.527 166.6 198.559 166.876 198.531C167.159 198.507 167.46 198.436 167.777 198.318C168.316 198.118 168.714 197.822 168.969 197.43C169.23 197.035 169.233 196.495 168.98 195.81L168.252 193.845L168.131 193.89C168.126 194.339 168.018 194.76 167.808 195.153C167.596 195.54 167.299 195.888 166.914 196.197C166.528 196.5 166.073 196.749 165.549 196.943C164.723 197.249 163.891 197.339 163.054 197.214C162.222 197.086 161.443 196.685 160.717 196.008C159.996 195.33 159.387 194.32 158.891 192.98C158.372 191.58 158.167 190.361 158.276 189.324C158.39 188.285 158.716 187.433 159.255 186.769C159.8 186.104 160.455 185.629 161.22 185.346C161.795 185.133 162.336 185.047 162.844 185.088C163.35 185.124 163.811 185.255 164.226 185.479C164.639 185.698 164.995 185.976 165.291 186.313L165.382 186.28L164.632 184.254L168.804 182.71L173.091 194.288C173.455 195.27 173.509 196.198 173.254 197.072C173.006 197.949 172.49 198.738 171.708 199.441C170.925 200.143 169.922 200.721 168.697 201.174ZM165.994 193.41C166.377 193.268 166.665 193.041 166.859 192.728C167.056 192.409 167.154 192.023 167.152 191.571C167.154 191.112 167.051 190.6 166.842 190.036C166.629 189.462 166.372 188.999 166.069 188.646C165.77 188.287 165.442 188.051 165.085 187.937C164.73 187.816 164.362 187.826 163.979 187.968C163.596 188.11 163.31 188.342 163.12 188.664C162.933 188.98 162.843 189.371 162.85 189.839C162.86 190.299 162.971 190.816 163.184 191.391C163.396 191.965 163.648 192.428 163.938 192.778C164.232 193.122 164.551 193.351 164.897 193.463C165.245 193.569 165.611 193.551 165.994 193.41ZM176.978 185.458L179.396 191.988L175.224 193.532L170.926 181.924L174.886 180.457L175.703 182.664L175.824 182.619C175.803 181.791 176.033 181.049 176.513 180.396C176.998 179.741 177.666 179.256 178.518 178.941C179.339 178.636 180.122 178.561 180.867 178.715C181.614 178.863 182.276 179.202 182.851 179.734C183.431 180.264 183.874 180.95 184.181 181.794L186.923 189.2L182.751 190.745L180.334 184.215C180.126 183.639 179.813 183.242 179.394 183.025C178.981 182.805 178.512 182.793 177.988 182.987C177.645 183.114 177.374 183.3 177.173 183.547C176.975 183.786 176.859 184.069 176.826 184.397C176.79 184.719 176.841 185.073 176.978 185.458Z" fill="white"/>
<rect x="61.8072" y="205.627" width="141.361" height="39.0848" rx="19.5424" transform="rotate(-20.3192 61.8072 205.627)" stroke="#FFC13E" stroke-width="0.709202"/>
<path d="M20.5443 150.186L23.5713 134.371L34.6913 136.499L34.0291 139.959L27.2027 138.652L26.6824 141.371L32.8293 142.547L32.1672 146.007L26.0203 144.83L24.8379 151.008L20.5443 150.186ZM33.0504 152.58L35.3207 140.718L39.4598 141.511L39.0282 143.766L39.1517 143.789C39.5276 142.997 39.9867 142.452 40.5291 142.156C41.0766 141.86 41.667 141.773 42.3002 141.894C42.4856 141.93 42.6654 141.98 42.8396 142.046C43.02 142.107 43.1903 142.179 43.3503 142.263L42.6541 145.901C42.4569 145.788 42.2072 145.684 41.9052 145.589C41.6033 145.494 41.3416 145.425 41.1202 145.383C40.7032 145.303 40.3092 145.326 39.9381 145.453C39.5731 145.575 39.2629 145.788 39.0074 146.091C38.7528 146.389 38.5822 146.765 38.4955 147.218L37.3131 153.396L33.0504 152.58ZM47.4728 155.564C46.1857 155.318 45.1328 154.852 44.314 154.167C43.4961 153.477 42.9304 152.627 42.6167 151.617C42.304 150.602 42.2639 149.487 42.4965 148.272C42.729 147.057 43.1775 146.038 43.842 145.215C44.5074 144.387 45.3471 143.806 46.361 143.472C47.3759 143.133 48.5269 143.086 49.8139 143.332C51.101 143.579 52.1534 144.047 52.9712 144.737C53.7901 145.422 54.3558 146.272 54.6685 147.287C54.9822 148.297 55.0228 149.41 54.7902 150.625C54.5577 151.84 54.1087 152.861 53.4433 153.689C52.7788 154.512 51.9391 155.093 50.9242 155.432C49.9103 155.767 48.7598 155.811 47.4728 155.564ZM48.1067 152.42C48.4671 152.489 48.8017 152.427 49.1105 152.235C49.4194 152.044 49.6888 151.738 49.9186 151.317C50.1485 150.897 50.3226 150.378 50.4408 149.76C50.56 149.137 50.59 148.591 50.5305 148.12C50.4721 147.645 50.3348 147.261 50.1185 146.969C49.9023 146.677 49.614 146.496 49.2536 146.427C48.8727 146.354 48.5226 146.413 48.2034 146.602C47.8843 146.792 47.6098 147.097 47.3799 147.517C47.151 147.933 46.9769 148.452 46.8577 149.075C46.7395 149.692 46.7096 150.239 46.768 150.714C46.8264 151.19 46.9689 151.575 47.1954 151.869C47.422 152.163 47.7257 152.347 48.1067 152.42ZM60.9305 151L59.6535 157.672L55.3908 156.856L57.661 144.994L61.7075 145.769L61.2759 148.024L61.3995 148.047C61.8007 147.345 62.3666 146.842 63.097 146.539C63.8326 146.237 64.6354 146.169 65.5055 146.336C66.3446 146.496 67.0361 146.829 67.58 147.333C68.13 147.833 68.5109 148.451 68.7226 149.185C68.9394 149.92 68.963 150.717 68.7933 151.576L67.3448 159.144L63.0821 158.328L64.3591 151.656C64.4766 151.07 64.4155 150.581 64.1758 150.188C63.9413 149.796 63.5563 149.549 63.0209 149.446C62.6708 149.379 62.3497 149.398 62.0576 149.502C61.7716 149.602 61.532 149.781 61.3388 150.037C61.1466 150.288 61.0105 150.609 60.9305 151ZM78.7929 149.039L78.2017 152.128L70.3868 150.632L70.978 147.543L78.7929 149.039ZM73.0355 144.991L77.2981 145.807L75.2141 156.695C75.1826 156.86 75.1843 157.004 75.2193 157.129C75.2552 157.248 75.327 157.347 75.4345 157.426C75.5431 157.5 75.69 157.555 75.8754 157.59C76.0041 157.615 76.1563 157.628 76.3321 157.63C76.5131 157.632 76.6467 157.631 76.733 157.626L76.7773 160.741C76.576 160.761 76.2898 160.778 75.9189 160.793C75.553 160.808 75.1257 160.782 74.6368 160.715C73.6488 160.58 72.8469 160.322 72.2311 159.943C71.6162 159.558 71.1942 159.059 70.965 158.444C70.7358 157.829 70.7057 157.108 70.8746 156.281L73.0355 144.991ZM83.7768 162.513C82.5104 162.27 81.4653 161.82 80.6416 161.16C79.8239 160.497 79.2552 159.662 78.9354 158.656C78.6217 157.646 78.5871 156.503 78.8314 155.226C79.0659 154.001 79.518 152.977 80.1876 152.156C80.8572 151.334 81.6913 150.754 82.6897 150.417C83.6882 150.08 84.8001 150.029 86.0253 150.263C86.9211 150.435 87.7054 150.729 88.378 151.146C89.0507 151.563 89.5937 152.085 90.007 152.714C90.4214 153.338 90.6956 154.052 90.8297 154.857C90.9639 155.662 90.9408 156.535 90.7604 157.477L90.5713 158.466L79.9764 156.438L80.4257 154.09L87.0977 155.367C87.1576 155.027 87.1272 154.711 87.0066 154.421C86.8921 154.127 86.7071 153.881 86.4515 153.683C86.2021 153.48 85.8998 153.345 85.5445 153.277C85.1996 153.211 84.8687 153.225 84.5519 153.319C84.236 153.408 83.9659 153.565 83.7416 153.789C83.5224 154.013 83.3747 154.297 83.2984 154.64L82.8136 157.173C82.7407 157.554 82.7554 157.909 82.8579 158.238C82.9603 158.567 83.1446 158.846 83.4106 159.073C83.6767 159.3 84.0208 159.454 84.443 159.534C84.7364 159.591 85.012 159.601 85.2697 159.565C85.5326 159.529 85.7664 159.451 85.9709 159.331C86.1765 159.204 86.3417 159.039 86.4664 158.833L90.3584 159.578C90.0669 160.376 89.6134 161.031 88.9977 161.543C88.3831 162.05 87.6319 162.391 86.7441 162.568C85.8625 162.741 84.8734 162.723 83.7768 162.513ZM96.9044 157.885L95.6274 164.557L91.3648 163.741L93.635 151.88L97.6814 152.654L97.2498 154.909L97.3734 154.933C97.7747 154.23 98.3405 153.728 99.071 153.424C99.8066 153.122 100.609 153.054 101.479 153.221C102.319 153.382 103.01 153.714 103.554 154.218C104.104 154.719 104.485 155.336 104.697 156.07C104.913 156.805 104.937 157.602 104.767 158.461L103.319 166.029L99.0561 165.213L100.333 158.541C100.451 157.955 100.389 157.466 100.15 157.073C99.9152 156.681 99.5302 156.434 98.9948 156.332C98.6448 156.265 98.3237 156.283 98.0316 156.388C97.7456 156.488 97.506 156.666 97.3128 156.922C97.1206 157.174 96.9845 157.495 96.9044 157.885ZM109.687 167.408C108.843 167.246 108.108 166.876 107.482 166.297C106.861 165.72 106.424 164.94 106.169 163.957C105.919 162.975 105.925 161.8 106.188 160.43C106.461 158.999 106.905 157.878 107.52 157.067C108.139 156.257 108.841 155.711 109.626 155.429C110.417 155.148 111.203 155.082 111.986 155.232C112.572 155.344 113.068 155.546 113.471 155.836C113.875 156.122 114.194 156.463 114.428 156.86C114.662 157.252 114.818 157.663 114.896 158.094L114.958 158.106L116.11 152.083L120.373 152.899L117.346 168.714L113.114 167.904L113.487 165.958L113.394 165.94C113.153 166.31 112.847 166.625 112.477 166.885C112.113 167.141 111.695 167.32 111.221 167.421C110.755 167.519 110.243 167.514 109.687 167.408ZM111.889 164.435C112.28 164.51 112.637 164.461 112.958 164.288C113.285 164.11 113.564 163.827 113.793 163.439C114.028 163.046 114.201 162.562 114.311 161.985C114.424 161.398 114.442 160.881 114.368 160.435C114.299 159.984 114.145 159.621 113.904 159.345C113.669 159.066 113.356 158.888 112.965 158.813C112.574 158.739 112.217 158.788 111.896 158.961C111.581 159.13 111.308 159.412 111.078 159.805C110.854 160.195 110.686 160.683 110.574 161.27C110.461 161.857 110.437 162.375 110.5 162.825C110.57 163.27 110.719 163.632 110.949 163.911C111.184 164.186 111.498 164.36 111.889 164.435Z" fill="white"/>
<rect x="8.78561" y="119.534" width="133.547" height="38.7898" rx="19.3949" transform="rotate(10.8352 8.78561 119.534)" stroke="#54BE77" stroke-width="0.69189"/>
<rect width="69.2525" height="33.2525" transform="translate(122.701 104.688) rotate(-3.76052)" fill="#2938EA"/>
<path d="M129.838 128.898L128.805 113.184L130.708 113.059L131.168 120.057L139.546 119.506L139.086 112.509L140.989 112.384L142.022 128.097L140.119 128.223L139.657 121.194L131.279 121.745L131.741 128.773L129.838 128.898ZM144.05 113.878L143.939 112.19L155.725 111.415L155.836 113.103L150.894 113.428L151.816 127.454L149.913 127.579L148.992 113.553L144.05 113.878ZM158.662 111.222L160.933 111.073L167.13 123.765L167.314 123.753L171.797 110.359L174.068 110.209L175.101 125.923L173.321 126.04L172.537 114.101L172.383 114.111L168.257 126.373L166.538 126.486L160.843 114.87L160.69 114.88L161.474 126.819L159.694 126.936L158.662 111.222ZM178.917 125.672L177.884 109.959L179.787 109.834L180.709 123.859L188.013 123.379L188.124 125.067L178.917 125.672Z" fill="white"/>
<rect width="51.2525" height="33.2525" transform="translate(7.65051 201.5) rotate(-31.1653)" fill="#2938EA"/>
<path d="M30.3698 203.887L28.738 204.874C28.3577 204.463 27.9394 204.152 27.4833 203.943C27.0315 203.731 26.5616 203.608 26.0736 203.573C25.5873 203.532 25.1008 203.575 24.6142 203.701C24.1276 203.828 23.6606 204.026 23.2132 204.297C22.3973 204.79 21.7829 205.444 21.3699 206.256C20.9613 207.067 20.8046 207.991 20.8997 209.03C20.9991 210.066 21.4017 211.168 22.1074 212.334C22.813 213.501 23.6016 214.369 24.4731 214.939C25.3489 215.505 26.2405 215.796 27.1479 215.81C28.0596 215.822 28.9234 215.581 29.7392 215.088C30.1867 214.817 30.5794 214.496 30.9174 214.123C31.2555 213.751 31.5204 213.342 31.7122 212.897C31.9058 212.444 32.0136 211.969 32.0356 211.47C32.0593 210.965 31.9788 210.45 31.7941 209.927L33.4259 208.94C33.7195 209.703 33.8686 210.454 33.8729 211.195C33.8773 211.935 33.7536 212.642 33.5019 213.315C33.2475 213.984 32.8796 214.599 32.398 215.16C31.9209 215.718 31.3423 216.203 30.6624 216.614C29.5132 217.309 28.3214 217.646 27.087 217.626C25.8526 217.606 24.6658 217.233 23.5265 216.509C22.3872 215.784 21.3878 214.711 20.5283 213.29C19.6687 211.868 19.1825 210.485 19.0697 209.139C18.9568 207.794 19.178 206.57 19.7332 205.467C20.2885 204.364 21.1408 203.466 22.29 202.771C22.9699 202.359 23.6678 202.072 24.3837 201.909C25.104 201.743 25.8208 201.704 26.5341 201.794C27.2448 201.88 27.9269 202.096 28.5804 202.444C29.2313 202.787 29.8278 203.268 30.3698 203.887ZM39.8663 196.993C39.3841 196.374 38.7509 196.05 37.9666 196.021C37.1823 195.992 36.3822 196.225 35.5663 196.718C34.9698 197.079 34.5062 197.491 34.1755 197.955C33.8492 198.416 33.6631 198.89 33.6174 199.379C33.576 199.866 33.6853 200.324 33.9453 200.754C34.1629 201.113 34.4354 201.371 34.763 201.526C35.0923 201.675 35.4447 201.752 35.8201 201.759C36.1929 201.761 36.5616 201.727 36.9262 201.656C37.2881 201.581 37.614 201.5 37.9038 201.415L39.4952 200.956C39.9018 200.836 40.3691 200.727 40.8972 200.629C41.4296 200.529 41.9781 200.5 42.5426 200.542C43.1089 200.576 43.6528 200.733 44.1742 201.011C44.6956 201.288 45.1474 201.743 45.5294 202.375C45.9697 203.103 46.1769 203.876 46.1507 204.695C46.129 205.511 45.8588 206.312 45.3403 207.099C44.8261 207.883 44.0514 208.588 43.0162 209.214C42.0512 209.798 41.1214 210.148 40.2269 210.263C39.3367 210.376 38.5214 210.276 37.7809 209.963C37.0448 209.648 36.4276 209.137 35.9293 208.432L37.6137 207.414C37.9653 207.896 38.391 208.213 38.8909 208.366C39.3925 208.512 39.9227 208.527 40.4814 208.411C41.0419 208.288 41.5897 208.064 42.1248 207.741C42.7477 207.364 43.246 206.925 43.6196 206.423C43.9906 205.917 44.2107 205.395 44.28 204.856C44.3467 204.312 44.2315 203.795 43.9343 203.303C43.6638 202.856 43.3186 202.567 42.8987 202.438C42.4789 202.308 42.012 202.279 41.498 202.351C40.9839 202.422 40.4502 202.535 39.8969 202.69L37.9523 203.219C36.7166 203.553 35.6218 203.625 34.6682 203.435C33.7145 203.245 32.9631 202.696 32.414 201.788C31.9577 201.033 31.7637 200.252 31.8321 199.444C31.9022 198.629 32.1896 197.856 32.6943 197.125C33.2007 196.387 33.8838 195.759 34.7435 195.239C35.612 194.713 36.4782 194.402 37.3421 194.305C38.2033 194.204 38.9931 194.301 39.7115 194.597C40.4343 194.891 41.0123 195.371 41.4454 196.038L39.8663 196.993ZM51.6816 189.847C51.1994 189.228 50.5662 188.904 49.7819 188.875C48.9976 188.846 48.1975 189.079 47.3816 189.572C46.7851 189.933 46.3215 190.345 45.9908 190.809C45.6645 191.27 45.4785 191.745 45.4327 192.234C45.3913 192.72 45.5006 193.178 45.7606 193.608C45.9782 193.968 46.2507 194.225 46.5783 194.38C46.9076 194.529 47.26 194.606 47.6354 194.613C48.0082 194.615 48.3769 194.581 48.7415 194.51C49.1034 194.435 49.4293 194.355 49.7191 194.269L51.3105 193.81C51.7171 193.69 52.1845 193.581 52.7125 193.483C53.2449 193.383 53.7934 193.354 54.3579 193.396C54.9242 193.431 55.4681 193.587 55.9895 193.865C56.5109 194.142 56.9627 194.597 57.3447 195.229C57.7851 195.957 57.9922 196.73 57.966 197.549C57.9443 198.365 57.6741 199.166 57.1556 199.953C56.6414 200.737 55.8667 201.442 54.8315 202.069C53.8665 202.652 52.9367 203.002 52.0422 203.118C51.152 203.231 50.3367 203.131 49.5962 202.818C48.8601 202.502 48.2429 201.992 47.7446 201.286L49.429 200.268C49.7806 200.75 50.2063 201.068 50.7062 201.221C51.2079 201.367 51.738 201.381 52.2968 201.265C52.8572 201.142 53.405 200.918 53.9402 200.595C54.563 200.218 55.0613 199.779 55.4349 199.277C55.8059 198.771 56.026 198.249 56.0953 197.71C56.162 197.166 56.0468 196.649 55.7497 196.157C55.4791 195.71 55.1339 195.422 54.7141 195.292C54.2942 195.163 53.8273 195.133 53.3133 195.205C52.7992 195.276 52.2655 195.389 51.7122 195.544L49.7677 196.073C48.5319 196.407 47.4371 196.479 46.4835 196.289C45.5298 196.099 44.7784 195.55 44.2293 194.642C43.773 193.887 43.579 193.106 43.6474 192.298C43.7175 191.483 44.0049 190.71 44.5096 189.979C45.016 189.242 45.6991 188.613 46.5588 188.093C47.4273 187.568 48.2935 187.256 49.1574 187.159C50.0186 187.058 50.8084 187.155 51.5268 187.452C52.2496 187.745 52.8276 188.226 53.2607 188.892L51.6816 189.847Z" fill="white"/>
<rect width="115.252" height="33.2525" transform="translate(90.2891 31.5776) rotate(14.2549)" fill="#2938EA"/>
<path d="M99.3085 43.0296L101.157 43.4992L98.3849 54.4097C98.1375 55.3836 97.7484 56.1653 97.2178 56.7551C96.6871 57.3449 96.0516 57.7335 95.3111 57.9209C94.5706 58.1083 93.7582 58.0897 92.8738 57.865C92.0391 57.6529 91.3348 57.3127 90.761 56.8443C90.1884 56.3709 89.7877 55.8036 89.559 55.1426C89.3302 54.4815 89.315 53.7609 89.5131 52.9809L91.3316 53.4429C91.2218 53.8751 91.2326 54.2799 91.3642 54.6571C91.5021 55.0306 91.7371 55.3548 92.0692 55.6296C92.4014 55.9044 92.8084 56.103 93.2903 56.2254C93.822 56.3605 94.3025 56.3636 94.7319 56.2347C95.1614 56.1057 95.5279 55.8498 95.8314 55.4668C96.1413 55.08 96.3763 54.5712 96.5366 53.9402L99.3085 43.0296ZM104.045 60.7666C103.32 60.5823 102.696 60.2784 102.174 59.8549C101.654 59.4265 101.286 58.9073 101.07 58.2972C100.856 57.6822 100.844 57.0021 101.034 56.2568C101.2 55.601 101.464 55.1022 101.826 54.7604C102.189 54.4137 102.617 54.1785 103.108 54.0548C103.6 53.9311 104.121 53.8784 104.672 53.8966C105.229 53.9112 105.782 53.9512 106.331 54.0167C107.049 54.104 107.63 54.1802 108.074 54.2453C108.524 54.3067 108.863 54.3055 109.09 54.2417C109.323 54.1792 109.475 54.0063 109.547 53.7231L109.563 53.6635C109.749 52.9282 109.693 52.3057 109.394 51.7961C109.1 51.2877 108.548 50.9306 107.739 50.7249C106.899 50.5115 106.194 50.5281 105.624 50.7746C105.053 51.0211 104.618 51.3284 104.318 51.6965L102.8 50.6762C103.275 50.0563 103.81 49.6158 104.406 49.3545C105.007 49.0894 105.623 48.955 106.253 48.9512C106.89 48.9437 107.496 49.0132 108.073 49.1596C108.44 49.253 108.851 49.405 109.306 49.6156C109.766 49.8225 110.186 50.1169 110.565 50.4988C110.949 50.882 111.221 51.3822 111.382 51.9995C111.542 52.6168 111.507 53.38 111.276 54.2892L109.36 61.8312L107.601 61.3844L107.995 59.8343L107.905 59.8115C107.723 60.0297 107.457 60.245 107.107 60.4575C106.756 60.67 106.325 60.8169 105.812 60.8983C105.3 60.9796 104.711 60.9357 104.045 60.7666ZM104.715 59.2548C105.41 59.4315 106.031 59.4438 106.578 59.2917C107.129 59.1409 107.581 58.8803 107.935 58.5099C108.293 58.1408 108.533 57.7177 108.654 57.2408L109.063 55.631C108.965 55.7015 108.781 55.7418 108.508 55.752C108.242 55.7584 107.938 55.7473 107.596 55.7187C107.261 55.6863 106.934 55.6509 106.616 55.6123C106.304 55.5701 106.05 55.5375 105.855 55.5143C105.383 55.4578 104.931 55.4462 104.5 55.4793C104.074 55.5088 103.707 55.6242 103.396 55.8257C103.092 56.0235 102.883 56.3459 102.77 56.7931C102.614 57.4042 102.723 57.9237 103.096 58.3516C103.474 58.7757 104.014 59.0768 104.715 59.2548ZM124.429 53.4736L117.287 63.8453L115.499 63.3909L114.174 50.8683L116.082 51.353L116.924 61.2778L117.043 61.3081L122.521 52.9889L124.429 53.4736ZM126.794 66.5462C126.069 66.3619 125.445 66.058 124.923 65.6345C124.403 65.2061 124.035 64.6868 123.819 64.0768C123.606 63.4618 123.593 62.7817 123.783 62.0364C123.949 61.3806 124.213 60.8818 124.575 60.54C124.938 60.1933 125.366 59.958 125.857 59.8344C126.349 59.7107 126.87 59.6579 127.421 59.6762C127.978 59.6908 128.531 59.7308 129.08 59.7963C129.798 59.8836 130.379 59.9598 130.823 60.0249C131.273 60.0863 131.612 60.0851 131.839 60.0213C132.072 59.9588 132.224 59.7859 132.296 59.5027L132.312 59.4431C132.498 58.7078 132.442 58.0853 132.143 57.5756C131.849 57.0672 131.297 56.7102 130.488 56.5044C129.648 56.2911 128.943 56.3077 128.373 56.5542C127.802 56.8007 127.367 57.108 127.067 57.4761L125.549 56.4557C126.024 55.8359 126.559 55.3953 127.155 55.134C127.756 54.869 128.372 54.7346 129.002 54.7308C129.639 54.7233 130.245 54.7927 130.822 54.9391C131.189 55.0326 131.6 55.1846 132.055 55.3952C132.515 55.6021 132.935 55.8965 133.314 56.2784C133.698 56.6615 133.97 57.1617 134.131 57.779C134.291 58.3963 134.256 59.1596 134.025 60.0688L132.109 67.6108L130.35 67.164L130.744 65.6138L130.654 65.5911C130.472 65.8092 130.206 66.0246 129.856 66.2371C129.505 66.4496 129.074 66.5965 128.561 66.6779C128.049 66.7592 127.46 66.7153 126.794 66.5462ZM127.464 65.0344C128.159 65.2111 128.78 65.2234 129.327 65.0713C129.878 64.9205 130.33 64.6599 130.684 64.2895C131.042 63.9204 131.282 63.4973 131.403 63.0203L131.812 61.4106C131.714 61.4811 131.53 61.5214 131.257 61.5315C130.991 61.538 130.687 61.5269 130.345 61.4982C130.01 61.4659 129.683 61.4304 129.365 61.3919C129.053 61.3497 128.8 61.317 128.604 61.2939C128.132 61.2374 127.68 61.2257 127.249 61.2589C126.823 61.2883 126.456 61.4038 126.145 61.6053C125.841 61.8031 125.632 62.1255 125.519 62.5727C125.363 63.1838 125.472 63.7033 125.845 64.1312C126.223 64.5553 126.763 64.8564 127.464 65.0344ZM146.813 59.1604C146.915 58.3825 146.701 57.7041 146.171 57.1252C145.641 56.5462 144.914 56.1394 143.99 55.9046C143.315 55.733 142.696 55.692 142.133 55.7819C141.576 55.873 141.107 56.0739 140.727 56.3845C140.351 56.6964 140.102 57.0958 139.978 57.5827C139.874 57.9901 139.882 58.365 140.002 58.7073C140.127 59.046 140.319 59.3513 140.578 59.6234C140.838 59.8904 141.121 60.129 141.428 60.339C141.735 60.5441 142.021 60.7199 142.285 60.8663L143.73 61.6775C144.101 61.8828 144.506 62.1393 144.946 62.4468C145.391 62.7556 145.797 63.1258 146.164 63.5574C146.536 63.9852 146.807 64.4823 146.975 65.0487C147.143 65.615 147.136 66.2559 146.954 66.9714C146.745 67.7961 146.339 68.4865 145.738 69.0424C145.142 69.5996 144.381 69.9697 143.457 70.1527C142.537 70.3369 141.491 70.2801 140.319 69.9822C139.226 69.7045 138.324 69.2877 137.614 68.7317C136.908 68.177 136.407 67.526 136.11 66.7789C135.819 66.0331 135.749 65.2352 135.901 64.3854L137.809 64.8701C137.712 65.4591 137.785 65.9853 138.027 66.4487C138.275 66.9084 138.637 67.2965 139.112 67.6128C139.593 67.9255 140.137 68.1588 140.743 68.3128C141.448 68.492 142.111 68.5387 142.73 68.4528C143.351 68.3619 143.878 68.152 144.31 67.8229C144.744 67.4888 145.032 67.0436 145.173 66.4871C145.302 65.9804 145.265 65.532 145.063 65.1421C144.86 64.7522 144.553 64.3991 144.142 64.083C143.73 63.7669 143.275 63.4661 142.776 63.1808L141.035 62.167C139.929 61.5213 139.11 60.7921 138.576 59.9794C138.042 59.1667 137.905 58.2462 138.167 57.2177C138.384 56.3631 138.804 55.6766 139.428 55.158C140.058 54.6357 140.81 54.2979 141.684 54.1446C142.565 53.9876 143.493 54.0328 144.466 54.2802C145.45 54.5301 146.28 54.9287 146.955 55.4758C147.632 56.018 148.117 56.6489 148.41 57.3687C148.708 58.0897 148.772 58.8384 148.601 59.6148L146.813 59.1604ZM153.292 73.2464C152.219 72.9738 151.359 72.4856 150.713 71.7819C150.066 71.0782 149.647 70.2287 149.456 69.2333C149.265 68.2379 149.314 67.1689 149.604 66.0262C149.9 64.8636 150.374 63.8919 151.027 63.1111C151.687 62.3266 152.465 61.7813 153.363 61.4751C154.267 61.1652 155.235 61.1416 156.269 61.4041C157.074 61.6086 157.761 61.942 158.331 62.4041C158.901 62.8663 159.324 63.4181 159.601 64.0595C159.877 64.7008 159.973 65.3919 159.891 66.1325L158.132 65.6857C158.131 65.1299 157.95 64.5921 157.59 64.0723C157.236 63.5488 156.672 63.1886 155.897 62.9916C155.211 62.8175 154.565 62.8436 153.957 63.07C153.356 63.2928 152.829 63.6905 152.377 64.2632C151.931 64.8321 151.598 65.5489 151.378 66.4134C151.154 67.2977 151.097 68.1032 151.209 68.8297C151.325 69.5575 151.593 70.1677 152.013 70.6604C152.438 71.1544 152.998 71.4897 153.693 71.6665C154.15 71.7826 154.585 71.8085 154.998 71.7442C155.411 71.6798 155.785 71.5315 156.119 71.299C156.453 71.0665 156.728 70.7555 156.943 70.3659L158.702 70.8128C158.431 71.4632 158.03 72.0094 157.5 72.4512C156.976 72.8893 156.354 73.186 155.632 73.3411C154.916 73.4926 154.136 73.461 153.292 73.2464ZM160.425 74.8047L163.333 63.3576L165.032 63.7893L164.593 65.5183L164.712 65.5486C165.065 65.0352 165.559 64.6715 166.195 64.4576C166.831 64.2437 167.492 64.2239 168.178 64.3981C168.307 64.4309 168.468 64.4744 168.661 64.5286C168.853 64.5828 168.998 64.6275 169.095 64.6626L168.64 66.4513C168.584 66.4212 168.453 66.3641 168.247 66.2801C168.047 66.1923 167.831 66.1187 167.597 66.0594C167.041 65.918 166.514 65.9085 166.018 66.031C165.527 66.1497 165.104 66.3806 164.747 66.7236C164.396 67.0629 164.155 67.491 164.024 68.0077L162.184 75.2516L160.425 74.8047ZM168.233 76.7885L171.142 65.3414L172.9 65.7882L169.992 77.2354L168.233 76.7885ZM172.521 63.6607C172.178 63.5736 171.912 63.3818 171.723 63.0851C171.539 62.7898 171.488 62.4781 171.571 62.1502C171.655 61.8223 171.848 61.5725 172.151 61.4009C172.458 61.2305 172.784 61.1888 173.126 61.2759C173.469 61.363 173.733 61.5542 173.917 61.8496C174.106 62.1462 174.159 62.4585 174.076 62.7864C173.992 63.1143 173.797 63.3635 173.489 63.5339C173.186 63.7055 172.863 63.7478 172.521 63.6607ZM172.123 82.3465L176.122 66.6066L177.821 67.0383L177.359 68.8568L177.568 68.9098C177.747 68.7439 177.991 68.5359 178.297 68.2859C178.61 68.0322 179.014 67.8386 179.508 67.705C180.008 67.5676 180.631 67.5936 181.376 67.783C182.34 68.0278 183.129 68.4846 183.742 69.1534C184.354 69.8221 184.755 70.6511 184.942 71.6402C185.13 72.6294 185.071 73.7251 184.766 74.9275C184.458 76.1397 183.985 77.1382 183.346 77.9228C182.709 78.7024 181.964 79.2428 181.11 79.5442C180.257 79.8406 179.353 79.8676 178.4 79.6252C177.664 79.4384 177.106 79.1671 176.726 78.8113C176.347 78.4506 176.078 78.0834 175.919 77.7098C175.761 77.3312 175.644 77.0212 175.568 76.7797L175.419 76.7418L173.882 82.7933L172.123 82.3465ZM176.397 72.7695C176.177 73.634 176.11 74.4288 176.195 75.154C176.282 75.8742 176.522 76.4825 176.914 76.9788C177.307 77.4702 177.857 77.8055 178.562 77.9847C179.298 78.1715 179.961 78.1336 180.551 77.8711C181.147 77.6048 181.654 77.1728 182.07 76.5751C182.493 75.9737 182.808 75.2656 183.015 74.4508C183.219 73.6459 183.279 72.889 183.195 72.18C183.117 71.4673 182.877 70.859 182.476 70.3552C182.082 69.8477 181.512 69.4992 180.766 69.3099C180.051 69.1281 179.404 69.1567 178.825 69.3957C178.247 69.6297 177.752 70.0381 177.339 70.6209C176.928 71.1987 176.614 71.9149 176.397 72.7695ZM193.889 71.1205L193.51 72.611L187.578 71.1039L187.956 69.6133L193.889 71.1205ZM190.382 67.3101L192.141 67.7569L189.369 78.6675C189.243 79.1643 189.22 79.5552 189.301 79.8403C189.388 80.1216 189.536 80.3335 189.743 80.476C189.956 80.6149 190.192 80.7171 190.45 80.7827C190.644 80.832 190.805 80.8624 190.935 80.8741C191.065 80.8808 191.17 80.8862 191.248 80.8902L191.204 82.561C191.074 82.5755 190.896 82.5779 190.671 82.5683C190.445 82.5637 190.168 82.5198 189.84 82.4365C189.343 82.3102 188.883 82.0797 188.46 81.7449C188.043 81.4114 187.733 80.9862 187.531 80.4695C187.334 79.954 187.32 79.3634 187.489 78.6976L190.382 67.3101Z" fill="white"/>
<path d="M85.319 73.5717C86.3685 69.4184 92.2696 69.4184 93.3191 73.5717L95.1376 80.7681C95.7675 83.261 98.4996 84.5767 100.841 83.5149L107.602 80.4498C111.503 78.6807 115.182 83.2944 112.59 86.7045L108.097 92.6131C106.541 94.6599 107.215 97.6163 109.506 98.7852L116.117 102.159C119.933 104.107 118.62 109.86 114.337 109.959L106.916 110.13C104.346 110.19 102.455 112.561 102.969 115.08L104.453 122.353C105.31 126.55 99.9928 129.111 97.2452 125.824L92.4844 120.129C90.8352 118.156 87.8029 118.156 86.1537 120.129L81.3929 125.824C78.6453 129.111 73.3285 126.55 74.185 122.353L75.6691 115.08C76.1832 112.561 74.2925 110.19 71.7219 110.13L64.3013 109.959C60.0185 109.86 58.7054 104.107 62.5211 102.159L69.1324 98.7852C71.4227 97.6163 72.0974 94.6599 70.5411 92.6131L66.0486 86.7045C63.4557 83.2944 67.135 78.6807 71.0366 80.4498L77.7967 83.5149C80.1385 84.5767 82.8706 83.261 83.5005 80.7681L85.319 73.5717Z" fill="#FFC046"/>
<path d="M32.4806 68.5684L35.035 85.8627L52.3293 88.4171L35.035 90.9715L32.4806 108.266L29.9262 90.9715L12.6318 88.4171L29.9262 85.8627L32.4806 68.5684Z" fill="white"/>
<path d="M52.3285 28.8708L54.8829 46.1652L72.1772 48.7196L54.8829 51.274L52.3285 68.5683L49.7741 51.274L32.4797 48.7196L49.7741 46.1652L52.3285 28.8708Z" fill="white"/>
<rect x="0.676662" y="0.676662" width="207.059" height="241.343" stroke="white" stroke-width="1.35332"/>
</svg>
