<svg width="52" height="52" viewBox="0 0 52 52" fill="none" xmlns="http://www.w3.org/2000/svg">
<path d="M23.4435 9.66332C24.0841 7.12793 27.6864 7.12793 28.3271 9.66333L29.4372 14.0563C29.8217 15.5781 31.4895 16.3812 32.919 15.7331L37.0457 13.862C39.4274 12.7821 41.6734 15.5985 40.0906 17.6802L37.3481 21.287C36.3981 22.5365 36.81 24.3411 38.2081 25.0547L42.2439 27.1144C44.5732 28.3032 43.7716 31.8152 41.1572 31.8756L36.6274 31.9803C35.0581 32.0166 33.904 33.4638 34.2178 35.0018L35.1237 39.4413C35.6466 42.0036 32.401 43.5666 30.7237 41.5602L27.8176 38.084C26.8108 36.8797 24.9598 36.8797 23.953 38.084L21.0468 41.5602C19.3696 43.5666 16.124 42.0036 16.6468 39.4413L17.5528 35.0018C17.8666 33.4638 16.7124 32.0166 15.1432 31.9803L10.6134 31.8756C7.99901 31.8152 7.19742 28.3032 9.52669 27.1144L13.5625 25.0547C14.9606 24.3411 15.3725 22.5365 14.4224 21.287L11.68 17.6802C10.0972 15.5985 12.3432 12.7821 14.7249 13.862L18.8516 15.7331C20.2811 16.3812 21.9489 15.5781 22.3334 14.0563L23.4435 9.66332Z" fill="#FFC13E"/>
</svg>
