<svg width="910" height="240" viewBox="0 0 910 240" fill="none" xmlns="http://www.w3.org/2000/svg">
<rect x="0.676662" y="0.676662" width="908.08" height="238.636" fill="#FFC046"/>
<path d="M132.761 103.815H95.9502V179.237H79.247V103.815H42.3715V87.1123H132.761V103.815ZM220.453 179.237H203.75V133.175C203.75 130.99 203.193 129.341 202.08 128.228C200.966 127.071 199.296 126.493 197.069 126.493H166.939V109.79H197.069C198.653 109.79 200.324 109.983 202.08 110.368C203.836 110.711 205.57 111.268 207.283 112.039C209.039 112.809 210.71 113.816 212.294 115.058C213.879 116.257 215.271 117.735 216.47 119.491C217.669 121.204 218.633 123.195 219.361 125.465C220.089 127.735 220.453 130.305 220.453 133.175V179.237ZM160.193 179.237H143.49V80.431H160.193V179.237ZM310.458 132.789C310.458 135.102 310.051 137.607 309.237 140.306C308.423 142.961 307.096 145.445 305.254 147.758C303.455 150.028 301.078 151.934 298.123 153.475C295.211 155.017 291.656 155.788 287.459 155.788H257.329V139.92H287.459C289.729 139.92 291.485 139.235 292.727 137.864C293.969 136.451 294.59 134.716 294.59 132.661C294.59 130.476 293.883 128.763 292.47 127.521C291.099 126.279 289.429 125.658 287.459 125.658H257.329C255.059 125.658 253.303 126.365 252.061 127.778C250.819 129.149 250.198 130.862 250.198 132.918V156.238C250.198 158.465 250.883 160.199 252.254 161.441C253.667 162.684 255.401 163.305 257.457 163.305H287.459V179.237H257.329C255.016 179.237 252.511 178.83 249.812 178.016C247.157 177.202 244.673 175.896 242.36 174.097C240.09 172.256 238.184 169.879 236.642 166.966C235.101 164.011 234.33 160.435 234.33 156.238V132.789C234.33 130.476 234.737 127.992 235.55 125.337C236.364 122.639 237.67 120.155 239.469 117.885C241.311 115.572 243.688 113.645 246.6 112.103C249.555 110.561 253.132 109.79 257.329 109.79H287.459C289.771 109.79 292.256 110.197 294.911 111.011C297.609 111.824 300.093 113.152 302.363 114.994C304.676 116.793 306.603 119.17 308.145 122.125C309.687 125.037 310.458 128.592 310.458 132.789ZM442.541 141.59H389.734V124.759H442.541V141.59ZM449.994 103.815H383.052V179.237H366.349V95.5281C366.349 94.3717 366.563 93.2796 366.992 92.2517C367.42 91.2238 367.998 90.3244 368.726 89.5535C369.497 88.7826 370.397 88.183 371.424 87.7547C372.452 87.3264 373.566 87.1123 374.765 87.1123H449.994V103.815ZM545.202 179.237H460.594V148.336C460.594 146.751 460.765 145.081 461.108 143.325C461.493 141.526 462.071 139.749 462.842 137.993C463.613 136.237 464.598 134.566 465.797 132.982C467.039 131.397 468.517 130.005 470.23 128.806C471.986 127.564 473.999 126.579 476.269 125.851C478.539 125.123 481.109 124.759 483.978 124.759H521.625C523.895 124.759 525.565 124.202 526.636 123.088C527.749 121.932 528.306 120.262 528.306 118.077V110.689C528.306 108.42 527.749 106.706 526.636 105.55C525.522 104.394 523.895 103.815 521.753 103.815H468.11V87.1123H521.753C524.58 87.1123 527.128 87.4763 529.398 88.2044C531.668 88.9325 533.66 89.9176 535.373 91.1596C537.129 92.3588 538.628 93.7507 539.87 95.3354C541.112 96.92 542.118 98.5904 542.889 100.346C543.703 102.059 544.281 103.815 544.624 105.614C545.009 107.37 545.202 109.019 545.202 110.561V118.077C545.202 122.403 544.41 126.065 542.825 129.063C541.283 132.018 539.334 134.438 536.979 136.322C534.623 138.164 532.075 139.513 529.334 140.37C526.636 141.184 524.109 141.59 521.753 141.59H483.978C482.608 141.59 481.516 141.783 480.702 142.169C479.888 142.554 479.246 143.068 478.775 143.71C478.346 144.353 478.025 145.081 477.811 145.895C477.597 146.708 477.425 147.522 477.297 148.336V162.534H545.202V179.237ZM638.29 141.59H585.547V124.759H638.29V141.59ZM645.807 179.237H585.547C583.234 179.237 580.707 178.83 577.966 178.016C575.225 177.202 572.676 175.875 570.321 174.033C568.008 172.149 566.059 169.729 564.475 166.774C562.933 163.776 562.162 160.114 562.162 155.788V95.5281C562.162 94.3717 562.376 93.2796 562.804 92.2517C563.233 91.2238 563.811 90.3244 564.539 89.5535C565.31 88.7826 566.209 88.183 567.237 87.7547C568.265 87.3264 569.379 87.1123 570.578 87.1123H645.807V103.815H578.865V155.788C578.865 157.972 579.443 159.643 580.6 160.799C581.756 161.955 583.448 162.534 585.675 162.534H645.807V179.237Z" fill="black"/>
<path d="M132.761 103.815V105.186H134.132V103.815H132.761ZM95.9502 103.815V102.445H94.5797V103.815H95.9502ZM95.9502 179.237V180.607H97.3207V179.237H95.9502ZM79.247 179.237H77.8765V180.607H79.247V179.237ZM79.247 103.815H80.6175V102.445H79.247V103.815ZM42.3715 103.815H41.001V105.186H42.3715V103.815ZM42.3715 87.1123V85.7418H41.001V87.1123H42.3715ZM132.761 87.1123H134.132V85.7418H132.761V87.1123ZM132.761 102.445H95.9502V105.186H132.761V102.445ZM94.5797 103.815V179.237H97.3207V103.815H94.5797ZM95.9502 177.866H79.247V180.607H95.9502V177.866ZM80.6175 179.237V103.815H77.8765V179.237H80.6175ZM79.247 102.445H42.3715V105.186H79.247V102.445ZM43.742 103.815V87.1123H41.001V103.815H43.742ZM42.3715 88.4828H132.761V85.7418H42.3715V88.4828ZM131.391 87.1123V103.815H134.132V87.1123H131.391ZM220.453 179.237V180.607H221.824V179.237H220.453ZM203.75 179.237H202.38V180.607H203.75V179.237ZM202.08 128.228L201.092 129.178L201.101 129.188L201.111 129.197L202.08 128.228ZM166.939 126.493H165.568V127.864H166.939V126.493ZM166.939 109.79V108.42H165.568V109.79H166.939ZM202.08 110.368L201.786 111.707L201.802 111.71L201.817 111.713L202.08 110.368ZM207.283 112.039L206.721 113.288L206.732 113.293L207.283 112.039ZM212.294 115.058L211.449 116.137L211.458 116.144L211.467 116.151L212.294 115.058ZM216.47 119.491L215.338 120.264L215.343 120.27L215.347 120.277L216.47 119.491ZM160.193 179.237V180.607H161.564V179.237H160.193ZM143.49 179.237H142.12V180.607H143.49V179.237ZM143.49 80.431V79.0605H142.12V80.431H143.49ZM160.193 80.431H161.564V79.0605H160.193V80.431ZM220.453 177.866H203.75V180.607H220.453V177.866ZM205.121 179.237V133.175H202.38V179.237H205.121ZM205.121 133.175C205.121 130.77 204.506 128.715 203.049 127.259L201.111 129.197C201.881 129.967 202.38 131.21 202.38 133.175H205.121ZM203.067 127.277C201.608 125.762 199.521 125.123 197.069 125.123V127.864C199.071 127.864 200.324 128.381 201.092 129.178L203.067 127.277ZM197.069 125.123H166.939V127.864H197.069V125.123ZM168.309 126.493V109.79H165.568V126.493H168.309ZM166.939 111.161H197.069V108.42H166.939V111.161ZM197.069 111.161C198.542 111.161 200.114 111.34 201.786 111.707L202.374 109.03C200.534 108.626 198.764 108.42 197.069 108.42V111.161ZM201.817 111.713C203.465 112.035 205.099 112.559 206.721 113.288L207.846 110.789C206.041 109.977 204.206 109.387 202.342 109.023L201.817 111.713ZM206.732 113.293C208.378 114.016 209.95 114.962 211.449 116.137L213.14 113.979C211.469 112.67 209.701 111.603 207.834 110.784L206.732 113.293ZM211.467 116.151C212.926 117.255 214.217 118.622 215.338 120.264L217.602 118.718C216.325 116.848 214.832 115.26 213.121 113.965L211.467 116.151ZM215.347 120.277C216.458 121.863 217.364 123.727 218.056 125.884L220.666 125.047C219.902 122.664 218.881 120.545 217.593 118.705L215.347 120.277ZM218.056 125.884C218.733 127.994 219.083 130.419 219.083 133.175H221.824C221.824 130.191 221.445 127.476 220.666 125.047L218.056 125.884ZM219.083 133.175V179.237H221.824V133.175H219.083ZM160.193 177.866H143.49V180.607H160.193V177.866ZM144.861 179.237V80.431H142.12V179.237H144.861ZM143.49 81.8015H160.193V79.0605H143.49V81.8015ZM158.823 80.431V179.237H161.564V80.431H158.823ZM309.237 140.306L310.548 140.707L310.549 140.701L309.237 140.306ZM305.254 147.758L304.182 146.904L304.18 146.907L305.254 147.758ZM298.123 153.475L297.489 152.26L297.482 152.264L298.123 153.475ZM257.329 155.788H255.958V157.159H257.329V155.788ZM257.329 139.92V138.55H255.958V139.92H257.329ZM292.727 137.864L293.742 138.785L293.749 138.777L293.756 138.769L292.727 137.864ZM292.47 127.521L291.549 128.537L291.557 128.544L291.565 128.551L292.47 127.521ZM252.061 127.778L253.076 128.698L253.083 128.691L253.09 128.683L252.061 127.778ZM252.254 161.441L251.333 162.457L251.341 162.464L251.349 162.471L252.254 161.441ZM287.459 163.305H288.829V161.934H287.459V163.305ZM287.459 179.237V180.607H288.829V179.237H287.459ZM249.812 178.016L249.411 179.327L249.417 179.328L249.812 178.016ZM242.36 174.097L241.497 175.162L241.508 175.171L241.519 175.179L242.36 174.097ZM236.642 166.966L235.427 167.6L235.431 167.608L236.642 166.966ZM235.55 125.337L236.861 125.738L236.862 125.733L235.55 125.337ZM239.469 117.885L238.397 117.031L238.395 117.033L239.469 117.885ZM246.6 112.103L245.966 110.888L245.959 110.892L246.6 112.103ZM294.911 111.011L294.509 112.321L294.515 112.323L294.911 111.011ZM302.363 114.994L301.5 116.058L301.511 116.067L301.522 116.076L302.363 114.994ZM308.145 122.125L306.93 122.759L306.934 122.766L308.145 122.125ZM309.087 132.789C309.087 134.942 308.708 137.313 307.925 139.91L310.549 140.701C311.394 137.902 311.828 135.261 311.828 132.789H309.087ZM307.927 139.904C307.167 142.385 305.923 144.717 304.182 146.904L306.326 148.611C308.268 146.173 309.68 143.537 310.548 140.707L307.927 139.904ZM304.18 146.907C302.517 149.004 300.299 150.794 297.489 152.26L298.757 154.69C301.857 153.073 304.393 151.051 306.328 148.609L304.18 146.907ZM297.482 152.264C294.814 153.677 291.492 154.418 287.459 154.418V157.159C291.82 157.159 295.608 156.358 298.764 154.687L297.482 152.264ZM287.459 154.418H257.329V157.159H287.459V154.418ZM258.699 155.788V139.92H255.958V155.788H258.699ZM257.329 141.291H287.459V138.55H257.329V141.291ZM287.459 141.291C290.021 141.291 292.183 140.505 293.742 138.785L291.711 136.944C290.786 137.964 289.437 138.55 287.459 138.55V141.291ZM293.756 138.769C295.239 137.082 295.96 135.016 295.96 132.661H293.219C293.219 134.417 292.698 135.82 291.697 136.96L293.756 138.769ZM295.96 132.661C295.96 130.152 295.133 128.037 293.374 126.492L291.565 128.551C292.633 129.49 293.219 130.8 293.219 132.661H295.96ZM293.39 126.506C291.75 125.019 289.745 124.288 287.459 124.288V127.029C289.113 127.029 290.448 127.539 291.549 128.537L293.39 126.506ZM287.459 124.288H257.329V127.029H287.459V124.288ZM257.329 124.288C254.753 124.288 252.587 125.103 251.031 126.873L253.09 128.683C254.019 127.626 255.364 127.029 257.329 127.029V124.288ZM251.045 126.858C249.549 128.509 248.827 130.563 248.827 132.918H251.568C251.568 131.161 252.089 129.788 253.076 128.698L251.045 126.858ZM248.827 132.918V156.238H251.568V132.918H248.827ZM248.827 156.238C248.827 158.766 249.618 160.903 251.333 162.457L253.174 160.426C252.148 159.496 251.568 158.164 251.568 156.238H248.827ZM251.349 162.471C253.036 163.954 255.102 164.675 257.457 164.675V161.934C255.701 161.934 254.298 161.413 253.158 160.412L251.349 162.471ZM257.457 164.675H287.459V161.934H257.457V164.675ZM286.088 163.305V179.237H288.829V163.305H286.088ZM287.459 177.866H257.329V180.607H287.459V177.866ZM257.329 177.866C255.176 177.866 252.805 177.487 250.208 176.704L249.417 179.328C252.216 180.173 254.856 180.607 257.329 180.607V177.866ZM250.214 176.706C247.726 175.944 245.39 174.718 243.202 173.016L241.519 175.179C243.956 177.075 246.587 178.461 249.411 179.327L250.214 176.706ZM243.224 173.033C241.114 171.322 239.32 169.095 237.854 166.325L235.431 167.608C237.048 170.662 239.066 173.19 241.497 175.162L243.224 173.033ZM237.858 166.332C236.441 163.617 235.7 160.27 235.7 156.238H232.959C232.959 160.6 233.76 164.405 235.427 167.6L237.858 166.332ZM235.7 156.238V132.789H232.959V156.238H235.7ZM235.7 132.789C235.7 130.637 236.079 128.289 236.861 125.738L234.24 124.935C233.394 127.696 232.959 130.316 232.959 132.789H235.7ZM236.862 125.733C237.625 123.204 238.849 120.874 240.543 118.736L238.395 117.033C236.492 119.435 235.103 122.073 234.238 124.941L236.862 125.733ZM240.541 118.738C242.253 116.589 244.477 114.778 247.241 113.314L245.959 110.892C242.899 112.512 240.369 114.555 238.397 117.031L240.541 118.738ZM247.234 113.318C249.949 111.901 253.296 111.161 257.329 111.161V108.42C252.967 108.42 249.161 109.221 245.966 110.888L247.234 113.318ZM257.329 111.161H287.459V108.42H257.329V111.161ZM287.459 111.161C289.611 111.161 291.959 111.539 294.509 112.321L295.312 109.7C292.552 108.854 289.932 108.42 287.459 108.42V111.161ZM294.515 112.323C297.037 113.083 299.363 114.324 301.5 116.058L303.227 113.929C300.824 111.98 298.182 110.566 295.307 109.699L294.515 112.323ZM301.522 116.076C303.659 117.738 305.467 119.954 306.93 122.759L309.36 121.491C307.74 118.385 305.693 115.847 303.205 113.912L301.522 116.076ZM306.934 122.766C308.346 125.434 309.087 128.756 309.087 132.789H311.828C311.828 128.428 311.027 124.64 309.356 121.483L306.934 122.766ZM442.541 141.59V142.961H443.912V141.59H442.541ZM389.734 141.59H388.363V142.961H389.734V141.59ZM389.734 124.759V123.388H388.363V124.759H389.734ZM442.541 124.759H443.912V123.388H442.541V124.759ZM449.994 103.815V105.186H451.364V103.815H449.994ZM383.052 103.815V102.445H381.682V103.815H383.052ZM383.052 179.237V180.607H384.423V179.237H383.052ZM366.349 179.237H364.979V180.607H366.349V179.237ZM368.726 89.5535L367.757 88.5844L367.743 88.5982L367.73 88.6125L368.726 89.5535ZM449.994 87.1123H451.364V85.7418H449.994V87.1123ZM442.541 140.22H389.734V142.961H442.541V140.22ZM391.104 141.59V124.759H388.363V141.59H391.104ZM389.734 126.129H442.541V123.388H389.734V126.129ZM441.171 124.759V141.59H443.912V124.759H441.171ZM449.994 102.445H383.052V105.186H449.994V102.445ZM381.682 103.815V179.237H384.423V103.815H381.682ZM383.052 177.866H366.349V180.607H383.052V177.866ZM367.72 179.237V95.5281H364.979V179.237H367.72ZM367.72 95.5281C367.72 94.5456 367.901 93.6333 368.257 92.7788L365.727 91.7246C365.226 92.9259 364.979 94.1979 364.979 95.5281H367.72ZM368.257 92.7788C368.624 91.8963 369.114 91.1389 369.723 90.4945L367.73 88.6125C366.882 89.5099 366.215 90.5514 365.727 91.7246L368.257 92.7788ZM369.695 90.5226C370.337 89.881 371.085 89.3807 371.952 89.0198L370.897 86.4896C369.708 86.9852 368.657 87.6842 367.757 88.5844L369.695 90.5226ZM371.952 89.0198C372.8 88.6663 373.733 88.4828 374.765 88.4828V85.7418C373.399 85.7418 372.105 85.9865 370.897 86.4896L371.952 89.0198ZM374.765 88.4828H449.994V85.7418H374.765V88.4828ZM448.623 87.1123V103.815H451.364V87.1123H448.623ZM545.202 179.237V180.607H546.572V179.237H545.202ZM460.594 179.237H459.223V180.607H460.594V179.237ZM461.108 143.325L459.768 143.038L459.765 143.05L459.763 143.062L461.108 143.325ZM465.797 132.982L464.719 132.136L464.712 132.146L464.705 132.155L465.797 132.982ZM470.23 128.806L471.016 129.929L471.022 129.925L470.23 128.806ZM526.636 123.088L525.648 122.138L525.648 122.138L526.636 123.088ZM468.11 103.815H466.74V105.186H468.11V103.815ZM468.11 87.1123V85.7418H466.74V87.1123H468.11ZM535.373 91.1596L534.568 92.2692L534.584 92.2805L534.6 92.2914L535.373 91.1596ZM542.889 100.346L541.634 100.897L541.642 100.916L541.651 100.934L542.889 100.346ZM544.624 105.614L543.277 105.871L543.281 105.889L543.285 105.908L544.624 105.614ZM542.825 129.063L541.613 128.423L541.61 128.429L542.825 129.063ZM536.979 136.322L537.823 137.402L537.829 137.397L537.835 137.393L536.979 136.322ZM529.334 140.37L529.73 141.682L529.743 141.678L529.334 140.37ZM478.775 143.71L477.669 142.9L477.651 142.925L477.634 142.95L478.775 143.71ZM477.811 145.895L476.486 145.546L477.811 145.895ZM477.297 148.336L475.943 148.122L475.926 148.228V148.336H477.297ZM477.297 162.534H475.926V163.904H477.297V162.534ZM545.202 162.534H546.572V161.163H545.202V162.534ZM545.202 177.866H460.594V180.607H545.202V177.866ZM461.964 179.237V148.336H459.223V179.237H461.964ZM461.964 148.336C461.964 146.85 462.125 145.268 462.453 143.587L459.763 143.062C459.405 144.894 459.223 146.653 459.223 148.336H461.964ZM462.448 143.612C462.813 141.908 463.362 140.218 464.097 138.544L461.587 137.442C460.781 139.279 460.173 141.145 459.768 143.038L462.448 143.612ZM464.097 138.544C464.824 136.889 465.753 135.311 466.89 133.809L464.705 132.155C463.443 133.822 462.403 135.584 461.587 137.442L464.097 138.544ZM466.876 133.827C468.032 132.353 469.409 131.054 471.016 129.929L469.444 127.683C467.625 128.957 466.047 130.441 464.719 132.136L466.876 133.827ZM471.022 129.925C472.652 128.772 474.536 127.846 476.688 127.156L475.85 124.546C473.462 125.312 471.32 126.356 469.439 127.687L471.022 129.925ZM476.688 127.156C478.798 126.479 481.223 126.129 483.978 126.129V123.388C480.995 123.388 478.28 123.767 475.85 124.546L476.688 127.156ZM483.978 126.129H521.625V123.388H483.978V126.129ZM521.625 126.129C524.092 126.129 526.194 125.525 527.624 124.038L525.648 122.138C524.936 122.879 523.697 123.388 521.625 123.388V126.129ZM527.623 124.039C529.06 122.547 529.676 120.486 529.676 118.077H526.935C526.935 120.038 526.438 121.317 525.648 122.138L527.623 124.039ZM529.676 118.077V110.689H526.935V118.077H529.676ZM529.676 110.689C529.676 108.213 529.069 106.101 527.623 104.599L525.648 106.501C526.43 107.312 526.935 108.627 526.935 110.689H529.676ZM527.623 104.599C526.173 103.094 524.138 102.445 521.753 102.445V105.186C523.651 105.186 524.871 105.693 525.648 106.501L527.623 104.599ZM521.753 102.445H468.11V105.186H521.753V102.445ZM469.481 103.815V87.1123H466.74V103.815H469.481ZM468.11 88.4828H521.753V85.7418H468.11V88.4828ZM521.753 88.4828C524.463 88.4828 526.867 88.8319 528.979 89.5094L529.817 86.8994C527.389 86.1207 524.696 85.7418 521.753 85.7418V88.4828ZM528.979 89.5094C531.129 90.1987 532.986 91.1223 534.568 92.2692L536.177 90.05C534.333 88.7128 532.207 87.6662 529.817 86.8994L528.979 89.5094ZM534.6 92.2914C536.246 93.4158 537.64 94.7128 538.791 96.1808L540.948 94.4899C539.615 92.7887 538.011 91.3018 536.146 90.0278L534.6 92.2914ZM538.791 96.1808C539.966 97.6796 540.912 99.2516 541.634 100.897L544.144 99.7954C543.325 97.9291 542.258 96.1605 540.948 94.4899L538.791 96.1808ZM541.651 100.934C542.417 102.546 542.957 104.191 543.277 105.871L545.97 105.358C545.605 103.44 544.989 101.573 544.127 99.7583L541.651 100.934ZM543.285 105.908C543.653 107.583 543.831 109.133 543.831 110.561H546.572C546.572 108.906 546.366 107.157 545.962 105.32L543.285 105.908ZM543.831 110.561V118.077H546.572V110.561H543.831ZM543.831 118.077C543.831 122.24 543.069 125.669 541.613 128.423L544.037 129.703C545.75 126.461 546.572 122.566 546.572 118.077H543.831ZM541.61 128.429C540.147 131.233 538.315 133.499 536.123 135.252L537.835 137.393C540.354 135.377 542.419 132.803 544.04 129.697L541.61 128.429ZM536.135 135.243C533.904 136.987 531.502 138.256 528.925 139.062L529.743 141.678C532.648 140.77 535.343 139.341 537.823 137.402L536.135 135.243ZM528.938 139.058C526.344 139.84 523.951 140.22 521.753 140.22V142.961C524.266 142.961 526.927 142.527 529.73 141.682L528.938 139.058ZM521.753 140.22H483.978V142.961H521.753V140.22ZM483.978 140.22C482.501 140.22 481.183 140.424 480.115 140.93L481.289 143.407C481.848 143.142 482.715 142.961 483.978 142.961V140.22ZM480.115 140.93C479.123 141.4 478.292 142.051 477.669 142.9L479.88 144.521C480.2 144.085 480.653 143.708 481.289 143.407L480.115 140.93ZM477.634 142.95C477.115 143.729 476.735 144.599 476.486 145.546L479.136 146.243C479.315 145.563 479.578 144.976 479.915 144.471L477.634 142.95ZM476.486 145.546C476.26 146.403 476.079 147.262 475.943 148.122L478.651 148.55C478.772 147.782 478.934 147.014 479.136 146.243L476.486 145.546ZM475.926 148.336V162.534H478.667V148.336H475.926ZM477.297 163.904H545.202V161.163H477.297V163.904ZM543.831 162.534V179.237H546.572V162.534H543.831ZM638.29 141.59V142.961H639.661V141.59H638.29ZM585.547 141.59H584.176V142.961H585.547V141.59ZM585.547 124.759V123.388H584.176V124.759H585.547ZM638.29 124.759H639.661V123.388H638.29V124.759ZM645.807 179.237V180.607H647.177V179.237H645.807ZM577.966 178.016L577.576 179.33L577.966 178.016ZM570.321 174.033L569.455 175.096L569.466 175.104L569.477 175.113L570.321 174.033ZM564.475 166.774L563.256 167.4L563.261 167.411L563.267 167.421L564.475 166.774ZM564.539 89.5535L563.57 88.5844L563.556 88.5982L563.543 88.6125L564.539 89.5535ZM645.807 87.1123H647.177V85.7418H645.807V87.1123ZM645.807 103.815V105.186H647.177V103.815H645.807ZM578.865 103.815V102.445H577.495V103.815H578.865ZM645.807 162.534H647.177V161.163H645.807V162.534ZM638.29 140.22H585.547V142.961H638.29V140.22ZM586.917 141.59V124.759H584.176V141.59H586.917ZM585.547 126.129H638.29V123.388H585.547V126.129ZM636.92 124.759V141.59H639.661V124.759H636.92ZM645.807 177.866H585.547V180.607H645.807V177.866ZM585.547 177.866C583.393 177.866 580.999 177.487 578.356 176.702L577.576 179.33C580.415 180.173 583.075 180.607 585.547 180.607V177.866ZM578.356 176.702C575.787 175.94 573.392 174.694 571.165 172.953L569.477 175.113C571.961 177.055 574.663 178.465 577.576 179.33L578.356 176.702ZM571.187 172.971C569.031 171.214 567.192 168.941 565.683 166.126L563.267 167.421C564.927 170.516 566.986 173.083 569.455 175.096L571.187 172.971ZM565.694 166.147C564.276 163.39 563.533 159.956 563.533 155.788H560.792C560.792 160.272 561.59 164.162 563.256 167.4L565.694 166.147ZM563.533 155.788V95.5281H560.792V155.788H563.533ZM563.533 95.5281C563.533 94.5456 563.714 93.6333 564.07 92.7788L561.539 91.7246C561.039 92.9259 560.792 94.1979 560.792 95.5281H563.533ZM564.07 92.7788C564.437 91.8963 564.927 91.1389 565.535 90.4945L563.543 88.6125C562.695 89.5099 562.028 90.5514 561.539 91.7246L564.07 92.7788ZM565.508 90.5226C566.15 89.881 566.898 89.3807 567.764 89.0198L566.71 86.4896C565.521 86.9852 564.47 87.6842 563.57 88.5844L565.508 90.5226ZM567.764 89.0198C568.613 88.6663 569.546 88.4828 570.578 88.4828V85.7418C569.212 85.7418 567.918 85.9865 566.71 86.4896L567.764 89.0198ZM570.578 88.4828H645.807V85.7418H570.578V88.4828ZM644.436 87.1123V103.815H647.177V87.1123H644.436ZM645.807 102.445H578.865V105.186H645.807V102.445ZM577.495 103.815V155.788H580.236V103.815H577.495ZM577.495 155.788C577.495 158.21 578.14 160.278 579.631 161.768L581.569 159.83C580.747 159.008 580.236 157.735 580.236 155.788H577.495ZM579.631 161.768C581.126 163.263 583.219 163.904 585.675 163.904V161.163C583.677 161.163 582.386 160.648 581.569 159.83L579.631 161.768ZM585.675 163.904H645.807V161.163H585.675V163.904ZM644.436 162.534V179.237H647.177V162.534H644.436Z" fill="#FFC046"/>
<path d="M739.496 80.7371V73.5399L753.224 51.9482H759.755V61.5445H756.023L748.626 73.2733V73.5399H768.884V80.7371H739.496ZM756.089 86.0684V78.5379L756.289 75.4058V51.9482H764.953V86.0684H756.089ZM788.098 60.4782V67.1423H771.238V60.4782H788.098ZM774.503 54.3473H783.7V77.8382C783.7 78.1936 783.761 78.4935 783.883 78.7379C784.005 78.9711 784.194 79.1488 784.449 79.271C784.705 79.3821 785.032 79.4376 785.432 79.4376C785.71 79.4376 786.032 79.4043 786.399 79.3376C786.776 79.271 787.054 79.2154 787.232 79.171L788.564 85.6352C788.153 85.7574 787.565 85.9073 786.798 86.085C786.043 86.2627 785.143 86.3794 784.099 86.4349C781.989 86.546 780.218 86.3294 778.785 85.7851C777.352 85.2298 776.275 84.3579 775.553 83.1695C774.831 81.981 774.481 80.4927 774.503 78.7045V54.3473ZM801.597 71.6739V86.0684H792.4V51.9482H801.264V65.343H801.53C802.108 63.7103 803.068 62.4386 804.412 61.5278C805.756 60.606 807.372 60.145 809.261 60.145C811.071 60.145 812.643 60.556 813.975 61.3779C815.319 62.1998 816.358 63.3327 817.091 64.7766C817.835 66.2205 818.202 67.8754 818.19 69.7413V86.0684H808.994V71.6739C809.005 70.4077 808.689 69.4137 808.044 68.6917C807.411 67.9698 806.506 67.6088 805.329 67.6088C804.585 67.6088 803.929 67.7754 803.363 68.1086C802.807 68.4307 802.374 68.8972 802.063 69.5081C801.763 70.1079 801.608 70.8298 801.597 71.6739Z" fill="black"/>
<rect x="674.857" y="32.4799" width="208.412" height="72.1773" rx="36.0886" stroke="black" stroke-width="1.80443"/>
<rect x="0.676662" y="0.676662" width="908.08" height="238.636" stroke="white" stroke-width="1.35332"/>
</svg>
