<svg width="290" height="290" viewBox="0 0 290 290" fill="none" xmlns="http://www.w3.org/2000/svg">
<rect x="18" y="54.8613" width="215.464" height="224.803" rx="107.732" transform="rotate(-10.9319 18 54.8613)" fill="#D9D9D9"/>
<circle cx="148.443" cy="141.195" r="25.0801" fill="#D9D9D9"/>
<path opacity="0.3" d="M216.578 201.208H141.774C140.55 201.208 139.332 201.119 138.13 200.886C120.933 197.547 87.9833 183.644 87.9833 143.882C87.9833 102.618 111.272 91.4825 128.738 84.7646" stroke="#C8C6C6" stroke-width="11.4145"/>
<path d="M75.8906 201.208H156.35C157.942 201.208 159.521 201.055 161.068 200.681C176.654 196.914 205.914 185.051 207.561 143.882C209.352 99.0961 170.389 82.5254 147.1 82.5254" stroke="#959595" stroke-width="11.4145"/>
<path d="M157.848 98.2001V67.2979L132.768 83.8686L157.848 98.2001Z" fill="#A6A4A4"/>
<path d="M204.875 186.876L204.875 217.778L229.955 201.208L204.875 186.876Z" fill="#C8C6C6"/>
</svg>
