<svg width="290" height="290" viewBox="0 0 290 290" fill="none" xmlns="http://www.w3.org/2000/svg">
<rect x="204.614" y="4.2207" width="222.976" height="153.137" transform="rotate(69.8496 204.614 4.2207)" fill="#C8C6C6"/>
<rect x="191.875" y="36.5933" width="162.99" height="106.907" transform="rotate(69.8496 191.875 36.5933)" fill="#D9D9D9"/>
<rect width="16.4053" height="63.8944" rx="8.20266" transform="matrix(-0.465288 0.885159 0.885159 0.465288 51.62 112.494)" fill="#A6A4A4"/>
<path d="M150.639 173.809L143.368 162.054L92.0272 135.067L85.4934 147.497L136.165 173.788L150.639 173.809Z" fill="#A6A4A4"/>
<path d="M153.809 188.504C169.488 179.539 195.095 159.211 185.643 143.073C183.245 138.978 177.892 137.375 173.845 139.853C168.616 143.054 163.406 150.086 163.735 163.831C164.344 189.255 194.182 178.306 198.595 167.967C203.008 157.627 209.051 155.923 216.799 160.261" stroke="#444444" stroke-width="4.81561" stroke-linecap="round" stroke-linejoin="round"/>
<path d="M152.499 201.711L229.805 173.344" stroke="#959595" stroke-width="1.92625"/>
</svg>
