<svg width="290" height="290" viewBox="0 0 290 290" fill="none" xmlns="http://www.w3.org/2000/svg">
<rect x="206.533" y="4.41553" width="222.976" height="153.137" transform="rotate(69.8496 206.533 4.41553)" fill="#C8C6C6"/>
<rect x="193.794" y="36.7886" width="162.99" height="106.907" transform="rotate(69.8496 193.794 36.7886)" fill="#D9D9D9"/>
<rect width="16.4053" height="63.8944" rx="8.20266" transform="matrix(-0.656793 0.754071 0.754071 0.656793 63.0345 103.184)" fill="#A6A4A4"/>
<path d="M145.249 185.67L140.883 172.556L97.1456 134.461L87.9226 145.05L131.17 182.313L145.249 185.67Z" fill="#A6A4A4"/>
<path opacity="0.1" d="M155.728 188.699C171.407 179.733 197.014 159.406 187.562 143.268C185.164 139.173 179.811 137.57 175.764 140.048C170.535 143.249 165.325 150.281 165.654 164.026C166.263 189.45 196.101 178.501 200.514 168.162C204.927 157.822 210.97 156.117 218.718 160.456" stroke="#444444" stroke-width="4.81561" stroke-linecap="round" stroke-linejoin="round"/>
<path d="M154.417 201.906L231.724 173.538" stroke="#959595" stroke-width="1.92625"/>
</svg>
